<svg width="102" height="72" viewBox="0 0 102 72" fill="none" xmlns="http://www.w3.org/2000/svg">
<rect x="0.834229" width="100.227" height="71.4578" rx="5.76117" fill="#0060AF"/>
<path fill-rule="evenodd" clip-rule="evenodd" d="M21.4482 42.5763C21.4482 41.6173 21.4593 39.0539 21.4342 38.738C21.4561 34.9236 18.5086 32.2328 16.6464 32.4426C15.3579 32.5478 14.2778 33.0422 13.6982 34.4644C13.1606 35.7898 13.6413 37.5527 15.428 37.9664C17.3383 38.4107 18.4541 38.7803 19.2615 39.3018C20.2508 39.9402 21.0584 41.16 21.0798 42.5778" fill="white"/>
<path fill-rule="evenodd" clip-rule="evenodd" d="M20.6498 42.5778C20.656 41.3485 19.9268 40.2615 18.9737 39.6773C18.1283 39.161 16.9934 38.8219 15.1624 38.3848C14.5964 38.2486 14.0043 37.946 13.821 37.5603C13.3362 38.02 13.2481 39.0534 13.3334 39.6575C13.4326 40.3563 14.3006 41.5081 15.6075 41.5532C16.4057 41.5834 17.4148 41.3916 17.8987 41.2949C18.7335 41.1253 20.0543 41.6172 20.2646 42.5763" fill="white"/>
<path fill-rule="evenodd" clip-rule="evenodd" d="M22.1233 26.4977C19.9071 26.4977 17.9931 27.8728 17.9998 30.2523C18.0067 32.2532 19.7169 33.3244 20.3274 34.0895C21.2495 35.2424 21.7487 36.6071 21.8003 38.6952C21.8409 40.3571 21.8388 41.9982 21.8478 42.5797H22.3368C22.3285 41.9713 22.3064 40.2291 22.3315 38.6438C22.3647 36.5551 22.8818 35.2424 23.8044 34.0895C24.4202 33.3244 26.1288 32.2532 26.1325 30.2523C26.141 27.8728 24.2277 26.4977 22.0138 26.4977" fill="white"/>
<path fill-rule="evenodd" clip-rule="evenodd" d="M22.6857 42.5763C22.6857 41.6173 22.6741 39.0539 22.6988 38.738C22.6771 34.9236 25.6228 32.2328 27.4865 32.4426C28.7751 32.5478 29.8538 33.0422 30.4352 34.4644C30.9722 35.7898 30.4889 37.5527 28.7045 37.9664C26.7928 38.4107 25.6786 38.7803 24.8692 39.3018C23.8811 39.9402 23.1299 41.16 23.1069 42.5778" fill="white"/>
<path fill-rule="evenodd" clip-rule="evenodd" d="M23.4837 42.5778C23.4768 41.3485 24.2058 40.2615 25.1561 39.6773C26.0052 39.161 27.1413 38.8219 28.9707 38.3848C29.5378 38.2486 30.1292 37.946 30.3092 37.5603C30.7964 38.02 30.8844 39.0534 30.7989 39.6575C30.6979 40.3563 29.832 41.5081 28.5273 41.5532C27.7296 41.5834 26.715 41.3916 26.2332 41.2949C25.4016 41.1253 24.0771 41.6172 23.8659 42.5763" fill="white"/>
<path fill-rule="evenodd" clip-rule="evenodd" d="M24.1671 46.5464L23.8838 44.5995L24.5683 44.5019C24.7347 44.4806 24.9376 44.508 25.0188 44.606C25.1084 44.7086 25.1359 44.7934 25.1532 44.9279C25.1792 45.0945 25.128 45.2867 24.9289 45.3826V45.3885C25.1511 45.3885 25.2855 45.5388 25.3247 45.7926C25.3302 45.8464 25.3473 45.9757 25.3302 46.0837C25.285 46.3408 25.1223 46.4236 24.847 46.4598L24.1671 46.5464ZM24.6077 46.198C24.6888 46.187 24.7711 46.1828 24.8355 46.1442C24.9341 46.0837 24.9251 45.9544 24.9113 45.8581C24.8772 45.647 24.8186 45.5666 24.5805 45.5997L24.4306 45.6214L24.5256 46.2087L24.6077 46.198ZM24.4645 45.2982C24.5552 45.2845 24.6778 45.2741 24.729 45.1932C24.756 45.1392 24.7901 45.0963 24.7675 44.9761C24.7396 44.8338 24.6896 44.7453 24.4971 44.7795L24.3179 44.8067L24.3887 45.3056L24.4645 45.2982Z" fill="white"/>
<path fill-rule="evenodd" clip-rule="evenodd" d="M27.1324 45.3756C27.1377 45.4118 27.1439 45.4522 27.1462 45.4884C27.2015 45.8433 27.1324 46.1374 26.7082 46.2183C26.0808 46.3318 25.9607 45.9654 25.8505 45.4522L25.7917 45.1743C25.7053 44.6834 25.6682 44.3116 26.2796 44.1968C26.6242 44.1378 26.852 44.2669 26.9468 44.5897C26.9615 44.6378 26.98 44.6853 26.9869 44.7339L26.6118 44.8068C26.5685 44.6853 26.511 44.4686 26.3423 44.4868C26.0394 44.5213 26.1394 44.8758 26.1705 45.0242L26.2833 45.5572C26.3172 45.7183 26.3845 45.9758 26.6466 45.9261C26.8594 45.886 26.7665 45.5741 26.7476 45.4461" fill="white"/>
<path fill-rule="evenodd" clip-rule="evenodd" d="M27.7342 45.9647L27.6046 43.9499L28.1084 43.8052L29.1649 45.5575L28.7682 45.6692L28.5178 45.2239L28.0772 45.3484L28.1342 45.8547L27.7342 45.9647ZM28.0403 45.023L28.3587 44.9363L27.9359 44.1211L28.0403 45.023Z" fill="white"/>
<path fill-rule="evenodd" clip-rule="evenodd" d="M15.2866 44.4413C15.4443 43.9665 15.5854 43.6166 16.1873 43.7719C16.5094 43.8567 16.709 43.9901 16.6996 44.3422C16.698 44.4205 16.6705 44.5005 16.6526 44.5778L16.2779 44.4806C16.327 44.286 16.3582 44.1318 16.1036 44.058C15.8095 43.9821 15.7378 44.3179 15.6972 44.4628L15.5448 44.9908C15.4964 45.1476 15.4383 45.4069 15.6972 45.4739C15.9111 45.5279 16.0407 45.3305 16.1182 45.042L15.8563 44.9765L15.9469 44.671L16.5631 44.8574L16.2705 45.8754L15.987 45.803L16.0508 45.5878H16.0428C15.912 45.7639 15.753 45.7824 15.6135 45.757C14.9972 45.6004 15.0616 45.2214 15.2087 44.7151" fill="white"/>
<path fill-rule="evenodd" clip-rule="evenodd" d="M17.5804 45.3012L17.3948 46.1294L16.9771 46.0446L17.4222 44.1107L18.1344 44.2619C18.5512 44.3467 18.6771 44.5211 18.6181 44.8808C18.5844 45.0871 18.4763 45.3092 18.2123 45.2912L18.2095 45.288C18.4327 45.3613 18.4516 45.4674 18.4127 45.6502C18.3958 45.7283 18.2799 46.2008 18.3599 46.2771L18.3626 46.3353L17.9304 46.229C17.9124 46.0982 17.9737 45.8626 17.9979 45.732C18.0221 45.6166 18.0611 45.4539 17.9366 45.393C17.8393 45.3439 17.8029 45.3463 17.6927 45.3227L17.5804 45.3012ZM17.6516 45.0016L17.9329 45.073C18.1037 45.0964 18.1987 45.0131 18.2324 44.8188C18.2628 44.6407 18.2234 44.5712 18.0701 44.5368L17.7685 44.479L17.6516 45.0016Z" fill="white"/>
<path fill-rule="evenodd" clip-rule="evenodd" d="M20.2599 44.5426L20.673 44.5877L20.495 45.9474C20.4086 46.3784 20.2315 46.5667 19.7275 46.5079C19.2148 46.4468 19.0931 46.2272 19.124 45.7927L19.3033 44.4344L19.7197 44.479L19.541 45.8071C19.5219 45.9513 19.4866 46.165 19.7591 46.191C20.001 46.2084 20.0558 46.0574 20.0833 45.87" fill="white"/>
<path fill-rule="evenodd" clip-rule="evenodd" d="M21.1284 46.5822L21.2529 44.6381L22.0464 44.6704C22.4218 44.688 22.5198 44.9761 22.5082 45.2512C22.4972 45.4184 22.4418 45.6052 22.2869 45.7065C22.1599 45.7926 21.9964 45.813 21.8452 45.8061L21.5865 45.7926L21.5349 46.6074L21.1284 46.5822ZM21.598 45.4961L21.8083 45.5071C21.9791 45.513 22.0923 45.4494 22.1071 45.2134C22.1156 44.9869 22.0243 44.9483 21.803 44.9392L21.6365 44.9338L21.598 45.4961Z" fill="white"/>
<path fill-rule="evenodd" clip-rule="evenodd" d="M77.112 28.3767L73.9573 33.7647C72.7665 32.8547 71.3127 32.1852 69.4575 32.1852C65.0672 32.1852 63.2837 35.2643 63.2837 37.4333C63.2837 39.0435 64.4042 41.4189 68.3105 41.4189C69.9504 41.4189 72.2812 40.3457 72.9521 39.8572L69.8321 46.1081C68.3449 46.3873 67.8561 46.5604 66.5973 46.5971C59.6054 46.7934 56.7803 42.7519 56.7821 38.6225C56.7869 33.1631 61.9452 26.5239 70.4968 26.5239C71.0206 26.5239 71.6615 26.6946 72.2095 26.8836L72.7635 26.2169" fill="white"/>
<path fill-rule="evenodd" clip-rule="evenodd" d="M90.1293 26.3861L91.0226 45.9682H84.3742L84.3705 42.61H79.8368L78.3449 45.9682H71.1344L78.6728 31.985L76.973 31.9745L80.2024 26.3861H90.1293ZM84.3271 32.3767L81.7642 38.0725H84.4046L84.3271 32.3767Z" fill="white"/>
<path fill-rule="evenodd" clip-rule="evenodd" d="M52.5849 26.3861C55.8773 26.4035 57.7378 28.0851 57.7378 30.514C57.7378 32.7535 55.7756 34.7356 53.6217 35.7606C55.8393 36.5278 56.0311 38.4107 56.0311 39.7427C56.0311 42.9612 52.5992 45.9682 48.1379 45.9682H38.4082L42.2034 32.1798L40.6445 32.1713L43.8313 26.3861C43.8313 26.3861 49.9076 26.3688 52.5849 26.3861V26.3861ZM49.3548 34.3256C50.0358 34.3256 51.2384 34.1633 51.539 32.9232C51.8684 31.5767 50.7399 31.5405 50.1986 31.5405L48.2643 31.5327L47.5898 34.3256H49.3548ZM46.62 37.786L45.7294 41.0043H48.0072C48.9031 41.0043 50.1243 40.5856 50.4236 39.5383C50.7191 38.4882 49.8654 37.786 48.9727 37.786H46.62Z" fill="white"/>
<path fill-rule="evenodd" clip-rule="evenodd" d="M22.2108 48.3744C18.8419 48.3744 15.38 47.5937 11.9225 46.0496L11.8377 46.0103L11.7971 45.929C10.2455 42.8474 9.4248 39.477 9.4248 36.1793C9.4248 32.8864 10.2119 29.66 11.7644 26.5825L11.8073 26.5007L11.8937 26.4599C15.0921 25.0343 18.5325 24.3124 22.1232 24.3124C25.4678 24.3124 29.0401 25.1161 32.4517 26.6411L32.539 26.6777L32.5796 26.761C34.1607 29.8995 34.9946 33.2692 34.9946 36.5125C34.9946 39.7427 34.1939 42.9721 32.6107 46.1086L32.5692 46.1908L32.4812 46.229C29.3315 47.6319 25.7799 48.3744 22.2108 48.3744M12.2426 45.627C15.6012 47.1139 18.9512 47.8644 22.2109 47.8644C25.6672 47.8644 29.1044 47.1536 32.1645 45.806C33.6844 42.7667 34.4549 39.6386 34.4549 36.5125C34.4549 33.3734 33.6508 30.1084 32.1296 27.0621C28.8188 25.5977 25.3611 24.8211 22.1233 24.8211C18.6471 24.8211 15.3151 25.5148 12.2135 26.8836C10.7247 29.8663 9.96686 32.992 9.96686 36.1793C9.96686 39.3722 10.7542 42.6387 12.2426 45.627Z" fill="white"/>
</svg>
