<svg width="101" height="72" viewBox="0 0 101 72" fill="none" xmlns="http://www.w3.org/2000/svg">
<rect x="0.716675" y="0.271179" width="100.227" height="71.4578" rx="5.76117" fill="white"/>
<path fill-rule="evenodd" clip-rule="evenodd" d="M16.9704 42.7036L20.3718 46.908H11.9505L16.9704 42.7036ZM15.9007 41.4049L9.31313 46.9208L9.31043 33.355L15.9007 41.4049ZM31.7509 27.745C31.7509 27.745 30.3047 27.0617 28.6247 27.1615C26.704 27.2744 25.0972 28.0096 24.1734 28.9798C23.5921 29.5893 22.9496 30.3328 22.6268 31.1403C22.1587 32.3084 22.0588 33.8519 22.0588 33.8519C22.0588 33.8519 21.387 33.2828 20.5454 31.6245C19.5668 29.6957 19.2991 28.5273 19.1665 27.1944C19.0485 26.0246 19.2338 24.868 19.2338 24.868H31.7509V27.745ZM31.751 31.5908V40.1445C31.751 40.1445 30.9728 40.4428 30.3381 40.4428C29.7034 40.4428 28.6224 40.3489 27.367 39.6599C26.1207 38.9766 25.4309 38.1499 24.8961 37.4007C24.3537 36.6387 23.9059 35.5824 23.7727 34.8213C23.6657 34.2123 23.5504 32.6934 24.1735 31.4589C24.5117 30.789 25.4192 29.6406 27.1665 29.5753C28.5908 29.5208 29.3806 29.8945 30.1045 30.291C31.482 31.0472 31.751 31.5908 31.751 31.5908V31.5908ZM18.1213 39.5438L20.3791 37.6653C19.6595 36.7479 19.4693 36.4022 18.665 35.2178C17.8414 34.0055 17.1516 32.6717 16.5617 31.1068C15.9232 29.4116 15.7689 28.4599 15.8394 27.1944C15.9278 25.5843 16.2946 24.868 16.2946 24.868H9.30725L9.31049 28.6269C9.31049 28.6269 14.6591 35.3173 18.1213 39.5438V39.5438ZM24.5723 46.9018H31.7509V41.6773C31.7509 41.6773 29.9704 42.4925 28.813 42.5584C28.1239 42.5985 27.4552 42.625 26.3761 42.3384C25.1766 42.0203 24.4951 41.7102 23.3834 40.7949C22.4904 40.0607 21.4694 38.9766 21.4694 38.9766L19.1984 40.8666C20.252 42.153 21.0302 43.0894 21.2684 43.3415C22.2927 44.4219 22.7267 44.8189 23.4166 45.2039C24.1062 45.5897 26.4101 45.5689 26.4101 45.5689L24.5723 46.9018Z" fill="#E94E0F"/>
<path fill-rule="evenodd" clip-rule="evenodd" d="M86.0422 42.2545C86.0422 43.7683 86.2467 46.2565 84.5483 46.8623V46.9631H90.9989V46.8623C89.3016 46.2233 89.5052 43.7683 89.5052 42.2545V29.5759C89.5052 28.0629 89.3016 25.5741 90.9989 24.9352V24.8344H84.5483V24.9352C86.2799 25.5741 86.0422 28.0292 86.0422 29.5759V42.2545ZM62.3891 29.5759L74.0346 44.2054C75.528 46.1219 76.5811 47.2323 78.9915 48.0389V29.1725C78.9915 27.2894 78.9915 25.9439 80.7575 24.9352V24.8344H74.7814V24.9352C76.5811 25.9439 76.5466 27.2894 76.5466 29.1725V41.9184L64.121 26.3811L63.6451 25.7084C63.4079 25.4396 63.2723 25.2715 63.1365 24.8681V24.8344H58.1787V24.9352C59.9444 25.9439 59.9444 27.2894 59.9444 29.1725V42.5916C59.9444 44.4743 59.9444 45.8193 58.1455 46.8622V46.9631H64.155V46.8622C62.3553 45.8193 62.3891 44.4743 62.3891 42.5916V29.5759ZM43.4064 33.7465V27.1551L45.6807 26.9191C47.7181 26.7174 49.8905 27.9283 49.8905 30.2491C49.8905 33.0067 46.733 33.7465 44.5268 33.7465H43.4064ZM43.4064 44.2726V35.9656L45.7825 35.8313C48.7704 35.663 51.9617 37.0759 51.9617 40.338C51.9617 43.5328 49.1445 44.8106 46.3597 44.5417L43.4064 44.2726ZM39.9429 42.221C39.9429 43.7683 40.1469 46.2233 38.4487 46.8623V46.9631H44.0509C46.5972 46.9631 49.2801 47.0643 51.6562 45.9207C53.931 44.8444 55.7307 42.6245 55.7307 40.0348C55.7307 36.7397 53.2517 34.7215 50.1961 34.0821C52.1316 33.2417 53.591 31.9638 53.591 29.7105C53.591 26.7174 50.9775 24.8344 46.4962 24.8344H38.4487V24.9352C40.1812 25.5741 39.9429 28.0292 39.9429 29.5422V42.221Z" fill="#005B6A"/>
</svg>
