<svg width="102" height="72" viewBox="0 0 102 72" fill="none" xmlns="http://www.w3.org/2000/svg">
<rect x="0.775635" y="0.271179" width="100.227" height="71.4578" rx="5.76117" fill="#00529C"/>
<path fill-rule="evenodd" clip-rule="evenodd" d="M30.4874 31.271H35.2644C37.1988 31.271 38.6409 32.1253 38.6409 33.9237C38.6409 35.2423 37.9724 35.9767 36.8111 36.3657V36.3954C38.1952 36.6809 38.9095 37.4303 38.9095 38.7033C38.9095 41.2065 36.7214 41.7305 34.8617 41.7305H30.4874V31.271ZM33.2543 35.407H34.0288C34.9364 35.407 35.8744 35.1821 35.8744 34.2973C35.8744 33.3394 34.9813 33.2487 34.0578 33.2487H33.2543V35.407ZM33.2543 39.7528H34.0741C35.085 39.7528 36.1412 39.6028 36.1412 38.5386C36.1412 37.4006 35.0556 37.2948 34.1031 37.2948H33.2543V39.7528Z" fill="white"/>
<path fill-rule="evenodd" clip-rule="evenodd" d="M42.5419 31.271H45.9347L49.9376 41.7305H46.9017L46.1285 39.4983H42.2298L41.4109 41.7305H38.5988L42.5419 31.271ZM44.239 33.4293H44.2077L42.8694 37.5206H45.4732L44.239 33.4293Z" fill="white"/>
<path fill-rule="evenodd" clip-rule="evenodd" d="M50.3229 31.271H53.8493L57.3612 38.3745H57.3902L57.3463 31.271H59.8767V41.7305H56.4391L52.8071 34.5828H52.7786L52.8674 41.7305H50.3229V31.271Z" fill="white"/>
<path fill-rule="evenodd" clip-rule="evenodd" d="M60.8162 31.271H63.5835V35.5429H63.6134L66.7372 31.271H70.0716L66.2317 36.1409L70.3691 41.7305H66.8413L63.6134 36.9806H63.5835V41.7305H60.8162V31.271Z" fill="white"/>
<path fill-rule="evenodd" clip-rule="evenodd" d="M73.8004 31.271H78.5773C80.5113 31.271 81.9552 32.1253 81.9552 33.9237C81.9552 35.2423 81.2867 35.9767 80.1254 36.3657V36.3954C81.5091 36.6809 82.2233 37.4303 82.2233 38.7033C82.2233 41.2065 80.0357 41.7305 78.1765 41.7305H73.8004V31.271ZM76.5686 35.407H77.3417C78.2498 35.407 79.1865 35.1821 79.1865 34.2973C79.1865 33.3394 78.2947 33.2487 77.3725 33.2487H76.5686V35.407ZM76.5686 39.7528H77.3875C78.3984 39.7528 79.4555 39.6028 79.4555 38.5386C79.4555 37.4006 78.3694 37.2948 77.4169 37.2948H76.5686V39.7528Z" fill="white"/>
<path fill-rule="evenodd" clip-rule="evenodd" d="M82.8367 31.271H87.7771C89.6218 31.271 91.1255 32.1097 91.1255 33.9091C91.1255 35.3025 90.4706 36.2316 89.1318 36.5459V36.5756C90.0227 36.8159 90.0834 37.6096 90.6042 38.8835L91.6165 41.7305H88.73L88.1345 39.8436C87.5688 38.0451 87.2114 37.5945 86.1846 37.5945H85.604V41.7305H82.8367V31.271ZM85.604 35.6168H86.3337C87.2264 35.6168 88.3578 35.5862 88.3578 34.4026C88.3578 33.4293 87.3894 33.2487 86.3337 33.2487H85.604V35.6168Z" fill="white"/>
<mask id="mask0_0_14" style="mask-type:luminance" maskUnits="userSpaceOnUse" x="6" y="25" width="90" height="23">
<path fill-rule="evenodd" clip-rule="evenodd" d="M6.50281 47.0129H95.1462V25.9961H6.50281V47.0129Z" fill="white"/>
</mask>
<g mask="url(#mask0_0_14)">
<path fill-rule="evenodd" clip-rule="evenodd" d="M92.3788 41.7306H95.1461V31.271H92.3788V41.7306Z" fill="white"/>
<path fill-rule="evenodd" clip-rule="evenodd" d="M24.1715 25.996H9.68625C7.92802 25.996 6.50269 27.467 6.50269 29.2818V29.3165V43.7279C6.50269 45.525 7.90175 46.9859 9.63734 47.0128H24.1638C25.9225 47.0128 27.3483 45.5418 27.3483 43.7279L27.3551 29.2818C27.3551 27.467 25.9302 25.996 24.1715 25.996V25.996ZM11.4083 45.3288L10.618 45.3375C9.66142 45.3375 8.88603 44.5461 8.88603 43.5696L8.8815 43.4305V30.0892L8.88648 29.3708C8.92226 28.4257 9.63516 27.6649 10.5691 27.6649H12.1756C13.6313 27.6649 14.812 28.9397 14.812 30.444C14.812 31.1875 14.5226 31.8625 14.0538 32.3533L9.95492 36.5418L13.7966 40.4812C14.2921 40.9953 14.5914 41.6712 14.5914 42.4115C14.5914 44.023 13.1661 45.3288 11.4083 45.3288V45.3288ZM23.2186 45.3156L16.0562 45.3124C16.0562 45.3124 16.8845 43.5098 16.8845 42.3942C16.8845 41.0341 16.4325 39.8185 15.7255 39.0144L13.2757 36.4994L15.7763 33.8977C16.5204 33.193 17.015 31.9423 17.015 30.5179C17.015 29.3899 16.7052 28.3906 16.2065 27.6649H17.9421C19.3982 27.6649 20.579 28.9397 20.579 30.444C20.579 31.1875 20.29 31.8625 19.8213 32.3533L15.8007 36.498L24.1512 45.0734C23.8867 45.2412 23.5529 45.3156 23.2186 45.3156V45.3156ZM24.9677 42.6382L18.9832 36.4962L21.8335 33.5789C22.4141 32.8487 22.7819 31.7481 22.7819 30.5179C22.7819 29.3826 22.4675 28.3591 21.9643 27.633L23.2402 27.6713C24.1968 27.6713 24.9722 28.464 24.9722 29.4401L24.9677 42.6382Z" fill="white"/>
</g>
</svg>
