<svg width="101" height="72" viewBox="0 0 101 72" fill="none" xmlns="http://www.w3.org/2000/svg">
<rect x="0.558716" y="0.271118" width="100.227" height="71.4578" rx="5.76117" fill="#EE3124"/>
<path fill-rule="evenodd" clip-rule="evenodd" d="M9.14954 47.1429H32.0424V24.5668H9.14954V47.1429Z" fill="white"/>
<path fill-rule="evenodd" clip-rule="evenodd" d="M24.4086 28.8329H12.243L17.6302 35.854H29.7968L24.4086 28.8329Z" fill="#ED3124"/>
<path fill-rule="evenodd" clip-rule="evenodd" d="M29.7967 35.8541H17.63L12.2429 42.8746H24.4084L29.7967 35.8541Z" fill="#820024"/>
<path fill-rule="evenodd" clip-rule="evenodd" d="M87.1526 40.5699H84.1862V37.09H87.1526C88.5363 37.09 89.0313 37.9844 89.0313 38.8209C89.0313 39.667 88.5363 40.5699 87.1526 40.5699V40.5699ZM84.1862 31.1378H86.9639C88.1292 31.1378 88.8232 31.744 88.8232 32.7661C88.8232 33.785 88.1292 34.3907 86.9639 34.3907H84.1862V31.1378ZM90.0931 35.667C90.7586 35.3069 91.85 34.2928 91.85 32.6411C91.85 30.0615 90.0656 28.456 87.1925 28.456H81.1577V43.2491H87.4465C90.2905 43.2491 92.0587 41.6101 92.0587 38.9656C92.0587 36.9789 90.8767 36.0573 90.0931 35.667V35.667ZM69.3729 37.9073C69.2591 37.7153 64.0748 28.4268 64.0748 28.4268H61.1127V43.2209H64.1395V34.3832C64.3697 34.7704 69.3729 43.3405 69.3729 43.3405C69.3729 43.3405 74.3529 34.7714 74.5751 34.3853V43.2209H77.6051V28.4268H74.6447C74.6447 28.4268 69.4786 37.7153 69.3729 37.9073V37.9073ZM54.3687 43.2491H57.4063V28.456H54.3687V43.2491ZM49.3531 39.6856C48.4698 40.3812 47.4004 40.747 46.2734 40.747C43.5367 40.747 41.4083 38.5986 41.4083 35.8541C41.4083 33.1091 43.5367 30.9591 46.2734 30.9591C47.4004 30.9591 48.4698 31.3255 49.3531 32.0221L49.3951 32.0551L51.5058 29.9748L51.4578 29.9306C50.0137 28.7001 48.1759 28.021 46.2734 28.021C41.8456 28.021 38.2434 31.5356 38.2434 35.8541C38.2434 40.1716 41.8456 43.6851 46.2734 43.6851C48.1759 43.6851 50.0137 43.0076 51.4578 41.7771L51.5058 41.7308L49.3951 39.6526L49.3531 39.6856Z" fill="white"/>
</svg>
