<svg width="101" height="72" viewBox="0 0 101 72" fill="none" xmlns="http://www.w3.org/2000/svg">
<rect x="0.498047" y="0.406677" width="100.227" height="71.4578" rx="5.76117" fill="#108EE9"/>
<path fill-rule="evenodd" clip-rule="evenodd" d="M22.1319 24.7023H21.7978C19.0215 24.7607 16.287 25.8695 14.2708 27.7769C11.9071 29.9611 10.5507 33.1441 10.5206 36.3521V36.6506C10.5774 39.7918 11.8954 42.9014 14.1906 45.0623C16.2235 47.0231 19.0098 48.1653 21.8379 48.2119H22.1653C25.9873 48.1686 29.6656 46.0327 31.6534 42.7864C33.3539 40.0953 33.8767 36.7106 33.1217 33.6243C32.4886 30.9616 30.8917 28.5356 28.68 26.9149C26.8008 25.5143 24.4755 24.7457 22.1319 24.7023ZM16.9419 34.2546C18.021 34.5697 19.1719 34.378 20.2226 34.0395C20.8016 33.849 21.3716 33.6312 21.9416 33.4134L21.9416 33.4134C22.8631 33.0613 23.7847 32.7091 24.7445 32.4722C26.0291 32.1721 27.4723 32.4138 28.5013 33.2642C28.7049 33.4594 28.7045 33.7414 28.704 34.0088C28.7039 34.0749 28.7038 34.1401 28.7068 34.2029C28.6953 35.0636 28.6994 35.9245 28.7035 36.7854V36.7856V36.7857V36.7857V36.7858V36.7858C28.7095 38.0545 28.7155 39.3231 28.6717 40.5905C28.5167 40.5247 28.3625 40.4548 28.2081 40.3848L28.208 40.3848C27.5722 40.0967 26.9328 39.8069 26.2178 39.7935C24.7267 39.7117 23.3483 40.2057 21.9673 40.7006C20.8436 41.1033 19.7181 41.5067 18.5288 41.6009C17.4497 41.676 16.3221 41.4208 15.4468 40.7722C15.2675 40.5245 15.2765 40.2144 15.2852 39.9109C15.2888 39.7874 15.2923 39.6651 15.2831 39.5484C15.2998 38.778 15.2924 38.0062 15.285 37.2343V37.2342C15.2732 35.9897 15.2613 34.745 15.3499 33.5059C15.5468 33.5935 15.7363 33.6977 15.9257 33.8018L15.9257 33.8018L15.9257 33.8018L15.9257 33.8018L15.9257 33.8018C16.2521 33.9813 16.5783 34.1607 16.9419 34.2546ZM39.5878 30.5576C38.9969 30.5614 38.4062 30.5651 37.8156 30.5581C37.8148 32.5372 37.8148 34.5168 37.8148 36.4965C37.8148 38.4763 37.8148 40.4563 37.814 42.4363C38.4722 42.4371 39.13 42.4371 39.7879 42.4371C40.4455 42.4371 41.1032 42.4371 41.7612 42.4379C42.7184 42.4396 43.6856 42.2562 44.5408 41.8143C46.816 40.7006 48.1339 38.0228 47.698 35.5401C47.3372 32.9557 45.0754 30.7598 42.4478 30.5847C41.4948 30.5456 40.5412 30.5516 39.5878 30.5576H39.5878ZM40.3019 38.9091C40.3068 36.9769 40.3117 35.0447 40.2946 33.1125C40.5498 33.1203 40.8065 33.1158 41.0634 33.1114C41.6253 33.1016 42.1882 33.0918 42.7384 33.2108C44.1098 33.5243 45.1672 34.7998 45.2641 36.1937C45.4095 37.581 44.6026 39.0132 43.3197 39.5801C42.6243 39.9081 41.8601 39.8922 41.1037 39.8764C40.8335 39.8707 40.5643 39.8651 40.2996 39.8752L40.3019 38.9091ZM52.118 35.3617C52.1982 32.7856 54.5218 30.4714 57.1344 30.5597C59.6952 30.5331 61.9436 32.7973 62.0455 35.3233C62.0721 36.7746 62.068 38.2264 62.0639 39.6781V39.6781V39.6782V39.6783C62.0613 40.5966 62.0587 41.5149 62.0639 42.4329L62.0622 42.4329H62.0615C61.2321 42.4346 60.4043 42.4363 59.5766 42.4329C59.5724 42.0081 59.5728 41.5832 59.5732 41.1586V41.1576C59.5736 40.7326 59.5741 40.3079 59.5699 39.8835C58.5933 39.8885 57.6172 39.8876 56.6415 39.8867H56.6411H56.641H56.6409H56.6408C55.9578 39.8861 55.2749 39.8855 54.592 39.8869C54.5895 40.2035 54.5907 40.5204 54.5919 40.8373V40.8373V40.8374V40.8384C54.594 41.3739 54.596 41.9096 54.5803 42.4446C54.0291 42.4313 53.4786 42.4327 52.9283 42.4342H52.9282H52.9273H52.9272H52.9272C52.6524 42.435 52.3777 42.4357 52.103 42.4346C52.106 41.5779 52.1038 40.7209 52.1015 39.864V39.8622C52.0976 38.3615 52.0936 36.8609 52.118 35.3617ZM55.2284 33.9645C54.5505 34.6956 54.5703 35.6822 54.5892 36.6276C54.594 36.868 54.5988 37.1057 54.592 37.3358C55.2548 37.3365 55.9179 37.3361 56.5811 37.3357H56.5811H56.5812H56.5831C57.5788 37.3351 58.5747 37.3345 59.5699 37.3375C59.5637 37.1083 59.5691 36.8717 59.5744 36.6327V36.6326V36.6326V36.6326C59.5952 35.7084 59.6169 34.746 58.9786 34.0162C58.0882 32.849 56.1505 32.8223 55.2284 33.9645ZM66.4153 35.3884C66.4888 33.1208 68.2645 31.0166 70.5179 30.6348C72.1951 30.313 73.9925 30.9716 75.0849 32.2754C75.9302 33.2042 76.3611 34.4613 76.3611 35.7085C76.3645 37.2034 76.3634 38.6976 76.3623 40.1921V40.1923C76.3617 40.9396 76.3611 41.687 76.3611 42.4346C76.0794 42.4363 75.7975 42.4353 75.5155 42.4343C74.9715 42.4323 74.4273 42.4304 73.8839 42.4479C73.8659 41.1776 73.8688 39.9066 73.8717 38.6358V38.6358C73.8739 37.6582 73.8761 36.6807 73.8689 35.7035C73.8822 34.7965 73.3961 33.8928 72.601 33.4426C71.7758 32.9491 70.6583 33.0224 69.9016 33.616C69.2467 34.1045 68.8809 34.9182 68.8926 35.7285C68.8888 37.0062 68.8893 38.2833 68.8899 39.5605V39.5605C68.8903 40.5184 68.8907 41.4763 68.8893 42.4346C68.5862 42.4334 68.2831 42.4339 67.98 42.4345C67.4495 42.4355 66.9191 42.4364 66.3886 42.4279C66.4063 41.2968 66.4031 40.1653 66.3998 39.0338V39.0333C66.3963 37.8182 66.3928 36.6031 66.4153 35.3884ZM81.5094 32.8607C82.4699 31.3667 84.2439 30.403 86.0363 30.5731C88.0626 30.6981 89.86 32.2388 90.4212 34.1645C90.6285 34.8147 90.6383 35.4939 90.6481 36.1725C90.6537 36.5607 90.6593 36.9486 90.7019 37.3308V42.4213C90.0654 42.4388 89.429 42.4366 88.7926 42.4344L88.7909 42.4344C88.5793 42.4336 88.3677 42.4329 88.1561 42.4329C88.1551 42.1591 88.1555 41.8851 88.156 41.611C88.157 41.0323 88.158 40.4534 88.1444 39.8752C87.1368 39.8904 86.1286 39.8884 85.1201 39.8863C84.4718 39.885 83.8233 39.8836 83.1749 39.8869C83.174 40.3112 83.174 40.7355 83.174 41.1601C83.174 41.5846 83.174 42.0094 83.1732 42.4346H80.6842C80.6834 41.34 80.6834 40.2458 80.6834 39.1518C80.6834 38.0578 80.6834 36.964 80.6826 35.8702C80.6709 34.8165 80.9231 33.746 81.5094 32.8607ZM83.7979 33.9811C83.1333 34.7096 83.1531 35.6883 83.172 36.6265V36.627C83.1769 36.8676 83.1817 37.1055 83.1749 37.3358C84.2813 37.3369 85.3878 37.3366 86.4938 37.3362H86.4956C87.0487 37.336 87.6017 37.3358 88.1545 37.3358C88.1471 37.1006 88.1523 36.8579 88.1575 36.6125C88.1772 35.6924 88.1977 34.7364 87.5581 34.0111C86.6594 32.8423 84.7133 32.8273 83.7979 33.9811Z" fill="white"/>
</svg>
