<svg width="101" height="72" viewBox="0 0 101 72" fill="none" xmlns="http://www.w3.org/2000/svg">
<rect x="0.2323" y="0.406677" width="100.227" height="71.4578" rx="5.76117" fill="white"/>
<path fill-rule="evenodd" clip-rule="evenodd" d="M16.3927 27.7712C17.3432 27.6167 18.3184 27.6346 19.2735 27.7298C20.1589 27.9124 21.0522 28.1162 21.8647 28.5251C23.5088 29.3081 24.9082 30.5772 25.8407 32.1398C26.614 33.5837 27.1459 35.2034 27.0662 36.8579C27.0887 40.2542 24.9329 43.4903 21.8793 44.9342C19.8997 45.874 17.5969 46.0028 15.4815 45.4875C14.0506 45.0484 12.6703 44.3382 11.6277 43.2472C10.6346 42.3276 9.88491 41.1559 9.40909 39.8946C8.78849 38.3432 8.73238 36.6182 8.99611 34.9839C9.47866 32.5565 10.9813 30.3308 13.1079 29.0404C14.0978 28.3896 15.2357 28.0031 16.3927 27.7712ZM15.1223 32.1297C14.4063 32.2025 13.6242 32.4535 13.228 33.0987C12.7904 33.7167 12.7447 34.4896 12.7013 35.224C12.6978 35.2842 12.6942 35.3443 12.6905 35.4039C12.6815 35.5892 12.665 35.7741 12.6484 35.9592L12.6484 35.9592C12.615 36.3325 12.5815 36.7059 12.6108 37.0819C12.6326 37.3358 12.648 37.5905 12.6634 37.8453C12.7019 38.4818 12.7403 39.1186 12.879 39.7434C13.0507 40.5309 13.7611 41.1413 14.5444 41.2847C16.0043 41.5474 17.4914 41.5243 18.9697 41.5014L18.9701 41.5014C19.1053 41.4993 19.2405 41.4972 19.3756 41.4953C19.9805 41.4617 20.5853 41.4001 21.1835 41.3049C22.079 41.1884 22.8702 40.4603 23.0172 39.5642C23.2742 38.4653 23.3202 37.3317 23.2439 36.2104C23.1002 35.4913 22.5908 34.8427 21.8983 34.5795C21.5864 34.429 21.2404 34.43 20.901 34.4309C20.8411 34.431 20.7815 34.4312 20.7222 34.4305C20.0548 34.4313 19.3874 34.431 18.7201 34.4306H18.7193H18.7193C17.5511 34.4299 16.383 34.4293 15.2155 34.435C15.0812 34.4375 14.956 34.3916 14.8318 34.3462C14.7857 34.3294 14.7398 34.3126 14.6936 34.2983C14.6903 34.0474 14.6992 33.6722 15.037 33.6655C15.9166 33.6456 16.797 33.6515 17.6773 33.6573C18.8367 33.665 19.996 33.6727 21.1532 33.6218C21.0275 33.0393 20.6717 32.4311 20.059 32.2698C19.5057 32.1219 18.9334 32.0468 18.3644 31.9942C18.2022 31.9922 18.0396 31.9891 17.877 31.986H17.877C16.9553 31.9684 16.0295 31.9507 15.1223 32.1297ZM21.389 37.0225C21.0938 36.943 20.7403 37.0595 20.6371 37.3631C20.5723 37.7125 20.6761 38.0492 20.7793 38.3837C20.8226 38.5241 20.8658 38.6642 20.8963 38.8047C20.93 38.8243 20.9805 38.8534 21.031 38.8826C21.0815 38.9117 21.132 38.9408 21.1657 38.9604C21.2812 38.8932 21.3991 38.8327 21.5214 38.7801C21.5346 38.4844 21.606 38.2001 21.6773 37.9159C21.709 37.7898 21.7406 37.6637 21.7672 37.5367C21.7122 37.3272 21.5741 37.1357 21.389 37.0225Z" fill="#01ACD7"/>
<path fill-rule="evenodd" clip-rule="evenodd" d="M38.5958 30.5627C37.7305 30.2244 36.7699 30.2625 35.8631 30.3745C33.9015 30.6769 32.18 32.1712 31.5987 34.0654C31.3349 34.8159 31.3406 35.6257 31.4101 36.4087C31.6447 38.4115 33.1541 40.1702 35.0697 40.7829C36.4276 41.1929 37.9942 41.2063 39.2478 40.4726C39.4115 40.3822 39.5602 40.2706 39.7089 40.1588L39.7089 40.1588C39.8477 40.0546 39.9866 39.9503 40.1377 39.8633L40.14 39.9673C40.1586 40.7929 40.1796 41.7266 39.5519 42.35C39.1311 42.863 38.4948 43.133 37.8517 43.2315C36.4613 43.4858 34.9912 43.012 33.9576 42.0621C33.7278 42.2957 33.4871 42.5189 33.2464 42.742L33.2464 42.742L33.2464 42.742L33.2464 42.742L33.2464 42.742C32.857 43.103 32.4676 43.4639 32.125 43.8689C33.2068 44.8905 34.5771 45.6275 36.0629 45.8236C37.515 46.0062 39.0772 45.9177 40.3711 45.1728C41.4687 44.5645 42.3328 43.5261 42.6717 42.3153C42.882 41.7119 42.8792 41.0673 42.8764 40.4367L42.8759 40.3304C42.8748 36.9912 42.8748 33.6531 42.8759 30.314C42.3501 30.3075 41.8242 30.3078 41.2984 30.3081C40.9186 30.3083 40.5388 30.3085 40.159 30.3061C40.1593 30.3978 40.1598 30.4896 40.1603 30.5813C40.162 30.8794 40.1636 31.1775 40.1568 31.4756C39.6888 31.0936 39.1715 30.7564 38.5958 30.5627ZM35.1494 33.4728C35.5995 33.074 36.1965 32.9217 36.7789 32.8354C37.9382 32.6596 39.2422 33.1894 39.8359 34.2255C40.0753 34.6453 40.0653 35.1199 40.0554 35.5899C40.052 35.7544 40.0485 35.9185 40.0558 36.0794C40.1535 37.0673 39.3825 37.9388 38.4993 38.2749C37.4321 38.6759 36.1157 38.7028 35.1842 37.9623C33.7882 36.9172 33.7601 34.5324 35.1494 33.4728ZM62.4386 30.3084C61.2783 30.3005 60.0685 30.6467 59.2324 31.4823C59.225 31.3755 59.2181 31.2689 59.2111 31.1624L59.2111 31.1622C59.1991 30.9783 59.1872 30.7949 59.173 30.6119C58.2595 30.6007 57.346 30.5974 56.4325 30.6119C56.4338 33.3765 56.4336 36.141 56.4334 38.9055C56.4333 40.9789 56.4331 43.0523 56.4336 45.1257C57.0755 45.167 57.719 45.1634 58.3622 45.1598C58.6614 45.1581 58.9605 45.1565 59.2594 45.1593C59.2803 43.8785 59.2756 42.5971 59.271 41.3156V41.3155V41.3154V41.3153V41.3152L59.271 41.3129L59.271 41.3105L59.271 41.3082L59.271 41.3058C59.2694 40.8713 59.2678 40.4367 59.2672 40.0021C61.2827 41.6006 64.4912 41.4247 66.3036 39.591C68.2765 37.6162 68.3898 34.0967 66.4899 32.0356C65.49 30.8886 63.9548 30.2546 62.4386 30.3084ZM59.3996 34.4664C59.6947 33.5803 60.597 33.0516 61.4735 32.878C62.3768 32.6954 63.3868 32.9228 64.0849 33.5366C65.2677 34.6097 65.2767 36.6719 64.1612 37.7955C63.0423 38.8764 61.0627 38.8562 59.9506 37.7753C59.477 37.3575 59.229 36.7033 59.2705 36.0783C59.2798 35.9135 59.2754 35.7463 59.271 35.579V35.579V35.579V35.5789V35.5789C59.261 35.2001 59.2509 34.8206 59.3996 34.4664ZM48.238 30.4461C49.8327 30.1258 51.5778 30.3184 52.966 31.2045C54.022 31.8407 54.8255 32.8724 55.1846 34.0497C55.6773 35.5966 55.4562 37.3664 54.5337 38.7128C53.6169 40.0693 52.0513 40.9005 50.4353 41.0562C49.4399 41.1234 48.4108 41.0898 47.4693 40.728C45.9094 40.2049 44.6009 38.9201 44.1408 37.3328C43.647 35.8453 43.8759 34.1426 44.7221 32.8253C45.5054 31.5932 46.8184 30.7519 48.238 30.4461ZM48.9056 32.8926C48.5084 33.0057 48.1369 33.2028 47.8115 33.4549C46.6848 34.3409 46.4098 36.0928 47.2122 37.2791C48.1291 38.7879 50.4947 39.0859 51.7359 37.8223C52.343 37.2656 52.6314 36.4345 52.5506 35.6201C52.6191 33.8144 50.6125 32.3594 48.9056 32.8926ZM74.9559 30.3756C73.323 30.1616 71.5544 30.389 70.1999 31.3848C69.4177 32.0054 68.7488 32.859 68.6164 33.8738C69.0064 33.9405 69.3931 34.0247 69.7799 34.1089C70.2837 34.2185 70.7875 34.3282 71.2985 34.3992C71.5196 33.5131 72.2895 32.8086 73.1929 32.6629C73.7775 32.5621 74.3858 32.5924 74.9548 32.7649C75.4519 32.9262 75.8301 33.4694 75.6124 33.987C75.2068 34.356 74.6552 34.4676 74.1297 34.5739L74.1293 34.574L74.1292 34.574C74.0615 34.5877 73.9943 34.6013 73.9279 34.6154C73.8374 34.6283 73.7466 34.6411 73.6555 34.654L73.6543 34.6541C72.3203 34.8422 70.9334 35.0378 69.7981 35.8072C68.3942 36.7873 68.3886 39.0937 69.687 40.1646C70.7588 41.0842 72.2682 41.1895 73.6126 41.0114C74.5429 40.8378 75.48 40.4357 76.0736 39.6706C76.077 39.8593 76.077 40.0481 76.077 40.237C76.077 40.4259 76.077 40.6149 76.0804 40.8042C76.285 40.8039 76.4897 40.8033 76.6945 40.8026H76.6948H76.6951H76.6953C77.3448 40.8005 77.995 40.7984 78.6458 40.8087C78.6483 39.5432 78.648 38.278 78.6476 37.013V37.013V37.0129C78.6473 36.0643 78.6471 35.1158 78.648 34.1673C78.6581 33.3978 78.3764 32.6484 77.9522 32.0144C77.2632 31.0488 76.0938 30.5615 74.9559 30.3756ZM71.4231 38.0419C71.2749 37.6913 71.5611 37.3452 71.8473 37.1727C72.4244 36.8552 73.074 36.7367 73.7224 36.6185C74.5038 36.476 75.2833 36.3339 75.9322 35.8442C75.926 35.998 75.931 36.1589 75.9359 36.3221V36.3223C75.9528 36.8735 75.9704 37.4502 75.5652 37.8616C74.7819 38.6412 73.589 38.7846 72.5352 38.7174C72.0975 38.6916 71.5218 38.5404 71.4231 38.0419ZM79.7754 30.6041C79.4737 30.6047 79.172 30.6052 78.8702 30.6052C79.6663 32.2655 80.48 33.9175 81.2938 35.5696C82.0574 37.1197 82.821 38.67 83.5701 40.2273C83.2019 41.0354 82.8015 41.8287 82.4012 42.6219C81.978 43.4604 81.5549 44.2989 81.1697 45.1548C81.4939 45.1534 81.8183 45.1559 82.1428 45.1584C82.864 45.164 83.5857 45.1695 84.3063 45.1324C86.6708 40.2956 89.0331 35.4588 91.3932 30.6198C90.3327 30.5929 89.2733 30.5974 88.2139 30.6153C87.1972 32.8433 86.1681 35.0668 85.1334 37.2858C84.8283 36.6282 84.5199 35.972 84.2116 35.3159C83.7079 34.2442 83.2043 33.1726 82.715 32.095C82.6366 31.9195 82.5502 31.7476 82.4639 31.5756C82.3055 31.2602 82.1472 30.945 82.0383 30.6086C81.284 30.6014 80.5297 30.6027 79.7754 30.6041Z" fill="#010101"/>
</svg>
