<svg width="101" height="72" viewBox="0 0 101 72" fill="none" xmlns="http://www.w3.org/2000/svg">
<rect x="0.498047" y="0.13559" width="100.227" height="71.4578" rx="5.76117" fill="#003D79"/>
<path fill-rule="evenodd" clip-rule="evenodd" d="M7.74778 37.9811C7.74778 36.6996 7.72517 35.6241 7.65735 34.6652H10.0103L10.1207 36.3127H10.1867C10.72 35.4421 11.6953 34.4126 13.5145 34.4126C14.9345 34.4126 16.0436 35.2379 16.5086 36.4726H16.5543C16.9321 35.8551 17.3743 35.398 17.8841 35.0766C18.4836 34.6426 19.1716 34.4126 20.0589 34.4126C21.8553 34.4126 23.6732 35.6703 23.6732 39.2388V45.8022H21.0116V39.6511C21.0116 37.7988 20.3915 36.6996 19.0834 36.6996C18.1502 36.6996 17.4618 37.387 17.1753 38.1878C17.108 38.4615 17.0415 38.8048 17.0415 39.1227V45.8022H14.379V39.3528C14.379 37.7988 13.781 36.6996 12.5164 36.6996C11.4959 36.6996 10.8091 37.5242 10.5644 38.3002C10.4528 38.5764 10.408 38.8957 10.408 39.2153V45.8022H7.74778V37.9811Z" fill="white"/>
<path fill-rule="evenodd" clip-rule="evenodd" d="M34.0431 43.1271C34.0431 44.1329 34.0874 45.1147 34.1984 45.8027H31.7353L31.5585 44.5681H31.4912C30.826 45.4379 29.6948 46.0545 28.2974 46.0545C26.123 46.0545 24.9036 44.432 24.9036 42.7386C24.9036 39.9246 27.3205 38.5079 31.3137 38.5305V38.3468C31.3137 37.6147 31.025 36.4034 29.1176 36.4034C28.0523 36.4034 26.9428 36.7467 26.2112 37.2262L25.6781 35.3981C26.4782 34.8939 27.8769 34.4131 29.5835 34.4131C33.0454 34.4131 34.0431 36.6786 34.0431 39.1018V43.1271ZM31.3801 40.3602C29.4506 40.314 27.6099 40.7485 27.6099 42.4412C27.6099 43.5378 28.2974 44.042 29.1628 44.042C30.2484 44.042 31.0483 43.3099 31.2915 42.5097C31.3575 42.3039 31.3801 42.0743 31.3801 41.892V40.3602Z" fill="white"/>
<path fill-rule="evenodd" clip-rule="evenodd" d="M35.9295 37.9811C35.9295 36.6996 35.9051 35.6241 35.8405 34.6652H38.2341L38.368 36.3346H38.4335C38.8999 35.4666 40.0755 34.4126 41.8719 34.4126C43.758 34.4126 45.71 35.6703 45.71 39.1931V45.8022H42.9819V39.5141C42.9819 37.9121 42.4052 36.6996 40.9188 36.6996C39.8318 36.6996 39.0778 37.5002 38.7887 38.3468C38.7014 38.599 38.6784 38.9428 38.6784 39.2607V45.8022H35.9295V37.9811Z" fill="white"/>
<path fill-rule="evenodd" clip-rule="evenodd" d="M57.5391 30.1903V42.6684C57.5391 43.8117 57.5827 45.0489 57.6272 45.8027H55.187L55.0778 44.042H55.0326C54.3889 45.2776 53.0782 46.0545 51.5049 46.0545C48.9329 46.0545 46.8914 43.7907 46.8914 40.3602C46.8688 36.632 49.1314 34.4131 51.7265 34.4131C53.2122 34.4131 54.2779 35.0543 54.7651 35.8782H54.8101V30.1903H57.5391ZM54.81 39.3064C54.81 39.0801 54.7872 38.8044 54.7445 38.5764C54.5001 37.4786 53.6345 36.5861 52.3922 36.5861C50.6399 36.5861 49.6637 38.1879 49.6637 40.2691C49.6637 42.3039 50.6399 43.7907 52.37 43.7907C53.4787 43.7907 54.4553 43.0134 54.7212 41.8016C54.7872 41.5489 54.81 41.2748 54.81 40.9765V39.3064Z" fill="white"/>
<path fill-rule="evenodd" clip-rule="evenodd" d="M59.467 45.8021H62.2204V34.6658H59.467V45.8021Z" fill="white"/>
<path fill-rule="evenodd" clip-rule="evenodd" d="M64.1485 38.2554C64.1485 36.7466 64.1254 35.6702 64.0592 34.6649H66.4332L66.52 36.7911H66.612C67.1435 35.2131 68.4082 34.6649 69.5612 34.6649C69.8268 34.6649 69.9819 34.6181 70.2044 34.6649V37.1356C69.9819 37.0899 69.7384 37.0443 69.4057 37.0443C68.0971 37.0443 67.2091 37.9125 66.9654 39.1695C66.9222 39.4212 66.8775 39.7198 66.8775 40.0415V45.8026H64.1485V38.2554Z" fill="white"/>
<path fill-rule="evenodd" clip-rule="evenodd" d="M71.4689 45.8021H74.2182V34.6658H71.4689V45.8021Z" fill="white"/>
<path fill-rule="evenodd" clip-rule="evenodd" d="M70.8183 21.2008C69.1668 22.1867 65.2716 24.4901 63.8175 25.3478C62.9312 25.8133 60.8787 26.0166 59.7178 24.4027C59.697 24.3735 58.1737 22.4112 58.1116 22.3373C58.0679 22.2851 57.0831 20.7792 54.8889 20.7321C54.5647 20.7241 52.9528 20.7153 51.3799 21.6369C49.2894 22.8683 44.4275 25.7341 44.4275 25.7341C44.4261 25.7341 44.4261 25.7366 44.4236 25.7366C42.4251 26.9156 40.8679 27.8334 40.8679 27.8334L42.7077 30.1631C43.5684 31.2649 45.5092 32.1173 47.1924 31.1211C47.1924 31.1211 53.4115 27.4081 53.4343 27.3973C56.1239 25.8765 58.1993 25.8765 59.5767 26.4424C60.8131 26.9811 61.8888 28.3232 61.8888 28.3232C61.8888 28.3232 63.2945 30.1193 63.5426 30.4335C64.3424 31.4486 65.6663 31.0498 65.6663 31.0498C65.6663 31.0498 66.1569 30.9924 66.8964 30.5398C66.8964 30.5398 72.9204 26.9386 72.9242 26.9375C74.837 25.7804 76.5914 25.5644 77.488 25.6494C80.2963 25.9126 81.1687 27.9353 82.3863 29.3464C83.1035 30.1764 83.7505 30.6477 84.74 30.6239C85.3902 30.6097 86.1247 30.2032 86.233 30.1298L93.4466 25.8378C93.4466 25.8378 92.7064 24.6884 91.1906 22.9002C89.8339 21.3048 88.3929 22.0266 87.244 22.6133C86.7613 22.8594 85.0124 24.0589 83.2798 24.8957C82.0452 25.4916 80.2719 25.3124 79.3 24.0743C79.2419 23.999 77.6695 22.0364 77.5043 21.7949C76.8697 20.9754 75.6315 20.2414 74.0446 20.2414C73.0797 20.2414 71.9849 20.5127 70.8183 21.2008Z" fill="url(#paint0_linear_0_16)"/>
<defs>
<linearGradient id="paint0_linear_0_16" x1="40.8679" y1="31.5623" x2="93.4466" y2="31.5623" gradientUnits="userSpaceOnUse">
<stop stop-color="#FFCA06"/>
<stop offset="0.330844" stop-color="#FBAA18"/>
<stop offset="0.694742" stop-color="#FFC907"/>
<stop offset="1" stop-color="#FAA619"/>
</linearGradient>
</defs>
</svg>
