<svg width="101" height="72" viewBox="0 0 101 72" fill="none" xmlns="http://www.w3.org/2000/svg">
<rect x="0.615112" y="0.406677" width="100.227" height="71.4578" rx="5.76117" fill="#4C3494"/>
<path fill-rule="evenodd" clip-rule="evenodd" d="M82.4932 27.5036C80.1387 25.4281 76.9009 24.4582 73.7867 24.7547C73.0086 24.8255 72.2366 24.9637 71.4874 25.185C68.7429 25.973 66.3358 27.85 64.8988 30.3112C62.9666 33.557 62.7353 37.7229 64.2267 41.1838C65.3343 43.7911 67.4513 45.955 70.0468 47.1025C72.9945 48.4057 76.4829 48.4451 79.457 47.2022C80.9729 46.5655 82.3477 45.5929 83.4501 44.3745C85.4628 42.18 86.5336 39.1853 86.4653 36.2203C86.4478 32.9316 85.0019 29.6535 82.4932 27.5036ZM69.0093 31.6206C70.1161 29.9736 71.9413 28.8252 73.9173 28.5803C75.484 28.3678 77.127 28.6792 78.4843 29.4987C79.7882 30.271 80.8073 31.4824 81.4163 32.8634C82.6194 35.6185 82.3495 39.0331 80.533 41.4628C79.6717 42.6139 78.4624 43.5112 77.0893 43.9538C75.3648 44.5144 73.4231 44.3937 71.7897 43.604C70.5016 42.9856 69.4247 41.9605 68.7105 40.7273C67.114 37.9582 67.206 34.2725 69.0093 31.6206ZM31.89 25.9678C29.7651 24.8684 27.2923 24.501 24.9282 24.8142C22.649 25.1072 20.4584 26.0938 18.7584 27.6419C17.0147 29.1987 15.7905 31.311 15.2613 33.5824C14.6225 36.2789 14.9169 39.1993 16.1393 41.6929C17.2618 44.0221 19.2123 45.9436 21.5633 47.0291C23.8915 48.1101 26.5755 48.369 29.0816 47.8433C31.4896 47.3431 33.7135 46.0241 35.3162 44.1629C36.8444 42.4049 37.796 40.1719 38.0633 37.8637C38.3218 35.7113 38.0019 33.4888 37.1231 31.5043C36.0812 29.1349 34.2051 27.1363 31.89 25.9678ZM22.4379 29.8232C23.3755 29.1471 24.4875 28.722 25.6327 28.5751C27.0041 28.3984 28.4315 28.6153 29.6714 29.2337C31.1313 29.9447 32.3028 31.1894 32.9924 32.6517C33.7758 34.2821 33.9887 36.1617 33.6934 37.9389C33.4209 39.5605 32.6787 41.1252 31.4923 42.2797C30.4723 43.3074 29.1159 43.9923 27.6849 44.2136C25.9324 44.4891 24.0721 44.1104 22.6035 43.1063C21.0867 42.0961 20.022 40.4841 19.562 38.734C19.1081 37.0057 19.1651 35.1375 19.7583 33.4494C20.263 32.0115 21.1901 30.7101 22.4379 29.8232ZM39.121 25.3363L39.1201 25.3363C39.1195 26.1712 39.1197 27.0066 39.1199 27.8421C39.12 28.2598 39.1201 28.6777 39.1201 29.0955C39.6879 29.0968 40.2552 29.0966 40.8227 29.0965C41.0119 29.0964 41.2012 29.0963 41.3905 29.0963C42.7944 32.3199 44.1965 35.5443 45.5985 38.7685C46.617 41.1109 47.6355 43.4531 48.6547 45.7949C49.1287 46.8812 50.125 47.7287 51.2843 47.9972C51.7061 48.1073 52.1411 48.1029 52.5746 48.0985C52.7094 48.0971 52.8441 48.0957 52.9781 48.0978C54.3085 44.9701 55.6432 41.8442 56.9778 38.7184C58.5689 34.9921 60.1599 31.2659 61.7434 27.5369C61.7837 27.0832 61.7776 26.625 61.7714 26.1669C61.7677 25.8894 61.7639 25.6119 61.7705 25.3354H54.4117C54.4108 26.5896 54.4099 27.843 54.4117 29.0963C54.732 29.0967 55.0524 29.0966 55.3727 29.0965C55.7998 29.0964 56.2269 29.0962 56.654 29.0972C56.0681 30.5299 55.4837 31.9633 54.8992 33.3966C53.766 36.1755 52.6328 38.9544 51.4894 41.7287C50.6006 39.628 49.712 37.5273 48.8234 35.4267C47.931 33.3168 47.0386 31.207 46.1459 29.0972C46.5227 29.0959 46.8997 29.0961 47.2768 29.0963C47.654 29.0966 48.0312 29.0968 48.4084 29.0955V25.3363C45.3129 25.3345 42.2174 25.3354 39.121 25.3363Z" fill="white"/>
</svg>
