<svg width="24" height="25" viewBox="0 0 24 25" fill="none" xmlns="http://www.w3.org/2000/svg">
<rect x="0.9" y="1.23179" width="22.2" height="22.2" rx="11.1" stroke="#B9C5E1" stroke-width="1.8"/>
<path fill-rule="evenodd" clip-rule="evenodd" d="M11.1427 7.10376C11.663 7.10376 12.0847 7.52552 12.0847 8.04578V13.5727L15.6367 15.3487C16.1021 15.5814 16.2907 16.1472 16.058 16.6126C15.8254 17.0779 15.2595 17.2665 14.7942 17.0338L10.7214 14.9975C10.4023 14.8379 10.2007 14.5117 10.2007 14.1549V8.04578C10.2007 7.52552 10.6224 7.10376 11.1427 7.10376Z" fill="#B9C5E1"/>
<path d="M12.0847 13.5727H12.0204C12.0204 13.597 12.0342 13.6193 12.056 13.6302L12.0847 13.5727ZM15.6367 15.3487L15.6655 15.2912L15.6367 15.3487ZM16.058 16.6126L16.1155 16.6413L16.058 16.6126ZM14.7942 17.0338L14.8229 16.9763L14.7942 17.0338ZM10.7214 14.9975L10.7502 14.94H10.7502L10.7214 14.9975ZM12.149 8.04578C12.149 7.49001 11.6985 7.03947 11.1427 7.03947V7.16805C11.6275 7.16805 12.0204 7.56102 12.0204 8.04578H12.149ZM12.149 13.5727V8.04578H12.0204V13.5727H12.149ZM15.6655 15.2912L12.1135 13.5152L12.056 13.6302L15.608 15.4062L15.6655 15.2912ZM16.1155 16.6413C16.3641 16.1442 16.1626 15.5397 15.6655 15.2912L15.608 15.4062C16.0416 15.623 16.2173 16.1502 16.0005 16.5838L16.1155 16.6413ZM14.7654 17.0913C15.2625 17.3399 15.867 17.1384 16.1155 16.6413L16.0005 16.5838C15.7837 17.0174 15.2565 17.1931 14.8229 16.9763L14.7654 17.0913ZM10.6927 15.055L14.7654 17.0913L14.8229 16.9763L10.7502 14.94L10.6927 15.055ZM10.1364 14.1549C10.1364 14.5361 10.3518 14.8845 10.6927 15.055L10.7502 14.94C10.4528 14.7913 10.265 14.4874 10.265 14.1549H10.1364ZM10.1364 8.04578V14.1549H10.265V8.04578H10.1364ZM11.1427 7.03947C10.5869 7.03947 10.1364 7.49001 10.1364 8.04578H10.265C10.265 7.56102 10.6579 7.16805 11.1427 7.16805V7.03947Z" fill="#B9C5E1"/>
</svg>
