<svg width="120" height="120" viewBox="0 0 120 120" fill="none" xmlns="http://www.w3.org/2000/svg">
    <path d="M106.904 108.741c-18.386 15.012-75.797 15.012-93.808 0-18.387-15.012-16.51-79.187 0-96.075 16.51-16.888 77.298-16.888 93.808 0 16.511 16.888 18.387 81.064 0 96.075z" fill="#329C69"/>
    <path opacity=".2" fill-rule="evenodd" clip-rule="evenodd" d="M2.604 88.08c14.15-2.891 28.515-9.577 41.758-20.055 22.83-18.231 35.932-43.338 37.062-66.196-24.463-4.428-56.936-.816-68.328 10.837C.986 25.052-3.25 62.873 2.604 88.081z" fill="#fff"/>
    <path d="M53.298 85.31c-1.992 0-3.983-.854-5.121-2.563L32.243 62.243c-2.276-2.848-1.707-6.834 1.139-9.113 2.845-2.278 6.828-1.708 9.104 1.14l10.812 13.954 23.9-31.04c2.276-2.849 6.26-3.418 9.105-1.14 2.845 2.278 3.414 6.265 1.138 9.113l-29.022 37.59c-1.422 1.424-3.13 2.563-5.121 2.563z" fill="#fff"/>
</svg>
