<?xml version="1.0" encoding="utf-8"?>
<!-- Generator: Adobe Illustrator 27.0.0, SVG Export Plug-In . SVG Version: 6.00 Build 0)  -->
<svg version="1.1" id="Logo" xmlns="http://www.w3.org/2000/svg" xmlns:xlink="http://www.w3.org/1999/xlink" x="0px" y="0px"
	 viewBox="0 0 139.3 44" style="enable-background:new 0 0 139.3 44;" xml:space="preserve">
<style type="text/css">
	.st0{fill:#FFFFFF;}
</style>
<path id="HACKSAW" class="st0" d="M41.7,24.9c1.9,2,4.2,3,6.9,3c1.2,0,2.5-0.3,3.9-0.9l0.2-4.4l-12.9-0.5
	C40.3,23.2,40.9,24.1,41.7,24.9z M19.6,21.4l-1.5,6.1H25l0.5-3.1H30l0.5,3.1h6.8L36.1,22L19.6,21.4z M26.4,2.4L22,20.8l16.5,0.6
	l-4-19H26.4z M28.8,18.5l0.7-3.8l0.5-3c0-0.1,0-0.2,0.1-0.5c0-0.3,0.1-0.7,0.2-1.4c0-0.3,0.1-0.6,0.1-0.9c0-0.3,0.1-0.5,0.1-0.7
	l0.2,2.3c0.1,0.5,0.1,0.9,0.1,1.2c0,0.3,0.1,0.6,0.1,0.7c0.2,1.6,0.3,2.5,0.3,2.8c0,0.1,0,0.3,0.1,0.4l0.4,2.9L28.8,18.5L28.8,18.5z
	 M50,20.5c-0.5-0.3-1-0.7-1.3-1.2c-0.4-0.6-0.7-1.3-0.8-2c-0.2-0.9-0.3-1.8-0.3-2.7c0-2.1,0.4-3.7,1.1-4.8c0.8-1.2,1.8-1.7,3.2-1.7
	c1,0,2,0.5,3,1.5v-7c-1-0.4-2.1-0.6-3.3-0.6c-3.3,0-5.9,1.2-7.8,3.5c-2,2.3-2.9,5.4-2.9,9.3c0,2.7,0.4,4.9,1.3,6.8L55.1,22l0.1-2.7
	c-1.1,1.1-2.3,1.6-3.4,1.6C51.2,21,50.5,20.8,50,20.5z M78.7,13.7c0.3,0.6,0.8,1.2,1.2,1.7c0.6,0.6,1.2,1.1,1.8,1.6l1.1,0.8
	c0.8,0.6,1.2,1.3,1.2,1.9c0,0.4-0.2,0.9-0.5,1.1c-0.4,0.3-0.9,0.5-1.4,0.5c-1.5,0-2.9-0.9-4.2-2.7v4.3l11.7,0.4c0.7-1.2,1-2.7,1-4.3
	c0-1.4-0.3-2.7-0.9-3.7c-0.6-1.1-1.6-2.1-3-3.1l-1-0.8c-0.9-0.6-1.3-1.3-1.3-2c0-0.4,0.2-0.8,0.5-1C85.2,8.1,85.7,8,86.1,8
	c0.7,0,1.3,0.2,2,0.7c0.7,0.5,1.4,1.2,1.8,2V3.2C88.4,2.4,86.8,2,85.2,2c-1.8,0-3.3,0.5-4.5,1.6c-0.5,0.4-0.9,0.8-1.2,1.3
	c-1.1,1.5-1.7,3.3-1.7,5.2c0,0.6,0.1,1.3,0.2,1.9C78.2,12.5,78.4,13.1,78.7,13.7L78.7,13.7z M0,27.5h6.6v-6.6L0,20.7V27.5z
	 M12.1,20.4l6.6,0.2V2.4h-6.6v8.7H8.9V2.4H2.3v17.7l6.6,0.2V17h3.1L12.1,20.4L12.1,20.4z M9.7,27.5h6.6v-6.2L9.7,21L9.7,27.5
	L9.7,27.5z M68.6,2.4l-3.9,10.5l0.2-10.5h-6.6v19.8l6.5,0.2l-0.1-6.8l2.7,6.9l6.9,0.3l-4-8.5l5.3-11.8C75.5,2.4,68.6,2.4,68.6,2.4z
	 M97.4,2.4l-5,21l17.6,0.7l-4.6-21.7H97.4z M99.7,18.5l0.7-3.8l0.5-3c0-0.1,0-0.2,0.1-0.5c0-0.3,0.1-0.7,0.2-1.4
	c0-0.3,0.1-0.6,0.1-0.9c0-0.3,0.1-0.5,0.1-0.7l0.2,2.3c0.1,0.5,0.1,0.9,0.1,1.2c0,0.3,0.1,0.6,0.1,0.7c0.2,1.6,0.3,2.5,0.3,2.8
	c0,0.1,0,0.3,0.1,0.4l0.4,2.9L99.7,18.5L99.7,18.5z M113.9,27.5h6.4l0.3-2.3l-7.3-0.3L113.9,27.5z M56,22.8v4.7h6.6L62.5,23L56,22.8
	z M131.9,2.4l-1.2,7.6c-0.2,1.1-0.3,2.2-0.5,3.5c-0.1,1.3-0.3,2.8-0.4,4.5c-0.4-3.7-0.8-7-1.4-9.7l-1.1-5.9h-5.7l-1.2,7
	c-0.3,2-0.6,4.2-0.9,6.4l-0.2,1.9l-0.2-2.2c-0.2-1.5-0.4-3.6-0.9-6.3l-1.1-6.7h-6.5l4.9,21.9l7.3,0.3l0.9-6.6
	c0.1-0.7,0.2-1.4,0.3-2.1c0.1-0.7,0.1-1.3,0.2-1.9c0.1-1.2,0.2-2,0.2-2.4c0,0.2,0.1,0.5,0.1,0.9s0.1,0.9,0.2,1.5
	c0.1,1.2,0.4,2.7,0.7,4.3l1.1,6.4l7.1,0.3l4.6-22.6L131.9,2.4L131.9,2.4z M124.7,27.5h6.3l0.4-1.9l-7.1-0.3L124.7,27.5z M100.9,24.4
	l0.5,3h6.8l-0.6-2.8L100.9,24.4z M75.6,26.9c1.8,0.7,3.4,1,5,1c2.2,0,4.1-0.8,5.6-2.3c0.5-0.5,0.9-1,1.2-1.6l-11.7-0.4
	C75.6,23.5,75.6,26.9,75.6,26.9z M65.1,23.1l1.7,4.4h7.1l-1.9-4.1L65.1,23.1z M89.2,27.5H96l0.5-3.1L90,24L89.2,27.5z M6.5,35.6h4.3
	c0,0.4,0,0.8-0.1,1.2c0,0.3-0.1,0.7-0.2,1c-0.1,0.4-0.4,0.8-0.6,1.2c-0.3,0.3-0.6,0.6-0.9,0.8c-0.4,0.2-0.8,0.4-1.2,0.5
	c-0.4,0.1-0.9,0.2-1.3,0.2c-0.6,0-1.2-0.1-1.8-0.3c-0.5-0.2-1-0.5-1.4-0.9c-0.4-0.4-0.7-0.9-0.9-1.4c-0.2-0.6-0.3-1.2-0.3-1.8
	c0-0.6,0.1-1.2,0.3-1.8c0.2-0.5,0.5-1,0.9-1.4c0.4-0.4,0.9-0.7,1.4-0.9c0.6-0.2,1.2-0.3,1.8-0.3c0.8,0,1.6,0.2,2.3,0.6
	c0.7,0.4,1.2,1,1.6,1.7l-2,0.9c-0.1-0.4-0.4-0.7-0.7-1c-0.3-0.2-0.7-0.3-1-0.3c-0.3,0-0.6,0.1-0.9,0.2c-0.3,0.1-0.5,0.3-0.7,0.5
	c-0.2,0.2-0.3,0.5-0.4,0.8c-0.1,0.3-0.2,0.7-0.2,1.1c0,0.3,0,0.7,0.1,1c0.1,0.3,0.2,0.6,0.4,0.8c0.2,0.2,0.4,0.4,0.7,0.5
	c0.3,0.1,0.6,0.2,0.9,0.2c0.2,0,0.4,0,0.6-0.1c0.2,0,0.4-0.1,0.5-0.2C7.8,38.2,8,38.1,8,37.9c0.1-0.2,0.2-0.4,0.2-0.6H6.5L6.5,35.6
	L6.5,35.6z M32.8,38.8h-3.1l-0.5,1.4h-2.3l3.2-8.3h2.4l3.2,8.3h-2.3L32.8,38.8z M32.2,37.2l-1-2.8l-1,2.8H32.2z M52,40.3l1.4-8.3
	h2.1l1.7,4.5l1.7-4.4H61l1.4,8.3h-2.1l-0.7-4.8l-2,4.8h-0.9l-1.9-4.8l-0.7,4.8L52,40.3L52,40.3z M81.8,31.9v8.3h-2.2v-8.3H81.8
	L81.8,31.9z M99.4,40.3v-8.3h2.2l4,5.1v-5.1h2.1v8.3h-2.1l-4-5.1v5.1L99.4,40.3L99.4,40.3z M129.5,35.6h4.3c0,0.4,0,0.8-0.1,1.2
	c0,0.3-0.1,0.7-0.2,1c-0.1,0.4-0.4,0.8-0.6,1.2c-0.3,0.3-0.6,0.6-0.9,0.8c-0.4,0.2-0.8,0.4-1.2,0.5c-0.4,0.1-0.9,0.2-1.3,0.2
	c-0.6,0-1.2-0.1-1.8-0.3c-0.5-0.2-1-0.5-1.4-0.9c-0.4-0.4-0.7-0.9-0.9-1.4c-0.4-1.2-0.4-2.4,0-3.6c0.2-0.5,0.5-1,0.9-1.4
	c0.4-0.4,0.9-0.7,1.4-0.9c0.6-0.2,1.2-0.3,1.8-0.3c0.8,0,1.6,0.2,2.3,0.6c0.7,0.4,1.2,1,1.6,1.7l-2,0.9c-0.1-0.4-0.4-0.7-0.7-1
	c-0.3-0.2-0.7-0.3-1-0.3c-0.3,0-0.6,0.1-0.9,0.2c-0.3,0.1-0.5,0.3-0.7,0.5c-0.2,0.2-0.3,0.5-0.4,0.8c-0.1,0.3-0.2,0.7-0.2,1.1
	c0,0.3,0,0.7,0.1,1c0.1,0.3,0.2,0.6,0.4,0.8c0.2,0.2,0.4,0.4,0.7,0.5c0.3,0.1,0.6,0.2,0.9,0.2c0.2,0,0.4,0,0.6-0.1
	c0.2,0,0.4-0.1,0.5-0.2c0.2-0.1,0.3-0.3,0.4-0.4c0.1-0.2,0.2-0.4,0.2-0.6h-1.8V35.6z"/>
</svg>
