<svg width="48" height="48" viewBox="0 0 48 48" fill="none" xmlns="http://www.w3.org/2000/svg">
<g filter="url(#filter0_i_3934_21681)">
<path d="M34.3778 16.1623V13.4912L42.1768 13.4912C42.3839 13.4912 42.5518 13.6591 42.5518 13.8662L42.5518 13.9123C42.5518 15.1549 41.5444 16.1623 40.3018 16.1623H34.3778Z" fill="#CBC8C7"/>
</g>
<g filter="url(#filter1_i_3934_21681)">
<path d="M34.378 18.8035V16.1626L40.1084 16.1626C40.3155 16.1626 40.4834 16.3286 40.4834 16.5334L40.4834 16.5789C40.4834 17.8075 39.476 18.8035 38.2334 18.8035H34.378Z" fill="#BDBFBD"/>
</g>
<g filter="url(#filter2_i_3934_21681)">
<path d="M44.125 10.8501C44.3321 10.8501 44.5 11.018 44.5 11.2251V11.2712C44.5 12.5138 43.4926 13.5212 42.25 13.5212H35.6014C35.3804 13.5212 35.2014 13.7003 35.2014 13.9212V18.0531C35.2014 18.4674 34.8655 18.8031 34.4514 18.8031H31.3252C29.1291 18.8031 27.3487 17.0228 27.3487 14.8266C27.3487 12.6305 29.129 10.8501 31.3252 10.8501L44.125 10.8501Z" fill="#D6D2D1"/>
<path d="M44.125 10.8501C44.3321 10.8501 44.5 11.018 44.5 11.2251V11.2712C44.5 12.5138 43.4926 13.5212 42.25 13.5212H35.6014C35.3804 13.5212 35.2014 13.7003 35.2014 13.9212V18.0531C35.2014 18.4674 34.8655 18.8031 34.4514 18.8031H31.3252C29.1291 18.8031 27.3487 17.0228 27.3487 14.8266C27.3487 12.6305 29.129 10.8501 31.3252 10.8501L44.125 10.8501Z" fill="url(#paint0_radial_3934_21681)"/>
</g>
<rect width="32.2053" height="21.1449" rx="2.2" transform="matrix(-0.707107 -0.707107 -0.707107 0.707107 40.8994 27.9106)" fill="url(#paint1_linear_3934_21681)"/>
<rect width="32.2053" height="21.1449" rx="2.2" transform="matrix(-0.707107 -0.707107 -0.707107 0.707107 40.8994 27.9106)" fill="url(#paint2_linear_3934_21681)"/>
<rect width="32.2053" height="21.1449" rx="2.2" transform="matrix(-0.707107 -0.707107 -0.707107 0.707107 40.8994 27.9106)" fill="url(#paint3_linear_3934_21681)"/>
<rect width="32.2053" height="21.1449" rx="2.2" transform="matrix(-0.707107 -0.707107 -0.707107 0.707107 40.8994 27.9106)" fill="url(#paint4_radial_3934_21681)"/>
<rect width="32.2053" height="21.1449" rx="2.2" transform="matrix(-0.707107 -0.707107 -0.707107 0.707107 40.8994 27.9106)" fill="url(#paint5_radial_3934_21681)"/>
<rect width="32.2053" height="21.1449" rx="2.2" transform="matrix(-0.707107 -0.707107 -0.707107 0.707107 43.8389 24.9712)" fill="url(#paint6_radial_3934_21681)"/>
<g filter="url(#filter3_iii_3934_21681)">
<path fill-rule="evenodd" clip-rule="evenodd" d="M21.667 6.27511L39.7623 24.3705C40.1011 24.7093 40.1011 25.2585 39.7623 25.5973L29.5134 35.8462C29.1746 36.185 28.6254 36.185 28.2866 35.8462L10.1912 17.7508C9.85245 17.4121 9.85245 16.8628 10.1912 16.524L20.4402 6.27511C20.7789 5.93634 21.3282 5.93634 21.667 6.27511ZM40.3757 23.7571C41.0533 24.4346 41.0533 25.5331 40.3757 26.2107L30.1268 36.4596C29.4493 37.1372 28.3507 37.1372 27.6732 36.4596L9.57782 18.3642C8.90028 17.6867 8.90027 16.5882 9.57782 15.9106L19.8267 5.66171C20.5043 4.98416 21.6028 4.98416 22.2804 5.66171L40.3757 23.7571Z" fill="url(#paint7_linear_3934_21681)"/>
</g>
<ellipse rx="5.34947" ry="4.9338" transform="matrix(-0.707107 -0.707107 -0.707107 0.707107 21.0152 17.0991)" fill="#289D5B"/>
<ellipse rx="5.34947" ry="4.9338" transform="matrix(-0.707107 -0.707107 -0.707107 0.707107 21.0152 17.0991)" fill="url(#paint8_linear_3934_21681)"/>
<ellipse rx="5.34947" ry="4.9338" transform="matrix(-0.707107 -0.707107 -0.707107 0.707107 21.0152 17.0991)" fill="url(#paint9_radial_3934_21681)"/>
<g filter="url(#filter4_f_3934_21681)">
<path d="M32.9274 14.797L29.5281 11.3977L14.9449 25.981L18.472 29.508L32.9274 14.797Z" fill="#127531"/>
</g>
<g filter="url(#filter5_f_3934_21681)">
<path d="M15.5455 32.1534L12.159 28.7669L14.9448 25.981L18.4719 29.5081L15.5455 32.1534Z" fill="#0B3F2E"/>
</g>
<rect width="5.06031" height="25.3016" transform="matrix(-0.707107 -0.707107 -0.707107 0.707107 33.2192 14.3516)" fill="url(#paint10_linear_3934_21681)"/>
<rect width="5.06031" height="25.3016" transform="matrix(-0.707107 -0.707107 -0.707107 0.707107 33.2192 14.3516)" fill="url(#paint11_linear_3934_21681)"/>
<g filter="url(#filter6_dii_3934_21681)">
<path d="M33.6378 23.786C33.9148 23.509 33.9148 23.0598 33.6378 22.7828C33.3608 22.5058 32.9116 22.5058 32.6346 22.7828L32.0823 23.3351C31.0632 22.716 30.0245 22.9679 29.427 23.4537C29.0866 23.7305 29.0461 24.1085 29.2879 24.4059C29.5297 24.7033 29.9668 24.7483 30.2642 24.5065C30.4588 24.3483 31.066 23.9297 31.8199 24.6837C32.8998 25.7636 31.5005 27.214 30.2481 25.9616C29.7114 25.4249 28.8329 25.1683 28.2194 25.2684C27.5808 25.3725 27.0852 25.6933 26.7333 26.1609C26.2016 27.0064 26.2727 27.8939 26.7543 28.6631L26.2226 29.1948C25.9456 29.4718 25.9456 29.9209 26.2226 30.1979C26.4997 30.475 26.9488 30.475 27.2258 30.1979L27.7457 29.678C28.5955 30.228 29.5952 30.2242 30.4494 29.5494C30.7501 29.3118 30.8258 28.8992 30.5882 28.5984C30.3506 28.2977 29.9142 28.2465 29.6134 28.4841C29.4641 28.602 29.2211 28.7374 28.9596 28.7659C28.7361 28.7902 28.4561 28.7318 28.114 28.3897C27.6875 27.9633 27.6176 27.5816 27.6858 27.297C27.8328 26.4856 28.8157 26.28 29.3951 26.8594C30.203 27.6034 30.7805 27.7875 31.4266 27.76C31.9516 27.7376 32.4821 27.5166 32.8614 27.1373C33.1045 26.8942 33.4274 26.4291 33.4853 25.8379C33.5319 25.3616 33.4324 24.8353 33.1009 24.3228L33.6378 23.786Z" fill="url(#paint12_linear_3934_21681)"/>
</g>
<g filter="url(#filter7_ii_3934_21681)">
<path d="M16.2656 34.834H13.5945V42.7579C13.5945 42.896 13.7065 43.0079 13.8445 43.0079H14.7656C15.5941 43.0079 16.2656 42.3364 16.2656 41.5079V34.834Z" fill="#C8C2C3"/>
</g>
<g filter="url(#filter8_ii_3934_21681)">
<path d="M18.9365 34.834H16.2654V40.6894C16.2654 40.8274 16.3774 40.9394 16.5154 40.9394H17.4365C18.265 40.9394 18.9365 40.2678 18.9365 39.4394V34.834Z" fill="#C8C2C3"/>
</g>
<g filter="url(#filter9_ii_3934_21681)">
<path d="M14.9449 27.8052C17.1494 27.8052 18.9365 29.5855 18.9365 31.7817V34.9078C18.9365 35.322 18.5994 35.6578 18.1837 35.6578H14.2368C13.9042 35.6578 13.6345 35.9264 13.6345 36.2578V42.7064C13.6345 43.9491 12.6233 44.9564 11.376 44.9564H11.3296C11.1218 44.9564 10.9532 44.7885 10.9532 44.5814L10.9533 31.7817C10.9533 29.5855 12.7404 27.8052 14.9449 27.8052Z" fill="#DBD7D7"/>
</g>
<defs>
<filter id="filter0_i_3934_21681" x="33.6279" y="13.2412" width="8.92383" height="2.9209" filterUnits="userSpaceOnUse" color-interpolation-filters="sRGB">
<feFlood flood-opacity="0" result="BackgroundImageFix"/>
<feBlend mode="normal" in="SourceGraphic" in2="BackgroundImageFix" result="shape"/>
<feColorMatrix in="SourceAlpha" type="matrix" values="0 0 0 0 0 0 0 0 0 0 0 0 0 0 0 0 0 0 127 0" result="hardAlpha"/>
<feOffset dx="-0.75" dy="-0.25"/>
<feGaussianBlur stdDeviation="0.5"/>
<feComposite in2="hardAlpha" operator="arithmetic" k2="-1" k3="1"/>
<feColorMatrix type="matrix" values="0 0 0 0 0.647059 0 0 0 0 0.623529 0 0 0 0 0.623529 0 0 0 1 0"/>
<feBlend mode="normal" in2="shape" result="effect1_innerShadow_3934_21681"/>
</filter>
<filter id="filter1_i_3934_21681" x="33.6279" y="15.9126" width="6.85547" height="2.89111" filterUnits="userSpaceOnUse" color-interpolation-filters="sRGB">
<feFlood flood-opacity="0" result="BackgroundImageFix"/>
<feBlend mode="normal" in="SourceGraphic" in2="BackgroundImageFix" result="shape"/>
<feColorMatrix in="SourceAlpha" type="matrix" values="0 0 0 0 0 0 0 0 0 0 0 0 0 0 0 0 0 0 127 0" result="hardAlpha"/>
<feOffset dx="-0.75" dy="-0.25"/>
<feGaussianBlur stdDeviation="0.375"/>
<feComposite in2="hardAlpha" operator="arithmetic" k2="-1" k3="1"/>
<feColorMatrix type="matrix" values="0 0 0 0 0.580392 0 0 0 0 0.611765 0 0 0 0 0.584314 0 0 0 1 0"/>
<feBlend mode="normal" in2="shape" result="effect1_innerShadow_3934_21681"/>
</filter>
<filter id="filter2_i_3934_21681" x="27.3486" y="10.6001" width="17.1514" height="8.20312" filterUnits="userSpaceOnUse" color-interpolation-filters="sRGB">
<feFlood flood-opacity="0" result="BackgroundImageFix"/>
<feBlend mode="normal" in="SourceGraphic" in2="BackgroundImageFix" result="shape"/>
<feColorMatrix in="SourceAlpha" type="matrix" values="0 0 0 0 0 0 0 0 0 0 0 0 0 0 0 0 0 0 127 0" result="hardAlpha"/>
<feOffset dy="-0.25"/>
<feGaussianBlur stdDeviation="0.375"/>
<feComposite in2="hardAlpha" operator="arithmetic" k2="-1" k3="1"/>
<feColorMatrix type="matrix" values="0 0 0 0 0.658824 0 0 0 0 0.623529 0 0 0 0 0.627451 0 0 0 1 0"/>
<feBlend mode="normal" in2="shape" result="effect1_innerShadow_3934_21681"/>
</filter>
<filter id="filter3_iii_3934_21681" x="8.86982" y="5.15332" width="32.214" height="32.0145" filterUnits="userSpaceOnUse" color-interpolation-filters="sRGB">
<feFlood flood-opacity="0" result="BackgroundImageFix"/>
<feBlend mode="normal" in="SourceGraphic" in2="BackgroundImageFix" result="shape"/>
<feColorMatrix in="SourceAlpha" type="matrix" values="0 0 0 0 0 0 0 0 0 0 0 0 0 0 0 0 0 0 127 0" result="hardAlpha"/>
<feOffset dy="0.2"/>
<feGaussianBlur stdDeviation="0.125"/>
<feComposite in2="hardAlpha" operator="arithmetic" k2="-1" k3="1"/>
<feColorMatrix type="matrix" values="0 0 0 0 0.0941176 0 0 0 0 0.509804 0 0 0 0 0.254902 0 0 0 1 0"/>
<feBlend mode="normal" in2="shape" result="effect1_innerShadow_3934_21681"/>
<feColorMatrix in="SourceAlpha" type="matrix" values="0 0 0 0 0 0 0 0 0 0 0 0 0 0 0 0 0 0 127 0" result="hardAlpha"/>
<feOffset dx="-0.2"/>
<feGaussianBlur stdDeviation="0.125"/>
<feComposite in2="hardAlpha" operator="arithmetic" k2="-1" k3="1"/>
<feColorMatrix type="matrix" values="0 0 0 0 0.0941176 0 0 0 0 0.509804 0 0 0 0 0.254902 0 0 0 1 0"/>
<feBlend mode="normal" in2="effect1_innerShadow_3934_21681" result="effect2_innerShadow_3934_21681"/>
<feColorMatrix in="SourceAlpha" type="matrix" values="0 0 0 0 0 0 0 0 0 0 0 0 0 0 0 0 0 0 127 0" result="hardAlpha"/>
<feOffset dx="0.2"/>
<feGaussianBlur stdDeviation="0.125"/>
<feComposite in2="hardAlpha" operator="arithmetic" k2="-1" k3="1"/>
<feColorMatrix type="matrix" values="0 0 0 0 0.172549 0 0 0 0 0.709804 0 0 0 0 0.4 0 0 0 1 0"/>
<feBlend mode="normal" in2="effect2_innerShadow_3934_21681" result="effect3_innerShadow_3934_21681"/>
</filter>
<filter id="filter4_f_3934_21681" x="14.5448" y="10.9979" width="18.7824" height="18.9099" filterUnits="userSpaceOnUse" color-interpolation-filters="sRGB">
<feFlood flood-opacity="0" result="BackgroundImageFix"/>
<feBlend mode="normal" in="SourceGraphic" in2="BackgroundImageFix" result="shape"/>
<feGaussianBlur stdDeviation="0.2" result="effect1_foregroundBlur_3934_21681"/>
</filter>
<filter id="filter5_f_3934_21681" x="11.9092" y="25.731" width="6.8125" height="6.67236" filterUnits="userSpaceOnUse" color-interpolation-filters="sRGB">
<feFlood flood-opacity="0" result="BackgroundImageFix"/>
<feBlend mode="normal" in="SourceGraphic" in2="BackgroundImageFix" result="shape"/>
<feGaussianBlur stdDeviation="0.125" result="effect1_foregroundBlur_3934_21681"/>
</filter>
<filter id="filter6_dii_3934_21681" x="25.7646" y="22.4752" width="8.18105" height="8.18057" filterUnits="userSpaceOnUse" color-interpolation-filters="sRGB">
<feFlood flood-opacity="0" result="BackgroundImageFix"/>
<feColorMatrix in="SourceAlpha" type="matrix" values="0 0 0 0 0 0 0 0 0 0 0 0 0 0 0 0 0 0 127 0" result="hardAlpha"/>
<feOffset dx="-0.1" dy="0.1"/>
<feGaussianBlur stdDeviation="0.075"/>
<feComposite in2="hardAlpha" operator="out"/>
<feColorMatrix type="matrix" values="0 0 0 0 0.0901961 0 0 0 0 0.521569 0 0 0 0 0.223529 0 0 0 1 0"/>
<feBlend mode="normal" in2="BackgroundImageFix" result="effect1_dropShadow_3934_21681"/>
<feBlend mode="normal" in="SourceGraphic" in2="effect1_dropShadow_3934_21681" result="shape"/>
<feColorMatrix in="SourceAlpha" type="matrix" values="0 0 0 0 0 0 0 0 0 0 0 0 0 0 0 0 0 0 127 0" result="hardAlpha"/>
<feOffset dx="0.1" dy="-0.1"/>
<feGaussianBlur stdDeviation="0.05"/>
<feComposite in2="hardAlpha" operator="arithmetic" k2="-1" k3="1"/>
<feColorMatrix type="matrix" values="0 0 0 0 0.784314 0 0 0 0 0.760784 0 0 0 0 0.752941 0 0 0 1 0"/>
<feBlend mode="normal" in2="shape" result="effect2_innerShadow_3934_21681"/>
<feColorMatrix in="SourceAlpha" type="matrix" values="0 0 0 0 0 0 0 0 0 0 0 0 0 0 0 0 0 0 127 0" result="hardAlpha"/>
<feOffset dx="-0.1" dy="0.1"/>
<feGaussianBlur stdDeviation="0.05"/>
<feComposite in2="hardAlpha" operator="arithmetic" k2="-1" k3="1"/>
<feColorMatrix type="matrix" values="0 0 0 0 1 0 0 0 0 0.996078 0 0 0 0 0.992157 0 0 0 1 0"/>
<feBlend mode="normal" in2="effect2_innerShadow_3934_21681" result="effect3_innerShadow_3934_21681"/>
</filter>
<filter id="filter7_ii_3934_21681" x="13.2947" y="34.534" width="3.2709" height="8.47383" filterUnits="userSpaceOnUse" color-interpolation-filters="sRGB">
<feFlood flood-opacity="0" result="BackgroundImageFix"/>
<feBlend mode="normal" in="SourceGraphic" in2="BackgroundImageFix" result="shape"/>
<feColorMatrix in="SourceAlpha" type="matrix" values="0 0 0 0 0 0 0 0 0 0 0 0 0 0 0 0 0 0 127 0" result="hardAlpha"/>
<feOffset dx="0.3" dy="-0.3"/>
<feGaussianBlur stdDeviation="0.375"/>
<feComposite in2="hardAlpha" operator="arithmetic" k2="-1" k3="1"/>
<feColorMatrix type="matrix" values="0 0 0 0 0.658824 0 0 0 0 0.631373 0 0 0 0 0.635294 0 0 0 1 0"/>
<feBlend mode="normal" in2="shape" result="effect1_innerShadow_3934_21681"/>
<feColorMatrix in="SourceAlpha" type="matrix" values="0 0 0 0 0 0 0 0 0 0 0 0 0 0 0 0 0 0 127 0" result="hardAlpha"/>
<feOffset dx="-0.3" dy="-0.3"/>
<feGaussianBlur stdDeviation="0.375"/>
<feComposite in2="hardAlpha" operator="arithmetic" k2="-1" k3="1"/>
<feColorMatrix type="matrix" values="0 0 0 0 0.721569 0 0 0 0 0.682353 0 0 0 0 0.690196 0 0 0 1 0"/>
<feBlend mode="normal" in2="effect1_innerShadow_3934_21681" result="effect2_innerShadow_3934_21681"/>
</filter>
<filter id="filter8_ii_3934_21681" x="15.9656" y="34.534" width="3.2709" height="6.40547" filterUnits="userSpaceOnUse" color-interpolation-filters="sRGB">
<feFlood flood-opacity="0" result="BackgroundImageFix"/>
<feBlend mode="normal" in="SourceGraphic" in2="BackgroundImageFix" result="shape"/>
<feColorMatrix in="SourceAlpha" type="matrix" values="0 0 0 0 0 0 0 0 0 0 0 0 0 0 0 0 0 0 127 0" result="hardAlpha"/>
<feOffset dx="0.3" dy="-0.3"/>
<feGaussianBlur stdDeviation="0.375"/>
<feComposite in2="hardAlpha" operator="arithmetic" k2="-1" k3="1"/>
<feColorMatrix type="matrix" values="0 0 0 0 0.611765 0 0 0 0 0.603922 0 0 0 0 0.596078 0 0 0 1 0"/>
<feBlend mode="normal" in2="shape" result="effect1_innerShadow_3934_21681"/>
<feColorMatrix in="SourceAlpha" type="matrix" values="0 0 0 0 0 0 0 0 0 0 0 0 0 0 0 0 0 0 127 0" result="hardAlpha"/>
<feOffset dx="-0.3" dy="-0.3"/>
<feGaussianBlur stdDeviation="0.375"/>
<feComposite in2="hardAlpha" operator="arithmetic" k2="-1" k3="1"/>
<feColorMatrix type="matrix" values="0 0 0 0 0.635294 0 0 0 0 0.611765 0 0 0 0 0.607843 0 0 0 1 0"/>
<feBlend mode="normal" in2="effect1_innerShadow_3934_21681" result="effect2_innerShadow_3934_21681"/>
</filter>
<filter id="filter9_ii_3934_21681" x="10.4531" y="27.6552" width="8.6334" height="17.3014" filterUnits="userSpaceOnUse" color-interpolation-filters="sRGB">
<feFlood flood-opacity="0" result="BackgroundImageFix"/>
<feBlend mode="normal" in="SourceGraphic" in2="BackgroundImageFix" result="shape"/>
<feColorMatrix in="SourceAlpha" type="matrix" values="0 0 0 0 0 0 0 0 0 0 0 0 0 0 0 0 0 0 127 0" result="hardAlpha"/>
<feOffset dx="0.15" dy="-0.15"/>
<feGaussianBlur stdDeviation="0.25"/>
<feComposite in2="hardAlpha" operator="arithmetic" k2="-1" k3="1"/>
<feColorMatrix type="matrix" values="0 0 0 0 0.729412 0 0 0 0 0.678431 0 0 0 0 0.686275 0 0 0 1 0"/>
<feBlend mode="normal" in2="shape" result="effect1_innerShadow_3934_21681"/>
<feColorMatrix in="SourceAlpha" type="matrix" values="0 0 0 0 0 0 0 0 0 0 0 0 0 0 0 0 0 0 127 0" result="hardAlpha"/>
<feOffset dx="-0.5"/>
<feGaussianBlur stdDeviation="0.375"/>
<feComposite in2="hardAlpha" operator="arithmetic" k2="-1" k3="1"/>
<feColorMatrix type="matrix" values="0 0 0 0 0.964706 0 0 0 0 0.964706 0 0 0 0 0.956863 0 0 0 1 0"/>
<feBlend mode="normal" in2="effect1_innerShadow_3934_21681" result="effect2_innerShadow_3934_21681"/>
</filter>
<radialGradient id="paint0_radial_3934_21681" cx="0" cy="0" r="1" gradientUnits="userSpaceOnUse" gradientTransform="translate(42.0506 11.1557) rotate(-180) scale(11.6886 2.06798)">
<stop stop-color="#E3E1E1"/>
<stop offset="1" stop-color="#E3E1E1" stop-opacity="0"/>
</radialGradient>
<linearGradient id="paint1_linear_3934_21681" x1="30.1089" y1="19.7352" x2="1.1205" y2="19.7352" gradientUnits="userSpaceOnUse">
<stop stop-color="#12724A"/>
<stop offset="1" stop-color="#116245"/>
</linearGradient>
<linearGradient id="paint2_linear_3934_21681" x1="32.2053" y1="18.7232" x2="29.1329" y2="18.7232" gradientUnits="userSpaceOnUse">
<stop stop-color="#1C8F60"/>
<stop offset="1" stop-color="#1C8F60" stop-opacity="0"/>
</linearGradient>
<linearGradient id="paint3_linear_3934_21681" x1="-3.40305e-09" y1="18.5786" x2="3.18077" y2="18.5786" gradientUnits="userSpaceOnUse">
<stop offset="0.556818" stop-color="#195840"/>
<stop offset="1" stop-color="#195840" stop-opacity="0"/>
</linearGradient>
<radialGradient id="paint4_radial_3934_21681" cx="0" cy="0" r="1" gradientUnits="userSpaceOnUse" gradientTransform="translate(14.963 18.4414) rotate(159.806) scale(6.1451 5.83059)">
<stop offset="0.306788" stop-color="#0E593C"/>
<stop offset="1" stop-color="#0E593C" stop-opacity="0"/>
</radialGradient>
<radialGradient id="paint5_radial_3934_21681" cx="0" cy="0" r="1" gradientUnits="userSpaceOnUse" gradientTransform="translate(13.5709 19.701) rotate(-176.751) scale(7.60257 1.61213)">
<stop offset="0.396008" stop-color="#0F4F35"/>
<stop offset="1" stop-color="#0F4F35" stop-opacity="0"/>
</radialGradient>
<radialGradient id="paint6_radial_3934_21681" cx="0" cy="0" r="1" gradientUnits="userSpaceOnUse" gradientTransform="translate(0.70483 0.831337) rotate(48.2593) scale(22.4767 29.475)">
<stop stop-color="#31DE74"/>
<stop offset="1" stop-color="#20CF5E"/>
</radialGradient>
<linearGradient id="paint7_linear_3934_21681" x1="23.1749" y1="7.11854" x2="25.6796" y2="33.6482" gradientUnits="userSpaceOnUse">
<stop stop-color="#24A35B"/>
<stop offset="1" stop-color="#27A05A"/>
</linearGradient>
<linearGradient id="paint8_linear_3934_21681" x1="3.57836" y1="5.5302" x2="5.63863" y2="5.5302" gradientUnits="userSpaceOnUse">
<stop offset="0.22807" stop-color="#269553"/>
<stop offset="1" stop-color="#269553" stop-opacity="0"/>
</linearGradient>
<radialGradient id="paint9_radial_3934_21681" cx="0" cy="0" r="1" gradientUnits="userSpaceOnUse" gradientTransform="translate(5.34947 5.71092) rotate(-40.8023) scale(5.58673 5.49123)">
<stop offset="0.587108" stop-color="#249755" stop-opacity="0"/>
<stop offset="0.986856" stop-color="#16793D"/>
</radialGradient>
<linearGradient id="paint10_linear_3934_21681" x1="2.53016" y1="1.91569" x2="2.53016" y2="21.9401" gradientUnits="userSpaceOnUse">
<stop stop-color="#FFD425"/>
<stop offset="1" stop-color="#FFAD24"/>
</linearGradient>
<linearGradient id="paint11_linear_3934_21681" x1="3.75909" y1="25.3016" x2="3.75909" y2="20.8557" gradientUnits="userSpaceOnUse">
<stop offset="0.893939" stop-color="#CC8139"/>
<stop offset="1" stop-color="#CC8139" stop-opacity="0"/>
</linearGradient>
<linearGradient id="paint12_linear_3934_21681" x1="33.6441" y1="22.7891" x2="26.229" y2="30.2043" gradientUnits="userSpaceOnUse">
<stop stop-color="#EFEAEA"/>
<stop offset="1" stop-color="#EAE3E3"/>
</linearGradient>
</defs>
</svg>
