<svg width="64" height="64" viewBox="0 0 64 64" fill="none" xmlns="http://www.w3.org/2000/svg">
<circle cx="10.7578" cy="44.5018" r="3.10156" fill="url(#paint0_radial_4518_21770)"/>
<circle cx="53.2656" cy="44.5252" r="3.10156" fill="url(#paint1_radial_4518_21770)"/>
<circle cx="53.2656" cy="44.5252" r="3.10156" fill="url(#paint2_radial_4518_21770)"/>
<path d="M18.0156 24.1658C16.8156 25.9658 15.9427 28.4158 15.6406 29.3533L20.3281 32.7283L23.9062 28.1971C23.4844 27.546 22.4812 26.0955 21.9062 25.3455C21.3313 24.5955 20.4635 23.6789 20.1094 23.3143L18.0156 24.1658Z" fill="url(#paint3_radial_4518_21770)"/>
<path d="M18.0156 24.1658C16.8156 25.9658 15.9427 28.4158 15.6406 29.3533L20.3281 32.7283L23.9062 28.1971C23.4844 27.546 22.4812 26.0955 21.9062 25.3455C21.3313 24.5955 20.4635 23.6789 20.1094 23.3143L18.0156 24.1658Z" fill="url(#paint4_radial_4518_21770)"/>
<path d="M45.9844 24.1658C47.1844 25.9658 48.0573 28.4158 48.3594 29.3533L43.6719 32.7283L40.0938 28.1971C40.5156 27.546 41.5188 26.0955 42.0938 25.3455C42.6687 24.5955 43.5365 23.6789 43.8906 23.3143L45.9844 24.1658Z" fill="url(#paint5_radial_4518_21770)"/>
<path d="M45.9844 24.1658C47.1844 25.9658 48.0573 28.4158 48.3594 29.3533L43.6719 32.7283L40.0938 28.1971C40.5156 27.546 41.5188 26.0955 42.0938 25.3455C42.6687 24.5955 43.5365 23.6789 43.8906 23.3143L45.9844 24.1658Z" fill="url(#paint6_radial_4518_21770)"/>
<path d="M45.9844 24.1658C47.1844 25.9658 48.0573 28.4158 48.3594 29.3533L43.6719 32.7283L40.0938 28.1971C40.5156 27.546 41.5188 26.0955 42.0938 25.3455C42.6687 24.5955 43.5365 23.6789 43.8906 23.3143L45.9844 24.1658Z" fill="url(#paint7_radial_4518_21770)"/>
<g filter="url(#filter0_ii_4518_21770)">
<path d="M6.25 24.3065L12.4625 54.6238C12.7675 56.1126 14.0776 57.1815 15.5973 57.1815H48.4027C49.9224 57.1815 51.2325 56.1126 51.5375 54.6238L57.75 24.3065L55.7668 23.3377C52.7973 25.494 46.5827 29.9158 44.9773 30.8846C43.6973 31.657 42.5213 30.3981 42.278 30.0408C40.0429 26.7596 36.6343 21.9839 35.3594 20.3065C34.053 18.5877 32.5771 17.7387 32 17.6658C31.4229 17.7387 29.947 18.5877 28.6406 20.3065C27.3657 21.9839 23.9571 26.7596 21.722 30.0408C21.4787 30.3981 20.3027 31.657 19.0227 30.8846C17.4173 29.9158 11.2027 25.494 8.23319 23.3377L6.25 24.3065Z" fill="url(#paint8_linear_4518_21770)"/>
<path d="M6.25 24.3065L12.4625 54.6238C12.7675 56.1126 14.0776 57.1815 15.5973 57.1815H48.4027C49.9224 57.1815 51.2325 56.1126 51.5375 54.6238L57.75 24.3065L55.7668 23.3377C52.7973 25.494 46.5827 29.9158 44.9773 30.8846C43.6973 31.657 42.5213 30.3981 42.278 30.0408C40.0429 26.7596 36.6343 21.9839 35.3594 20.3065C34.053 18.5877 32.5771 17.7387 32 17.6658C31.4229 17.7387 29.947 18.5877 28.6406 20.3065C27.3657 21.9839 23.9571 26.7596 21.722 30.0408C21.4787 30.3981 20.3027 31.657 19.0227 30.8846C17.4173 29.9158 11.2027 25.494 8.23319 23.3377L6.25 24.3065Z" fill="url(#paint9_radial_4518_21770)"/>
</g>
<path d="M6.25 24.3065L12.4625 54.6238C12.7675 56.1126 14.0776 57.1815 15.5973 57.1815H48.4027C49.9224 57.1815 51.2325 56.1126 51.5375 54.6238L57.75 24.3065L55.7668 23.3377C52.7973 25.494 46.5827 29.9158 44.9773 30.8846C43.6973 31.657 42.5213 30.3981 42.278 30.0408C40.0429 26.7596 36.6343 21.9839 35.3594 20.3065C34.053 18.5877 32.5771 17.7387 32 17.6658C31.4229 17.7387 29.947 18.5877 28.6406 20.3065C27.3657 21.9839 23.9571 26.7596 21.722 30.0408C21.4787 30.3981 20.3027 31.657 19.0227 30.8846C17.4173 29.9158 11.2027 25.494 8.23319 23.3377L6.25 24.3065Z" fill="url(#paint10_linear_4518_21770)"/>
<path d="M6.25 24.3065L12.4625 54.6238C12.7675 56.1126 14.0776 57.1815 15.5973 57.1815H48.4027C49.9224 57.1815 51.2325 56.1126 51.5375 54.6238L57.75 24.3065L55.7668 23.3377C52.7973 25.494 46.5827 29.9158 44.9773 30.8846C43.6973 31.657 42.5213 30.3981 42.278 30.0408C40.0429 26.7596 36.6343 21.9839 35.3594 20.3065C34.053 18.5877 32.5771 17.7387 32 17.6658C31.4229 17.7387 29.947 18.5877 28.6406 20.3065C27.3657 21.9839 23.9571 26.7596 21.722 30.0408C21.4787 30.3981 20.3027 31.657 19.0227 30.8846C17.4173 29.9158 11.2027 25.494 8.23319 23.3377L6.25 24.3065Z" fill="url(#paint11_linear_4518_21770)"/>
<path d="M6.25 24.3065L12.4625 54.6238C12.7675 56.1126 14.0776 57.1815 15.5973 57.1815H48.4027C49.9224 57.1815 51.2325 56.1126 51.5375 54.6238L57.75 24.3065L55.7668 23.3377C52.7973 25.494 46.5827 29.9158 44.9773 30.8846C43.6973 31.657 42.5213 30.3981 42.278 30.0408C40.0429 26.7596 36.6343 21.9839 35.3594 20.3065C34.053 18.5877 32.5771 17.7387 32 17.6658C31.4229 17.7387 29.947 18.5877 28.6406 20.3065C27.3657 21.9839 23.9571 26.7596 21.722 30.0408C21.4787 30.3981 20.3027 31.657 19.0227 30.8846C17.4173 29.9158 11.2027 25.494 8.23319 23.3377L6.25 24.3065Z" fill="url(#paint12_linear_4518_21770)"/>
<path d="M6.25 24.3065L12.4625 54.6238C12.7675 56.1126 14.0776 57.1815 15.5973 57.1815H48.4027C49.9224 57.1815 51.2325 56.1126 51.5375 54.6238L57.75 24.3065L55.7668 23.3377C52.7973 25.494 46.5827 29.9158 44.9773 30.8846C43.6973 31.657 42.5213 30.3981 42.278 30.0408C40.0429 26.7596 36.6343 21.9839 35.3594 20.3065C34.053 18.5877 32.5771 17.7387 32 17.6658C31.4229 17.7387 29.947 18.5877 28.6406 20.3065C27.3657 21.9839 23.9571 26.7596 21.722 30.0408C21.4787 30.3981 20.3027 31.657 19.0227 30.8846C17.4173 29.9158 11.2027 25.494 8.23319 23.3377L6.25 24.3065Z" fill="url(#paint13_radial_4518_21770)"/>
<path d="M6.25 24.3065L12.4625 54.6238C12.7675 56.1126 14.0776 57.1815 15.5973 57.1815H48.4027C49.9224 57.1815 51.2325 56.1126 51.5375 54.6238L57.75 24.3065L55.7668 23.3377C52.7973 25.494 46.5827 29.9158 44.9773 30.8846C43.6973 31.657 42.5213 30.3981 42.278 30.0408C40.0429 26.7596 36.6343 21.9839 35.3594 20.3065C34.053 18.5877 32.5771 17.7387 32 17.6658C31.4229 17.7387 29.947 18.5877 28.6406 20.3065C27.3657 21.9839 23.9571 26.7596 21.722 30.0408C21.4787 30.3981 20.3027 31.657 19.0227 30.8846C17.4173 29.9158 11.2027 25.494 8.23319 23.3377L6.25 24.3065Z" fill="url(#paint14_radial_4518_21770)"/>
<path d="M6.25 24.3065L12.4625 54.6238C12.7675 56.1126 14.0776 57.1815 15.5973 57.1815H48.4027C49.9224 57.1815 51.2325 56.1126 51.5375 54.6238L57.75 24.3065L55.7668 23.3377C52.7973 25.494 46.5827 29.9158 44.9773 30.8846C43.6973 31.657 42.5213 30.3981 42.278 30.0408C40.0429 26.7596 36.6343 21.9839 35.3594 20.3065C34.053 18.5877 32.5771 17.7387 32 17.6658C31.4229 17.7387 29.947 18.5877 28.6406 20.3065C27.3657 21.9839 23.9571 26.7596 21.722 30.0408C21.4787 30.3981 20.3027 31.657 19.0227 30.8846C17.4173 29.9158 11.2027 25.494 8.23319 23.3377L6.25 24.3065Z" fill="url(#paint15_radial_4518_21770)"/>
<g filter="url(#filter1_di_4518_21770)">
<path d="M47.5587 45.4849C47.0284 47.1137 45.3241 47.9302 43.6953 47.4C42.4687 46.9 41.9385 45.4976 42.4687 43.8687C42.999 42.2399 44.6688 41.3053 45.6796 41.6343C47.3085 42.1646 48.0889 43.8561 47.5587 45.4849Z" fill="url(#paint16_radial_4518_21770)"/>
<path d="M47.5587 45.4849C47.0284 47.1137 45.3241 47.9302 43.6953 47.4C42.4687 46.9 41.9385 45.4976 42.4687 43.8687C42.999 42.2399 44.6688 41.3053 45.6796 41.6343C47.3085 42.1646 48.0889 43.8561 47.5587 45.4849Z" fill="url(#paint17_radial_4518_21770)"/>
</g>
<g filter="url(#filter2_di_4518_21770)">
<path d="M16.5939 45.4849C17.1242 47.1137 18.8285 47.9302 20.4573 47.4C21.6839 46.9 22.2141 45.4976 21.6839 43.8687C21.1536 42.2399 19.4838 41.3053 18.4729 41.6343C16.8441 42.1646 16.0637 43.8561 16.5939 45.4849Z" fill="url(#paint18_radial_4518_21770)"/>
<path d="M16.5939 45.4849C17.1242 47.1137 18.8285 47.9302 20.4573 47.4C21.6839 46.9 22.2141 45.4976 21.6839 43.8687C21.1536 42.2399 19.4838 41.3053 18.4729 41.6343C16.8441 42.1646 16.0637 43.8561 16.5939 45.4849Z" fill="url(#paint19_radial_4518_21770)"/>
</g>
<path d="M9.84375 23.8494C9.84375 25.3855 8.59854 26.6307 7.0625 26.6307C5.52646 26.6307 4.28125 25.3855 4.28125 23.8494C4.28125 22.3134 5.52646 21.0682 7.0625 21.0682C8.59854 21.0682 9.84375 22.3134 9.84375 23.8494Z" fill="url(#paint20_radial_4518_21770)"/>
<path d="M9.84375 23.8494C9.84375 25.3855 8.59854 26.6307 7.0625 26.6307C5.52646 26.6307 4.28125 25.3855 4.28125 23.8494C4.28125 22.3134 5.52646 21.0682 7.0625 21.0682C8.59854 21.0682 9.84375 22.3134 9.84375 23.8494Z" fill="url(#paint21_radial_4518_21770)"/>
<path d="M9.84375 23.8494C9.84375 25.3855 8.59854 26.6307 7.0625 26.6307C5.52646 26.6307 4.28125 25.3855 4.28125 23.8494C4.28125 22.3134 5.52646 21.0682 7.0625 21.0682C8.59854 21.0682 9.84375 22.3134 9.84375 23.8494Z" fill="url(#paint22_radial_4518_21770)"/>
<path d="M9.84375 23.8494C9.84375 25.3855 8.59854 26.6307 7.0625 26.6307C5.52646 26.6307 4.28125 25.3855 4.28125 23.8494C4.28125 22.3134 5.52646 21.0682 7.0625 21.0682C8.59854 21.0682 9.84375 22.3134 9.84375 23.8494Z" fill="url(#paint23_radial_4518_21770)"/>
<path d="M20.5614 24.3595C21.3847 23.8766 21.9375 22.9822 21.9375 21.9588C21.9375 20.4228 20.6923 19.1776 19.1562 19.1776C17.6202 19.1776 16.375 20.4228 16.375 21.9588C16.375 23.023 16.9727 23.9477 17.8508 24.4153C18.025 24.346 18.3428 24.2776 18.6875 24.3768C19.1161 24.5002 19.82 24.656 20.5614 24.3595Z" fill="url(#paint24_radial_4518_21770)"/>
<path d="M20.5614 24.3595C21.3847 23.8766 21.9375 22.9822 21.9375 21.9588C21.9375 20.4228 20.6923 19.1776 19.1562 19.1776C17.6202 19.1776 16.375 20.4228 16.375 21.9588C16.375 23.023 16.9727 23.9477 17.8508 24.4153C18.025 24.346 18.3428 24.2776 18.6875 24.3768C19.1161 24.5002 19.82 24.656 20.5614 24.3595Z" fill="url(#paint25_radial_4518_21770)"/>
<path d="M20.5614 24.3595C21.3847 23.8766 21.9375 22.9822 21.9375 21.9588C21.9375 20.4228 20.6923 19.1776 19.1562 19.1776C17.6202 19.1776 16.375 20.4228 16.375 21.9588C16.375 23.023 16.9727 23.9477 17.8508 24.4153C18.025 24.346 18.3428 24.2776 18.6875 24.3768C19.1161 24.5002 19.82 24.656 20.5614 24.3595Z" fill="url(#paint26_radial_4518_21770)"/>
<path d="M20.5614 24.3595C21.3847 23.8766 21.9375 22.9822 21.9375 21.9588C21.9375 20.4228 20.6923 19.1776 19.1562 19.1776C17.6202 19.1776 16.375 20.4228 16.375 21.9588C16.375 23.023 16.9727 23.9477 17.8508 24.4153C18.025 24.346 18.3428 24.2776 18.6875 24.3768C19.1161 24.5002 19.82 24.656 20.5614 24.3595Z" fill="url(#paint27_radial_4518_21770)"/>
<g filter="url(#filter3_i_4518_21770)">
<path d="M43.4386 24.3595C42.6153 23.8766 42.0625 22.9822 42.0625 21.9588C42.0625 20.4228 43.3077 19.1776 44.8438 19.1776C46.3798 19.1776 47.625 20.4228 47.625 21.9588C47.625 23.023 47.0273 23.9477 46.1492 24.4153C45.975 24.346 45.6572 24.2776 45.3125 24.3768C44.8839 24.5002 44.18 24.656 43.4386 24.3595Z" fill="url(#paint28_radial_4518_21770)"/>
<path d="M43.4386 24.3595C42.6153 23.8766 42.0625 22.9822 42.0625 21.9588C42.0625 20.4228 43.3077 19.1776 44.8438 19.1776C46.3798 19.1776 47.625 20.4228 47.625 21.9588C47.625 23.023 47.0273 23.9477 46.1492 24.4153C45.975 24.346 45.6572 24.2776 45.3125 24.3768C44.8839 24.5002 44.18 24.656 43.4386 24.3595Z" fill="url(#paint29_radial_4518_21770)"/>
</g>
<g filter="url(#filter4_di_4518_21770)">
<circle cx="32.0763" cy="44.6516" r="4.93582" fill="url(#paint30_radial_4518_21770)"/>
</g>
<g filter="url(#filter5_f_4518_21770)">
<path d="M32.4219 18.7103C32.7656 18.6687 33.6469 18.8478 34.4219 19.8978C35.1969 20.9478 39.9115 27.6687 42.1719 30.8978C42.6094 31.5749 43.9031 32.6416 45.5781 31.4916C47.2531 30.3416 52.6406 26.4419 54.6719 25.0877" stroke="url(#paint31_linear_4518_21770)" stroke-width="0.15"/>
<path d="M32.4219 18.7103C32.7656 18.6687 33.6469 18.8478 34.4219 19.8978C35.1969 20.9478 39.9115 27.6687 42.1719 30.8978C42.6094 31.5749 43.9031 32.6416 45.5781 31.4916C47.2531 30.3416 52.6406 26.4419 54.6719 25.0877" stroke="url(#paint32_radial_4518_21770)" stroke-width="0.15"/>
</g>
<circle cx="31.9922" cy="15.2908" r="3.60156" fill="url(#paint33_radial_4518_21770)"/>
<circle cx="31.9922" cy="15.2908" r="3.60156" fill="url(#paint34_radial_4518_21770)"/>
<circle cx="31.9922" cy="15.2908" r="3.60156" fill="url(#paint35_radial_4518_21770)"/>
<circle cx="31.9922" cy="15.2908" r="3.60156" fill="url(#paint36_radial_4518_21770)"/>
<path d="M59.8438 23.8494C59.8438 25.3855 58.5985 26.6307 57.0625 26.6307C55.5265 26.6307 54.2812 25.3855 54.2812 23.8494C54.2812 22.3134 55.5265 21.0682 57.0625 21.0682C58.5985 21.0682 59.8438 22.3134 59.8438 23.8494Z" fill="url(#paint37_radial_4518_21770)"/>
<path d="M59.8438 23.8494C59.8438 25.3855 58.5985 26.6307 57.0625 26.6307C55.5265 26.6307 54.2812 25.3855 54.2812 23.8494C54.2812 22.3134 55.5265 21.0682 57.0625 21.0682C58.5985 21.0682 59.8438 22.3134 59.8438 23.8494Z" fill="url(#paint38_radial_4518_21770)"/>
<path d="M59.8438 23.8494C59.8438 25.3855 58.5985 26.6307 57.0625 26.6307C55.5265 26.6307 54.2812 25.3855 54.2812 23.8494C54.2812 22.3134 55.5265 21.0682 57.0625 21.0682C58.5985 21.0682 59.8438 22.3134 59.8438 23.8494Z" fill="url(#paint39_radial_4518_21770)"/>
<path d="M59.8438 23.8494C59.8438 25.3855 58.5985 26.6307 57.0625 26.6307C55.5265 26.6307 54.2812 25.3855 54.2812 23.8494C54.2812 22.3134 55.5265 21.0682 57.0625 21.0682C58.5985 21.0682 59.8438 22.3134 59.8438 23.8494Z" fill="url(#paint40_radial_4518_21770)"/>
<defs>
<filter id="filter0_ii_4518_21770" x="5.85" y="17.5658" width="52.3" height="39.6156" filterUnits="userSpaceOnUse" color-interpolation-filters="sRGB">
<feFlood flood-opacity="0" result="BackgroundImageFix"/>
<feBlend mode="normal" in="SourceGraphic" in2="BackgroundImageFix" result="shape"/>
<feColorMatrix in="SourceAlpha" type="matrix" values="0 0 0 0 0 0 0 0 0 0 0 0 0 0 0 0 0 0 127 0" result="hardAlpha"/>
<feOffset dx="0.4" dy="-0.1"/>
<feGaussianBlur stdDeviation="0.25"/>
<feComposite in2="hardAlpha" operator="arithmetic" k2="-1" k3="1"/>
<feColorMatrix type="matrix" values="0 0 0 0 0.803922 0 0 0 0 0.580392 0 0 0 0 0.262745 0 0 0 1 0"/>
<feBlend mode="normal" in2="shape" result="effect1_innerShadow_4518_21770"/>
<feColorMatrix in="SourceAlpha" type="matrix" values="0 0 0 0 0 0 0 0 0 0 0 0 0 0 0 0 0 0 127 0" result="hardAlpha"/>
<feOffset dx="-0.4" dy="-0.1"/>
<feGaussianBlur stdDeviation="0.25"/>
<feComposite in2="hardAlpha" operator="arithmetic" k2="-1" k3="1"/>
<feColorMatrix type="matrix" values="0 0 0 0 0.894118 0 0 0 0 0.686275 0 0 0 0 0.301961 0 0 0 1 0"/>
<feBlend mode="normal" in2="effect1_innerShadow_4518_21770" result="effect2_innerShadow_4518_21770"/>
</filter>
<filter id="filter1_di_4518_21770" x="41.2638" y="41.0687" width="6.9598" height="7.49219" filterUnits="userSpaceOnUse" color-interpolation-filters="sRGB">
<feFlood flood-opacity="0" result="BackgroundImageFix"/>
<feColorMatrix in="SourceAlpha" type="matrix" values="0 0 0 0 0 0 0 0 0 0 0 0 0 0 0 0 0 0 127 0" result="hardAlpha"/>
<feOffset dx="-0.25" dy="0.25"/>
<feGaussianBlur stdDeviation="0.375"/>
<feComposite in2="hardAlpha" operator="out"/>
<feColorMatrix type="matrix" values="0 0 0 0 1 0 0 0 0 0.54902 0 0 0 0 0.305882 0 0 0 1 0"/>
<feBlend mode="normal" in2="BackgroundImageFix" result="effect1_dropShadow_4518_21770"/>
<feBlend mode="normal" in="SourceGraphic" in2="effect1_dropShadow_4518_21770" result="shape"/>
<feColorMatrix in="SourceAlpha" type="matrix" values="0 0 0 0 0 0 0 0 0 0 0 0 0 0 0 0 0 0 127 0" result="hardAlpha"/>
<feOffset dx="0.15" dy="-0.15"/>
<feGaussianBlur stdDeviation="0.25"/>
<feComposite in2="hardAlpha" operator="arithmetic" k2="-1" k3="1"/>
<feColorMatrix type="matrix" values="0 0 0 0 0.984314 0 0 0 0 0.219608 0 0 0 0 0.254902 0 0 0 1 0"/>
<feBlend mode="normal" in2="shape" result="effect2_innerShadow_4518_21770"/>
</filter>
<filter id="filter2_di_4518_21770" x="15.429" y="41.0687" width="6.9598" height="7.49219" filterUnits="userSpaceOnUse" color-interpolation-filters="sRGB">
<feFlood flood-opacity="0" result="BackgroundImageFix"/>
<feColorMatrix in="SourceAlpha" type="matrix" values="0 0 0 0 0 0 0 0 0 0 0 0 0 0 0 0 0 0 127 0" result="hardAlpha"/>
<feOffset dx="-0.25" dy="0.25"/>
<feGaussianBlur stdDeviation="0.375"/>
<feComposite in2="hardAlpha" operator="out"/>
<feColorMatrix type="matrix" values="0 0 0 0 0.905882 0 0 0 0 0.439216 0 0 0 0 0.278431 0 0 0 1 0"/>
<feBlend mode="normal" in2="BackgroundImageFix" result="effect1_dropShadow_4518_21770"/>
<feBlend mode="normal" in="SourceGraphic" in2="effect1_dropShadow_4518_21770" result="shape"/>
<feColorMatrix in="SourceAlpha" type="matrix" values="0 0 0 0 0 0 0 0 0 0 0 0 0 0 0 0 0 0 127 0" result="hardAlpha"/>
<feOffset dx="0.3" dy="0.3"/>
<feGaussianBlur stdDeviation="0.3"/>
<feComposite in2="hardAlpha" operator="arithmetic" k2="-1" k3="1"/>
<feColorMatrix type="matrix" values="0 0 0 0 0.796078 0 0 0 0 0.141176 0 0 0 0 0.223529 0 0 0 1 0"/>
<feBlend mode="normal" in2="shape" result="effect2_innerShadow_4518_21770"/>
</filter>
<filter id="filter3_i_4518_21770" x="42.0625" y="19.1776" width="5.5625" height="5.35211" filterUnits="userSpaceOnUse" color-interpolation-filters="sRGB">
<feFlood flood-opacity="0" result="BackgroundImageFix"/>
<feBlend mode="normal" in="SourceGraphic" in2="BackgroundImageFix" result="shape"/>
<feColorMatrix in="SourceAlpha" type="matrix" values="0 0 0 0 0 0 0 0 0 0 0 0 0 0 0 0 0 0 127 0" result="hardAlpha"/>
<feOffset/>
<feGaussianBlur stdDeviation="0.125"/>
<feComposite in2="hardAlpha" operator="arithmetic" k2="-1" k3="1"/>
<feColorMatrix type="matrix" values="0 0 0 0 0.756863 0 0 0 0 0.619608 0 0 0 0 0.321569 0 0 0 1 0"/>
<feBlend mode="normal" in2="shape" result="effect1_innerShadow_4518_21770"/>
</filter>
<filter id="filter4_di_4518_21770" x="25.3905" y="38.9658" width="12.3716" height="12.3716" filterUnits="userSpaceOnUse" color-interpolation-filters="sRGB">
<feFlood flood-opacity="0" result="BackgroundImageFix"/>
<feColorMatrix in="SourceAlpha" type="matrix" values="0 0 0 0 0 0 0 0 0 0 0 0 0 0 0 0 0 0 127 0" result="hardAlpha"/>
<feOffset dx="-0.5" dy="0.5"/>
<feGaussianBlur stdDeviation="0.625"/>
<feComposite in2="hardAlpha" operator="out"/>
<feColorMatrix type="matrix" values="0 0 0 0 0.937255 0 0 0 0 0.443137 0 0 0 0 0.376471 0 0 0 1 0"/>
<feBlend mode="normal" in2="BackgroundImageFix" result="effect1_dropShadow_4518_21770"/>
<feBlend mode="normal" in="SourceGraphic" in2="effect1_dropShadow_4518_21770" result="shape"/>
<feColorMatrix in="SourceAlpha" type="matrix" values="0 0 0 0 0 0 0 0 0 0 0 0 0 0 0 0 0 0 127 0" result="hardAlpha"/>
<feOffset dx="0.75" dy="-0.75"/>
<feGaussianBlur stdDeviation="0.75"/>
<feComposite in2="hardAlpha" operator="arithmetic" k2="-1" k3="1"/>
<feColorMatrix type="matrix" values="0 0 0 0 0.313726 0 0 0 0 0.384314 0 0 0 0 1 0 0 0 1 0"/>
<feBlend mode="normal" in2="shape" result="effect2_innerShadow_4518_21770"/>
</filter>
<filter id="filter5_f_4518_21770" x="32.2628" y="18.4799" width="22.6006" height="13.7451" filterUnits="userSpaceOnUse" color-interpolation-filters="sRGB">
<feFlood flood-opacity="0" result="BackgroundImageFix"/>
<feBlend mode="normal" in="SourceGraphic" in2="BackgroundImageFix" result="shape"/>
<feGaussianBlur stdDeviation="0.075" result="effect1_foregroundBlur_4518_21770"/>
</filter>
<radialGradient id="paint0_radial_4518_21770" cx="0" cy="0" r="1" gradientUnits="userSpaceOnUse" gradientTransform="translate(10.7578 46.494) rotate(-103.54) scale(3.50363 4.31339)">
<stop stop-color="#395DE0"/>
<stop offset="1" stop-color="#2C68A3"/>
</radialGradient>
<radialGradient id="paint1_radial_4518_21770" cx="0" cy="0" r="1" gradientUnits="userSpaceOnUse" gradientTransform="translate(55.1875 41.9627) rotate(108.743) scale(5.98124)">
<stop offset="0.248616" stop-color="#3DB3F3"/>
<stop offset="1" stop-color="#5B73F4"/>
</radialGradient>
<radialGradient id="paint2_radial_4518_21770" cx="0" cy="0" r="1" gradientUnits="userSpaceOnUse" gradientTransform="translate(56.1875 43.3065) rotate(161.162) scale(2.80659 1.77944)">
<stop offset="0.257996" stop-color="#5FBEFF"/>
<stop offset="1" stop-color="#5FBEFF" stop-opacity="0"/>
</radialGradient>
<radialGradient id="paint3_radial_4518_21770" cx="0" cy="0" r="1" gradientUnits="userSpaceOnUse" gradientTransform="translate(17.3125 27.119) rotate(15.9454) scale(6.3701 15.8995)">
<stop stop-color="#FBC96E"/>
<stop offset="1" stop-color="#FAC567"/>
</radialGradient>
<radialGradient id="paint4_radial_4518_21770" cx="0" cy="0" r="1" gradientUnits="userSpaceOnUse" gradientTransform="translate(21.0625 28.494) rotate(-156.753) scale(4.82962 14.5253)">
<stop offset="0.765376" stop-color="#D89F3A" stop-opacity="0"/>
<stop offset="0.91124" stop-color="#DAA139"/>
</radialGradient>
<radialGradient id="paint5_radial_4518_21770" cx="0" cy="0" r="1" gradientUnits="userSpaceOnUse" gradientTransform="translate(47.75 30.994) rotate(-125.455) scale(5.06404 5.19365)">
<stop offset="0.254227" stop-color="#BF812A"/>
<stop offset="1" stop-color="#CE9333"/>
</radialGradient>
<radialGradient id="paint6_radial_4518_21770" cx="0" cy="0" r="1" gradientUnits="userSpaceOnUse" gradientTransform="translate(43.8438 28.5252) rotate(-23.0913) scale(4.38236 11.4167)">
<stop offset="0.734364" stop-color="#E9BB61" stop-opacity="0"/>
<stop offset="0.929116" stop-color="#E9BB61"/>
</radialGradient>
<radialGradient id="paint7_radial_4518_21770" cx="0" cy="0" r="1" gradientUnits="userSpaceOnUse" gradientTransform="translate(46.4375 29.7752) rotate(-142.922) scale(6.8938 11.6301)">
<stop offset="0.772711" stop-color="#C18739" stop-opacity="0"/>
<stop offset="0.948485" stop-color="#C18739"/>
</radialGradient>
<linearGradient id="paint8_linear_4518_21770" x1="46.4114" y1="41.1598" x2="11.0806" y2="49.4002" gradientUnits="userSpaceOnUse">
<stop stop-color="#FFBC5D"/>
<stop offset="0.303505" stop-color="#FCAD6A"/>
<stop offset="1" stop-color="#CB7547"/>
</linearGradient>
<radialGradient id="paint9_radial_4518_21770" cx="0" cy="0" r="1" gradientUnits="userSpaceOnUse" gradientTransform="translate(24.2653 63.718) rotate(-69.4212) scale(22.0052 42.8293)">
<stop stop-color="#F67B4E"/>
<stop offset="1" stop-color="#F67B4E" stop-opacity="0"/>
</radialGradient>
<linearGradient id="paint10_linear_4518_21770" x1="10.5625" y1="48.5565" x2="16" y2="47.4315" gradientUnits="userSpaceOnUse">
<stop stop-color="#C2794C"/>
<stop offset="1" stop-color="#E07648" stop-opacity="0"/>
</linearGradient>
<linearGradient id="paint11_linear_4518_21770" x1="53.25" y1="52.0565" x2="44" y2="49.9315" gradientUnits="userSpaceOnUse">
<stop offset="0.128534" stop-color="#FFBB5B"/>
<stop offset="1" stop-color="#FFBB5B" stop-opacity="0"/>
</linearGradient>
<linearGradient id="paint12_linear_4518_21770" x1="34.875" y1="57.744" x2="34.875" y2="55.369" gradientUnits="userSpaceOnUse">
<stop offset="0.184212" stop-color="#FF6F8C"/>
<stop offset="1" stop-color="#FF7A6A" stop-opacity="0"/>
</linearGradient>
<radialGradient id="paint13_radial_4518_21770" cx="0" cy="0" r="1" gradientUnits="userSpaceOnUse" gradientTransform="translate(56.125 24.8065) rotate(113.385) scale(5.03891 4.17687)">
<stop offset="0.377231" stop-color="#DD9049"/>
<stop offset="1" stop-color="#F8BF60" stop-opacity="0"/>
</radialGradient>
<radialGradient id="paint14_radial_4518_21770" cx="0" cy="0" r="1" gradientUnits="userSpaceOnUse" gradientTransform="translate(8.09375 25.0877) rotate(64.2171) scale(4.09518 2.23996)">
<stop offset="0.195602" stop-color="#D7783D"/>
<stop offset="1" stop-color="#D7783D" stop-opacity="0"/>
</radialGradient>
<radialGradient id="paint15_radial_4518_21770" cx="0" cy="0" r="1" gradientUnits="userSpaceOnUse" gradientTransform="translate(32 17.6658) rotate(76.0568) scale(2.33441 5.11204)">
<stop offset="0.382465" stop-color="#D48C33"/>
<stop offset="1" stop-color="#FEB16A" stop-opacity="0"/>
</radialGradient>
<radialGradient id="paint16_radial_4518_21770" cx="0" cy="0" r="1" gradientUnits="userSpaceOnUse" gradientTransform="translate(44.0625 46.1187) rotate(-51.5819) scale(4.62669 2.9854)">
<stop stop-color="#FF196C"/>
<stop offset="1" stop-color="#FF1F4A"/>
</radialGradient>
<radialGradient id="paint17_radial_4518_21770" cx="0" cy="0" r="1" gradientUnits="userSpaceOnUse" gradientTransform="translate(47.25 43.6812) rotate(149.744) scale(3.47311 2.19992)">
<stop offset="0.222789" stop-color="#FF5873"/>
<stop offset="1" stop-color="#FF5873" stop-opacity="0"/>
</radialGradient>
<radialGradient id="paint18_radial_4518_21770" cx="0" cy="0" r="1" gradientUnits="userSpaceOnUse" gradientTransform="translate(19.625 46.2437) rotate(-104.281) scale(3.54712 3.39624)">
<stop stop-color="#F6196C"/>
<stop offset="1" stop-color="#E42047"/>
</radialGradient>
<radialGradient id="paint19_radial_4518_21770" cx="0" cy="0" r="1" gradientUnits="userSpaceOnUse" gradientTransform="translate(21.0937 44.0875) rotate(155.726) scale(1.74833 1.53139)">
<stop stop-color="#FE536F"/>
<stop offset="1" stop-color="#FE536F" stop-opacity="0"/>
</radialGradient>
<radialGradient id="paint20_radial_4518_21770" cx="0" cy="0" r="1" gradientUnits="userSpaceOnUse" gradientTransform="translate(9.3125 21.9492) rotate(135.198) scale(5.94574 6.18573)">
<stop offset="0.172433" stop-color="#E7C04E"/>
<stop offset="1" stop-color="#D9972A"/>
</radialGradient>
<radialGradient id="paint21_radial_4518_21770" cx="0" cy="0" r="1" gradientUnits="userSpaceOnUse" gradientTransform="translate(6.4375 26.994) rotate(-71.3305) scale(3.31918 3.59544)">
<stop offset="0.0645976" stop-color="#DF8089"/>
<stop offset="1" stop-color="#DF8089" stop-opacity="0"/>
</radialGradient>
<radialGradient id="paint22_radial_4518_21770" cx="0" cy="0" r="1" gradientUnits="userSpaceOnUse" gradientTransform="translate(9.53125 22.0791) rotate(141.017) scale(2.81412 1.45426)">
<stop stop-color="#FFDE71"/>
<stop offset="1" stop-color="#FFDE71" stop-opacity="0"/>
</radialGradient>
<radialGradient id="paint23_radial_4518_21770" cx="0" cy="0" r="1" gradientUnits="userSpaceOnUse" gradientTransform="translate(8.03125 24.0278) rotate(180) scale(3.75 3.89743)">
<stop offset="0.487603" stop-color="#E1AD3D" stop-opacity="0"/>
<stop offset="1" stop-color="#B9894B"/>
</radialGradient>
<radialGradient id="paint24_radial_4518_21770" cx="0" cy="0" r="1" gradientUnits="userSpaceOnUse" gradientTransform="translate(21.4063 20.0252) rotate(136.302) scale(5.83514 6.06455)">
<stop offset="0.172433" stop-color="#E7C04E"/>
<stop offset="1" stop-color="#D9972A"/>
</radialGradient>
<radialGradient id="paint25_radial_4518_21770" cx="0" cy="0" r="1" gradientUnits="userSpaceOnUse" gradientTransform="translate(21.625 20.1502) rotate(142.093) scale(2.77248 1.42026)">
<stop stop-color="#FFDE71"/>
<stop offset="1" stop-color="#FFDE71" stop-opacity="0"/>
</radialGradient>
<radialGradient id="paint26_radial_4518_21770" cx="0" cy="0" r="1" gradientUnits="userSpaceOnUse" gradientTransform="translate(19.1563 24.869) rotate(-76.7989) scale(2.59995 3.46761)">
<stop stop-color="#E4A122"/>
<stop offset="1" stop-color="#E4A122" stop-opacity="0"/>
</radialGradient>
<radialGradient id="paint27_radial_4518_21770" cx="0" cy="0" r="1" gradientUnits="userSpaceOnUse" gradientTransform="translate(20.125 22.0252) rotate(180) scale(3.75)">
<stop offset="0.487603" stop-color="#E1AD3D" stop-opacity="0"/>
<stop offset="1" stop-color="#B9894B"/>
</radialGradient>
<radialGradient id="paint28_radial_4518_21770" cx="0" cy="0" r="1" gradientUnits="userSpaceOnUse" gradientTransform="translate(46.9375 20.9315) rotate(136.32) scale(4.79634 4.98491)">
<stop offset="0.172433" stop-color="#F0C950"/>
<stop offset="1" stop-color="#C8861F"/>
</radialGradient>
<radialGradient id="paint29_radial_4518_21770" cx="0" cy="0" r="1" gradientUnits="userSpaceOnUse" gradientTransform="translate(47.3438 20.4002) rotate(147.14) scale(2.67858 1.37216)">
<stop offset="0.183948" stop-color="#FFDE71"/>
<stop offset="1" stop-color="#FFDE71" stop-opacity="0"/>
</radialGradient>
<radialGradient id="paint30_radial_4518_21770" cx="0" cy="0" r="1" gradientUnits="userSpaceOnUse" gradientTransform="translate(34.25 43.1187) rotate(138.155) scale(5.62118)">
<stop stop-color="#5FBFFF"/>
<stop offset="1" stop-color="#3E94FF"/>
</radialGradient>
<linearGradient id="paint31_linear_4518_21770" x1="32.4219" y1="18.3065" x2="45.1094" y2="34.3065" gradientUnits="userSpaceOnUse">
<stop stop-color="#FFD678"/>
<stop offset="1" stop-color="#FFD678" stop-opacity="0"/>
</linearGradient>
<radialGradient id="paint32_radial_4518_21770" cx="0" cy="0" r="1" gradientUnits="userSpaceOnUse" gradientTransform="translate(45.1094 32.744) rotate(-34.6679) scale(12.9945 3.48045)">
<stop offset="0.289296" stop-color="#FFD175"/>
<stop offset="1" stop-color="#FFD175" stop-opacity="0"/>
</radialGradient>
<radialGradient id="paint33_radial_4518_21770" cx="0" cy="0" r="1" gradientUnits="userSpaceOnUse" gradientTransform="translate(34.875 13.3065) rotate(125.606) scale(6.87042 5.83315)">
<stop offset="0.376296" stop-color="#F3D154"/>
<stop offset="1" stop-color="#CC9848"/>
</radialGradient>
<radialGradient id="paint34_radial_4518_21770" cx="0" cy="0" r="1" gradientUnits="userSpaceOnUse" gradientTransform="translate(31.3125 18.8924) rotate(-79.3128) scale(3.66514 4.35682)">
<stop stop-color="#E78F5E"/>
<stop offset="1" stop-color="#E78F5E" stop-opacity="0"/>
</radialGradient>
<radialGradient id="paint35_radial_4518_21770" cx="0" cy="0" r="1" gradientUnits="userSpaceOnUse" gradientTransform="translate(33.5 16.494) rotate(-146.725) scale(7.17662 8.58358)">
<stop offset="0.557117" stop-color="#E9C251" stop-opacity="0"/>
<stop offset="1" stop-color="#B49858"/>
</radialGradient>
<radialGradient id="paint36_radial_4518_21770" cx="0" cy="0" r="1" gradientUnits="userSpaceOnUse" gradientTransform="translate(36.125 13.6815) rotate(156.06) scale(3.9662 3.05216)">
<stop stop-color="#FFED77"/>
<stop offset="1" stop-color="#FFED77" stop-opacity="0"/>
</radialGradient>
<radialGradient id="paint37_radial_4518_21770" cx="0" cy="0" r="1" gradientUnits="userSpaceOnUse" gradientTransform="translate(59.3125 21.9492) rotate(135.198) scale(5.94574 6.18573)">
<stop offset="0.172433" stop-color="#F8CB54"/>
<stop offset="1" stop-color="#EAA34B"/>
</radialGradient>
<radialGradient id="paint38_radial_4518_21770" cx="0" cy="0" r="1" gradientUnits="userSpaceOnUse" gradientTransform="translate(56.4375 26.994) rotate(-71.3305) scale(3.31918 4.48653)">
<stop offset="0.159577" stop-color="#F1907C"/>
<stop offset="1" stop-color="#F1907C" stop-opacity="0"/>
</radialGradient>
<radialGradient id="paint39_radial_4518_21770" cx="0" cy="0" r="1" gradientUnits="userSpaceOnUse" gradientTransform="translate(59.5312 22.0791) rotate(141.017) scale(2.81412 1.45426)">
<stop stop-color="#FFDE71"/>
<stop offset="1" stop-color="#FFDE71" stop-opacity="0"/>
</radialGradient>
<radialGradient id="paint40_radial_4518_21770" cx="0" cy="0" r="1" gradientUnits="userSpaceOnUse" gradientTransform="translate(58.0312 24.0278) rotate(180) scale(3.75 3.89743)">
<stop offset="0.487603" stop-color="#E0A444" stop-opacity="0"/>
<stop offset="1" stop-color="#C6924D"/>
</radialGradient>
</defs>
</svg>
