<svg width="146" height="47" viewBox="0 0 146 47" fill="none" xmlns="http://www.w3.org/2000/svg">
<path d="M105.507 16.2378C101.033 16.5107 103.042 22.2298 107.987 21.9279C112.825 21.6327 110.273 15.9471 105.507 16.2378Z" fill="#FF9C2C"/>
<path d="M103.618 12.7055C100.768 12.7055 97.9815 13.5352 95.6115 15.0897C93.2415 16.6442 91.3943 18.8538 90.3035 21.4388C89.2128 24.0239 88.9274 26.8685 89.4834 29.6128C90.0395 32.3571 91.4121 34.8779 93.4276 36.8564C95.4431 38.8349 98.0111 40.1823 100.807 40.7282C103.602 41.2741 106.5 40.9939 109.133 39.9231C111.767 38.8524 114.018 37.0391 115.601 34.7126C117.185 32.3861 118.03 29.6508 118.03 26.8528C118.03 23.1007 116.512 19.5023 113.809 16.8491C111.106 14.196 107.44 12.7055 103.618 12.7055ZM103.618 39.5174C101.067 39.5178 98.5733 38.7756 96.4519 37.3846C94.3306 35.9937 92.6771 34.0164 91.7005 31.7029C90.7239 29.3894 90.4682 26.8436 90.9656 24.3874C91.463 21.9312 92.6913 19.675 94.495 17.904C96.2987 16.1331 98.5969 14.927 101.099 14.4383C103.601 13.9496 106.194 14.2002 108.551 15.1584C110.908 16.1166 112.923 17.7395 114.34 19.8217C115.757 21.9038 116.514 24.3518 116.514 26.8561C116.514 30.2137 115.155 33.4338 112.737 35.8082C110.319 38.1826 107.039 39.5168 103.618 39.5174ZM103.184 2.82912C99.7623 5.36784 100.357 9.26112 100.357 9.26112C100.357 9.26112 98.2065 3.78156 95.4138 0.431885C95.037 4.74402 96.4135 10.4575 96.4135 10.4575C96.4135 10.4575 94.6648 6.91512 90.3799 6.71684C93.934 8.72196 95.3128 12.3345 95.6283 13.3037C97.7463 12.0203 100.168 11.3008 102.656 11.2161C102.376 10.3138 101.379 6.51187 103.184 2.82912Z" fill="#FF9C2C"/>
<path d="M29.2555 28.2394V31.2003H28.0004V23.5719H30.6422C31.5379 23.5719 32.2112 23.781 32.6621 24.1991C33.113 24.6172 33.3399 25.1898 33.343 25.9168C33.343 26.6379 33.1118 27.2053 32.6496 27.6189C32.1874 28.0326 31.5198 28.2394 30.6467 28.2394H29.2555ZM32.0618 25.9168C32.0618 25.4846 31.9389 25.1549 31.693 24.9276C31.4471 24.7004 31.053 24.5871 30.5106 24.5878H29.2555V27.2346H30.5106C31.544 27.2346 32.061 26.7953 32.0618 25.9168ZM38.5232 31.2003L36.5862 28.1536H35.6942V31.2003H34.4392V23.5719H37.1808C38.0682 23.5719 38.7415 23.7843 39.2007 24.2091C39.6599 24.6339 39.8891 25.1961 39.8884 25.8956C39.8884 26.4897 39.7178 26.9795 39.3766 27.3649C39.0354 27.7504 38.5437 27.9951 37.9014 28.099L39.944 31.2003H38.5232ZM35.6942 27.2781H37.0787C38.0924 27.2781 38.5989 26.8388 38.5981 25.9602C38.5981 25.5429 38.4752 25.2169 38.2293 24.9822C37.9831 24.7483 37.6007 24.6313 37.0787 24.6313H35.6942V27.2781ZM45.6565 29.5472H42.3758L41.7812 31.2003H40.4388L43.3007 23.6911H44.743L47.5936 31.2003H46.25L45.6565 29.5472ZM45.3036 28.597L44.0156 25.0323L42.7276 28.597H45.3036ZM53.9336 24.1768C54.5496 24.6234 54.983 25.2713 55.1558 26.0037H53.8349C53.6703 25.5979 53.3791 25.2536 53.0031 25.0201C52.5932 24.7682 52.1168 24.6403 51.6334 24.6525C51.1755 24.6451 50.7243 24.7607 50.3284 24.9866C49.9411 25.2119 49.6279 25.5418 49.4262 25.9369C49.2019 26.3886 49.0925 26.8871 49.1074 27.3895C49.0927 27.9091 49.2059 28.4247 49.4376 28.8922C49.643 29.2949 49.9668 29.6278 50.367 29.848C50.7939 30.0757 51.2736 30.1908 51.7593 30.1821C52.3691 30.1926 52.961 29.9797 53.4195 29.5851C53.881 29.1929 54.1598 28.6545 54.2559 27.9698H51.4019V27.0619H55.3089V28.2394C55.2265 28.7882 55.0177 29.3112 54.6984 29.7689C54.3745 30.2308 53.94 30.6075 53.4332 30.8661C52.8769 31.1465 52.2586 31.2873 51.6334 31.2761C50.932 31.2902 50.2398 31.1185 49.6294 30.7792C49.0569 30.4554 48.591 29.9771 48.2869 29.4013C47.9755 28.7735 47.8137 28.0844 47.8137 27.3861C47.8137 26.6879 47.9755 25.9987 48.2869 25.371C48.5897 24.7975 49.0536 24.3212 49.6237 23.9986C50.2332 23.6627 50.9232 23.4931 51.622 23.5073C52.5473 23.5073 53.3178 23.7305 53.9336 24.1768ZM64.1705 23.6911V31.2003H62.904V25.5715L60.6924 31.2003H59.5916L57.3674 25.5715V31.2003H56.1135V23.6911H57.6318L60.1635 29.6875L62.651 23.6911H64.1705ZM70.3119 29.5472H67.0369L66.4423 31.2003H65.0953L67.9572 23.6911H69.3984L72.2501 31.2003H70.9065L70.3119 29.5472ZM69.9601 28.597L68.6721 25.0323L67.3842 28.597H69.9601ZM77.621 23.5719V24.5656H75.4525V31.2003H74.1861V24.5656H72.03V23.5719H77.621ZM79.5468 23.5719V31.2003H78.2928V23.5719H79.5468ZM86.6471 24.2091C87.2838 24.6933 87.734 25.3756 87.9237 26.144H86.5915C86.4214 25.6989 86.1159 25.3158 85.7166 25.0468C85.2809 24.7665 84.7677 24.6249 84.247 24.6413C83.8103 24.6345 83.3807 24.7504 83.009 24.9755C82.6373 25.209 82.3397 25.5402 82.15 25.9313C81.9435 26.3872 81.8368 26.8805 81.8368 27.3794C81.8368 27.8783 81.9435 28.3717 82.15 28.8276C82.3394 29.2192 82.637 29.5508 83.009 29.7845C83.3807 30.0096 83.8103 30.1256 84.247 30.1187C84.7676 30.1354 85.2807 29.9942 85.7166 29.7143C86.1138 29.4478 86.4189 29.069 86.5915 28.6282H87.9237C87.7351 29.3952 87.2846 30.0757 86.6471 30.5564C86.0162 31.0288 85.2237 31.2649 84.2697 31.2649C83.5867 31.2776 82.9132 31.1074 82.3213 30.7725C81.7593 30.4483 81.3046 29.9718 81.0118 29.4001C80.7069 28.7705 80.5487 28.0821 80.5487 27.385C80.5487 26.6879 80.7069 25.9995 81.0118 25.3698C81.3057 24.7975 81.76 24.3194 82.3213 23.9919C82.9121 23.6541 83.5861 23.4822 84.2697 23.4951C85.2229 23.4958 86.0154 23.7338 86.6471 24.2091ZM93.8439 28.2394V31.2003H92.59V23.5719H95.2317C96.1259 23.5719 96.7992 23.781 97.2516 24.1991C97.704 24.6172 97.931 25.1898 97.9325 25.9168C97.9325 26.6379 97.7014 27.2053 97.2392 27.6189C96.7769 28.0326 96.1093 28.2394 95.2363 28.2394H93.8439ZM96.6547 25.9168C96.6547 25.4846 96.5318 25.1549 96.2859 24.9276C96.0401 24.7004 95.6455 24.5871 95.1024 24.5878H93.8439V27.2346H95.099C96.1361 27.2346 96.6547 26.7953 96.6547 25.9168ZM100.085 30.239H102.771V31.2003H98.8301V23.5719H100.085V30.239ZM108.517 29.5472H105.237L104.642 31.2003H103.299L106.162 23.6911H107.603L110.455 31.2003H109.111L108.517 29.5472ZM108.165 28.597L106.877 25.0323L105.589 28.597H108.165ZM115.492 23.5719L112.906 28.4232V31.2003H111.643V28.4232L109.045 23.5719H110.499L112.283 27.1054L114.066 23.5719H115.492Z" fill="white"/>
</svg>
