<svg width="56" height="47" viewBox="0 0 56 47" fill="none" xmlns="http://www.w3.org/2000/svg">
<g clip-path="url(#clip0_4152_20114)">
<path d="M0 11C0 6.58172 3.58172 3 8 3H48C52.4183 3 56 6.58172 56 11V39C56 43.4183 52.4183 47 48 47H8C3.58172 47 0 43.4183 0 39V11Z" fill="white"/>
<path d="M0 11C0 6.58172 3.58172 3 8 3H48C52.4183 3 56 6.58172 56 11V39C56 43.4183 52.4183 47 48 47H8C3.58172 47 0 43.4183 0 39V11Z" fill="url(#paint0_linear_4152_20114)" fill-opacity="0.08"/>
<rect x="12" width="2" height="6" rx="1" fill="#374151"/>
<rect x="42" width="2" height="6" rx="1" fill="#374151"/>
</g>
<defs>
<linearGradient id="paint0_linear_4152_20114" x1="28" y1="3" x2="28" y2="47" gradientUnits="userSpaceOnUse">
<stop offset="0.272727"/>
<stop offset="0.272727" stop-opacity="0"/>
</linearGradient>
<clipPath id="clip0_4152_20114">
<rect width="56" height="47" fill="white"/>
</clipPath>
</defs>
</svg>
