<?xml version="1.0" encoding="utf-8"?>
<!-- Generator: Adobe Illustrator 26.3.1, SVG Export Plug-In . SVG Version: 6.00 Build 0)  -->
<svg version="1.1" id="Layer_1" xmlns="http://www.w3.org/2000/svg" xmlns:xlink="http://www.w3.org/1999/xlink" x="0px" y="0px" viewBox="0 0 50 49.99714" style="enable-background:new 0 0 50 49.99714;" xml:space="preserve" class="h9a9au-lca0oe0weffy0cst6ad3e-r78" >
<style type="text/css">.h9a9au-lca0oe0weffy0cst6ad3e-r78 .st5{fill:#004A98;} </style>
<g>
	<g>
		<g>
			<g>
				<defs>
					<circle id="SVGID_1_" cx="24.68004" cy="25.19426" r="24.14606"/>
				</defs>
				<clipPath id="SVGID_00000023261759180586343560000014062067810087582341_">
					<use xlink:href="#SVGID_1_"  style="overflow:visible;"/>
				</clipPath>
				<path style="clip-path:url(#SVGID_00000023261759180586343560000014062067810087582341_);fill:#004A98;" d="M29.48496-12.08007
					c1.48102,0,2.78431,0.94785,3.2439,2.35625l2.74036,8.42363c0.45673,1.41031-0.04109,2.94483-1.23928,3.81433l-7.16237,5.19788
					c-0.58572,0.42615-1.27845,0.65165-2.00271,0.65165s-1.417-0.2255-2.00176-0.64974l-7.16238-5.19979
					C14.69966,1.6389,14.2009,0.10629,14.65858-1.3002l2.74227-8.42554c0.46055-1.4084,1.76288-2.35433,3.24103-2.35433
					C20.64188-12.08007,29.48496-12.08007,29.48496-12.08007z M25.06485,6.50236c0.3306,0,0.644-0.10128,0.90867-0.29429
					l7.16429-5.19979c0.54176-0.39366,0.76917-1.08735,0.56565-1.72753l-2.74322-8.42936
					c-0.2083-0.64018-0.80166-1.07015-1.47528-1.07015h-8.845c-0.67171,0-1.26316,0.42997-1.47146,1.07015l-2.7413,8.42553
					c-0.20925,0.63827,0.0172,1.33578,0.56374,1.73326l7.16142,5.19788C24.41799,6.40107,24.7333,6.50236,25.06485,6.50236z"/>
			</g>
			<g>
				<defs>
					<circle id="SVGID_00000020357948517202262560000013214849911821029521_" cx="24.68004" cy="25.19426" r="24.14606"/>
				</defs>
				<clipPath id="SVGID_00000054250316492715463240000014948505954453085621_">
					<use xlink:href="#SVGID_00000020357948517202262560000013214849911821029521_"  style="overflow:visible;"/>
				</clipPath>
				<path style="clip-path:url(#SVGID_00000054250316492715463240000014948505954453085621_);fill:#004A98;" d="M61.83374,19.42107
					c0.45749,1.40858-0.04142,2.94093-1.23897,3.8131l-7.16517,5.2084c-1.20025,0.87003-2.8135,0.87058-4.0106-0.00042
					l-7.15614-5.20647c-0.58624-0.42543-1.01469-1.01463-1.23841-1.70348s-0.22324-1.41735-0.00039-2.10456l2.73304-8.41831
					c0.46142-1.41268,1.76501-2.36047,3.24409-2.35964l8.86057,0.0055c1.48178,0.00297,2.78375,0.94942,3.24035,2.35527
					L61.83374,19.42107z M42.79472,20.95724c0.10212,0.31443,0.29526,0.58122,0.56059,0.77333l7.15855,5.2077
					c0.54176,0.39367,1.27177,0.39567,1.81778,0.00435l7.16973-5.21289c0.54453-0.39586,0.77018-1.09302,0.5621-1.7337
					l-2.73222-8.41243c-0.20749-0.63886-0.79914-1.06857-1.47235-1.06893l-8.86028-0.00459
					c-0.67169-0.00186-1.26514,0.42898-1.47436,1.07158l-2.73151,8.41681C42.69123,20.31072,42.69231,20.6419,42.79472,20.95724z"/>
			</g>
			<g>
				<defs>
					<circle id="SVGID_00000065792041870608385010000007897824604553994631_" cx="24.68004" cy="25.19426" r="24.14606"/>
				</defs>
				<clipPath id="SVGID_00000073691073104571291460000004623969758227824527_">
					<use xlink:href="#SVGID_00000065792041870608385010000007897824604553994631_"  style="overflow:visible;"/>
				</clipPath>
				<path style="clip-path:url(#SVGID_00000073691073104571291460000004623969758227824527_);fill:#004A98;" d="M51.66597,48.46155
					c0.45749,1.40858-0.04142,2.94093-1.23897,3.8131l-7.16517,5.2084c-1.20025,0.87003-2.8135,0.87058-4.0106-0.00042
					l-7.15614-5.20647c-0.58624-0.42543-1.01469-1.01463-1.23842-1.70348c-0.22372-0.68884-0.22324-1.41735-0.00038-2.10456
					l2.73303-8.41831c0.46142-1.41268,1.76501-2.36048,3.24409-2.35964l8.86057,0.0055
					c1.48178,0.00297,2.78375,0.94941,3.24035,2.35527L51.66597,48.46155z M32.62695,49.99773
					c0.10212,0.31443,0.29526,0.58122,0.56059,0.77333l7.15854,5.2077c0.54176,0.39367,1.27177,0.39567,1.81778,0.00435
					l7.16974-5.21289c0.54453-0.39586,0.77018-1.09303,0.5621-1.7337l-2.73222-8.41243
					c-0.20749-0.63886-0.79913-1.06857-1.47235-1.06892l-8.86028-0.0046c-0.67169-0.00186-1.26514,0.42898-1.47436,1.07158
					l-2.73151,8.41681C32.52346,49.35121,32.52453,49.68238,32.62695,49.99773z"/>
			</g>
			<g>
				<defs>
					<circle id="SVGID_00000029025153377674921990000007587440002350084274_" cx="24.68004" cy="25.19426" r="24.14606"/>
				</defs>
				<clipPath id="SVGID_00000073718691298738835740000005158498476029066134_">
					<use xlink:href="#SVGID_00000029025153377674921990000007587440002350084274_"  style="overflow:visible;"/>
				</clipPath>
				<path style="clip-path:url(#SVGID_00000073718691298738835740000005158498476029066134_);fill:#004A98;" d="M19.65046,48.3991
					c0.45749,1.40858-0.04142,2.94093-1.23897,3.8131l-7.16517,5.20839c-1.20025,0.87004-2.8135,0.87058-4.0106-0.00042
					L0.07958,52.2137c-0.58624-0.42544-1.01469-1.01463-1.23842-1.70348s-0.22324-1.41735-0.00038-2.10456l2.73304-8.41832
					c0.46142-1.41267,1.76501-2.36047,3.24409-2.35964l8.86057,0.0055c1.48178,0.00297,2.78375,0.94942,3.24035,2.35527
					L19.65046,48.3991z M0.61144,49.93527c0.10212,0.31443,0.29526,0.58122,0.56059,0.77333l7.15854,5.2077
					c0.54176,0.39367,1.27177,0.39567,1.81778,0.00435l7.16974-5.21289c0.54453-0.39586,0.77018-1.09302,0.5621-1.7337
					l-2.73222-8.41243c-0.20749-0.63886-0.79913-1.06857-1.47235-1.06893l-8.86027-0.00459
					c-0.67169-0.00186-1.26514,0.42898-1.47436,1.07158L0.60947,48.9765C0.50795,49.28875,0.50903,49.61993,0.61144,49.93527z"/>
			</g>
			<g>
				<defs>
					<circle id="SVGID_00000152943898204398211520000011288437568441480357_" cx="24.68004" cy="25.19426" r="24.14606"/>
				</defs>
				<clipPath id="SVGID_00000016047691071708493680000007757132708552049062_">
					<use xlink:href="#SVGID_00000152943898204398211520000011288437568441480357_"  style="overflow:visible;"/>
				</clipPath>
				<path style="clip-path:url(#SVGID_00000016047691071708493680000007757132708552049062_);fill:#004A98;" d="M-8.99942,11.01045
					c0.4566-1.40586,1.75857-2.3523,3.24035-2.35527l8.86057-0.0055c1.47908-0.00083,2.78267,0.94697,3.24409,2.35964
					l2.73304,8.41831c0.22286,0.68721,0.22334,1.41572-0.00038,2.10456s-0.65218,1.27804-1.23842,1.70348l-7.15614,5.20647
					c-1.1971,0.871-2.81035,0.87045-4.0106,0.00042l-7.16517-5.2084c-1.19755-0.87217-1.69646-2.40451-1.23897-3.8131
					L-8.99942,11.01045z M7.30994,19.99846l-2.73151-8.41681c-0.20922-0.6426-0.80267-1.07343-1.47436-1.07158l-8.86027,0.00459
					c-0.67321,0.00036-1.26486,0.43007-1.47235,1.06893l-2.73222,8.41243c-0.20808,0.64068,0.01757,1.33784,0.5621,1.7337
					l7.16974,5.21289c0.546,0.39132,1.27601,0.38931,1.81778-0.00435l7.15855-5.2077
					c0.26533-0.19211,0.45847-0.45889,0.56059-0.77333C7.41039,20.6419,7.41146,20.31072,7.30994,19.99846z"/>
			</g>
		</g>
		
			<rect x="10.76213" y="18.32203" transform="matrix(0.24201 -0.97027 0.97027 0.24201 -12.63577 28.21563)" class="st5" width="1.95774" height="7.74615"/>
		
			<rect x="34.51645" y="21.19613" transform="matrix(0.97026 -0.24208 0.24208 0.97026 -4.22877 9.93251)" class="st5" width="7.57797" height="1.95776"/>
		
			<rect x="13.48023" y="35.48426" transform="matrix(0.62303 -0.7822 0.7822 0.62303 -22.11721 27.03317)" class="st5" width="7.01501" height="1.95691"/>
		
			<rect x="32.28728" y="32.95508" transform="matrix(0.78265 -0.62247 0.62247 0.78265 -15.46632 28.63211)" class="st5" width="1.95692" height="7.01503"/>
		<rect x="24.07556" y="7.98028" class="st5" width="1.95685" height="8.03188"/>
		
			<linearGradient id="SVGID_00000066480002107250481970000013153895821093473675_" gradientUnits="userSpaceOnUse" x1="0" y1="26.21403" x2="50" y2="26.21403" gradientTransform="matrix(1 0 0 -1 0 51.2126)">
			<stop  offset="0" style="stop-color:#095EBD"/>
			<stop  offset="1" style="stop-color:#04A9C2"/>
		</linearGradient>
		<path style="fill:url(#SVGID_00000066480002107250481970000013153895821093473675_);" d="M25.00048,49.99714
			C11.21558,49.99714,0,38.78347,0,24.99952C0,11.21367,11.21558,0,25.00048,0S50,11.21367,50,24.99952
			C50,38.78347,38.78538,49.99714,25.00048,49.99714z M25.00048,2.34669c-12.4902,0-22.65187,10.16263-22.65187,22.65283
			s10.16167,22.65092,22.65187,22.65092S47.6514,37.48973,47.6514,24.99952S37.49068,2.34669,25.00048,2.34669z"/>
		<path class="st5" d="M20.64247,35.5711c-1.48101,0-2.78431-0.94785-3.2439-2.35625l-2.74035-8.42363
			c-0.45673-1.41031,0.04109-2.94483,1.23927-3.81433l7.16238-5.19788c0.58572-0.42615,1.27845-0.65165,2.00271-0.65165
			s1.417,0.2255,2.00176,0.64974l7.16238,5.19979c1.20105,0.87523,1.69982,2.40784,1.24214,3.81433l-2.74226,8.42554
			c-0.46055,1.4084-1.76289,2.35434-3.24103,2.35434H20.64247z M25.06258,16.98867c-0.3306,0-0.644,0.10128-0.90867,0.29429
			l-7.16429,5.19979c-0.54177,0.39366-0.76917,1.08735-0.56565,1.72753l2.74322,8.42936
			c0.2083,0.64018,0.80166,1.07015,1.47528,1.07015h8.845c0.67171,0,1.26316-0.42997,1.47146-1.07015l2.74131-8.42554
			c0.20926-0.63827-0.0172-1.33578-0.56374-1.73326l-7.16142-5.19788C25.70945,17.08995,25.39414,16.98867,25.06258,16.98867z"/>
	</g>
	<g>
		<g>
			<g>
				<defs>
					<circle id="SVGID_00000122692472062653542010000011846547801594265278_" cx="24.68004" cy="25.19426" r="24.14606"/>
				</defs>
				<clipPath id="SVGID_00000106848878532298420740000001094882191312964230_">
					<use xlink:href="#SVGID_00000122692472062653542010000011846547801594265278_"  style="overflow:visible;"/>
				</clipPath>
				
					<linearGradient id="SVGID_00000063622779948828292230000012864037419014482851_" gradientUnits="userSpaceOnUse" x1="-11.89888" y1="53.0708" x2="62.00158" y2="53.0708" gradientTransform="matrix(1 0 0 -1 0 51.2126)">
					<stop  offset="0" style="stop-color:#8899A4"/>
					<stop  offset="1" style="stop-color:#B5B5B5"/>
				</linearGradient>
				
					<path style="clip-path:url(#SVGID_00000106848878532298420740000001094882191312964230_);fill:url(#SVGID_00000063622779948828292230000012864037419014482851_);" d="
					M29.48496-12.08007c1.48102,0,2.78431,0.94785,3.2439,2.35625l2.74036,8.42363c0.45673,1.41031-0.04109,2.94483-1.23928,3.81433
					l-7.16237,5.19788c-0.58572,0.42615-1.27845,0.65165-2.00271,0.65165s-1.417-0.2255-2.00176-0.64974l-7.16238-5.19979
					C14.69966,1.6389,14.2009,0.10629,14.65858-1.3002l2.74227-8.42554c0.46055-1.4084,1.76288-2.35433,3.24103-2.35433
					C20.64188-12.08007,29.48496-12.08007,29.48496-12.08007z M25.06485,6.50236c0.3306,0,0.644-0.10128,0.90867-0.29429
					l7.16429-5.19979c0.54176-0.39366,0.76917-1.08735,0.56565-1.72753l-2.74322-8.42936
					c-0.2083-0.64018-0.80166-1.07015-1.47528-1.07015h-8.845c-0.67171,0-1.26316,0.42997-1.47146,1.07015l-2.7413,8.42553
					c-0.20925,0.63827,0.0172,1.33578,0.56374,1.73326l7.16142,5.19788C24.41799,6.40107,24.7333,6.50236,25.06485,6.50236z"/>
			</g>
			<g>
				<defs>
					<circle id="SVGID_00000041996778773281200010000011926227798188952476_" cx="24.68004" cy="25.19426" r="24.14606"/>
				</defs>
				<clipPath id="SVGID_00000135689113943388008360000015186884099600830655_">
					<use xlink:href="#SVGID_00000041996778773281200010000011926227798188952476_"  style="overflow:visible;"/>
				</clipPath>
				
					<linearGradient id="SVGID_00000147208674577164657840000001439552662377515928_" gradientUnits="userSpaceOnUse" x1="-11.89888" y1="32.34013" x2="62.00158" y2="32.34013" gradientTransform="matrix(1 0 0 -1 0 51.2126)">
					<stop  offset="0" style="stop-color:#8899A4"/>
					<stop  offset="1" style="stop-color:#B5B5B5"/>
				</linearGradient>
				
					<path style="clip-path:url(#SVGID_00000135689113943388008360000015186884099600830655_);fill:url(#SVGID_00000147208674577164657840000001439552662377515928_);" d="
					M61.83374,19.42107c0.45749,1.40858-0.04142,2.94093-1.23897,3.8131l-7.16517,5.2084
					c-1.20025,0.87003-2.8135,0.87058-4.0106-0.00042l-7.15614-5.20647c-0.58624-0.42543-1.01469-1.01463-1.23841-1.70348
					s-0.22324-1.41735-0.00039-2.10456l2.73304-8.41831c0.46142-1.41268,1.76501-2.36047,3.24409-2.35964l8.86057,0.0055
					c1.48178,0.00297,2.78375,0.94942,3.24035,2.35527L61.83374,19.42107z M42.79472,20.95724
					c0.10212,0.31443,0.29526,0.58122,0.56059,0.77333l7.15855,5.2077c0.54176,0.39367,1.27177,0.39567,1.81778,0.00435
					l7.16973-5.21289c0.54453-0.39586,0.77018-1.09302,0.5621-1.7337l-2.73222-8.41243
					c-0.20749-0.63886-0.79914-1.06857-1.47235-1.06893l-8.86028-0.00459c-0.67169-0.00186-1.26514,0.42898-1.47436,1.07158
					l-2.73151,8.41681C42.69123,20.31072,42.69231,20.6419,42.79472,20.95724z"/>
			</g>
			<g>
				<defs>
					<circle id="SVGID_00000139986414550168215270000003855292572958344622_" cx="24.68004" cy="25.19426" r="24.14606"/>
				</defs>
				<clipPath id="SVGID_00000048487285317273373010000004273860731161388454_">
					<use xlink:href="#SVGID_00000139986414550168215270000003855292572958344622_"  style="overflow:visible;"/>
				</clipPath>
				
					<linearGradient id="SVGID_00000103984522996530581080000015556584688847564437_" gradientUnits="userSpaceOnUse" x1="-11.89888" y1="3.29965" x2="62.00158" y2="3.29965" gradientTransform="matrix(1 0 0 -1 0 51.2126)">
					<stop  offset="0" style="stop-color:#8899A4"/>
					<stop  offset="1" style="stop-color:#B5B5B5"/>
				</linearGradient>
				
					<path style="clip-path:url(#SVGID_00000048487285317273373010000004273860731161388454_);fill:url(#SVGID_00000103984522996530581080000015556584688847564437_);" d="
					M51.66597,48.46155c0.45749,1.40858-0.04142,2.94093-1.23897,3.8131l-7.16517,5.2084
					c-1.20025,0.87003-2.8135,0.87058-4.0106-0.00042l-7.15614-5.20647c-0.58624-0.42543-1.01469-1.01463-1.23842-1.70348
					c-0.22372-0.68884-0.22324-1.41735-0.00038-2.10456l2.73303-8.41831c0.46142-1.41268,1.76501-2.36048,3.24409-2.35964
					l8.86057,0.0055c1.48178,0.00297,2.78375,0.94941,3.24035,2.35527L51.66597,48.46155z M32.62695,49.99773
					c0.10212,0.31443,0.29526,0.58122,0.56059,0.77333l7.15854,5.2077c0.54176,0.39367,1.27177,0.39567,1.81778,0.00435
					l7.16974-5.21289c0.54453-0.39586,0.77018-1.09303,0.5621-1.7337l-2.73222-8.41243
					c-0.20749-0.63886-0.79913-1.06857-1.47235-1.06892l-8.86028-0.0046c-0.67169-0.00186-1.26514,0.42898-1.47436,1.07158
					l-2.73151,8.41681C32.52346,49.35121,32.52453,49.68238,32.62695,49.99773z"/>
			</g>
			<g>
				<defs>
					<circle id="SVGID_00000074424641705942028060000009968166870964105886_" cx="24.68004" cy="25.19426" r="24.14606"/>
				</defs>
				<clipPath id="SVGID_00000071556273418785980130000016170464762172820152_">
					<use xlink:href="#SVGID_00000074424641705942028060000009968166870964105886_"  style="overflow:visible;"/>
				</clipPath>
				
					<linearGradient id="SVGID_00000091016333004304573990000008502259775650692756_" gradientUnits="userSpaceOnUse" x1="-11.89888" y1="3.36212" x2="62.00158" y2="3.36212" gradientTransform="matrix(1 0 0 -1 0 51.2126)">
					<stop  offset="0" style="stop-color:#8899A4"/>
					<stop  offset="1" style="stop-color:#B5B5B5"/>
				</linearGradient>
				
					<path style="clip-path:url(#SVGID_00000071556273418785980130000016170464762172820152_);fill:url(#SVGID_00000091016333004304573990000008502259775650692756_);" d="
					M19.65046,48.3991c0.45749,1.40858-0.04142,2.94093-1.23897,3.8131l-7.16517,5.20839
					c-1.20025,0.87004-2.8135,0.87058-4.0106-0.00042L0.07958,52.2137c-0.58624-0.42544-1.01469-1.01463-1.23842-1.70348
					s-0.22324-1.41735-0.00038-2.10456l2.73304-8.41832c0.46142-1.41267,1.76501-2.36047,3.24409-2.35964l8.86057,0.0055
					c1.48178,0.00297,2.78375,0.94942,3.24035,2.35527L19.65046,48.3991z M0.61144,49.93527
					c0.10212,0.31443,0.29526,0.58122,0.56059,0.77333l7.15854,5.2077c0.54176,0.39367,1.27177,0.39567,1.81778,0.00435
					l7.16974-5.21289c0.54453-0.39586,0.77018-1.09302,0.5621-1.7337l-2.73222-8.41243
					c-0.20749-0.63886-0.79913-1.06857-1.47235-1.06893l-8.86027-0.00459c-0.67169-0.00186-1.26514,0.42898-1.47436,1.07158
					L0.60947,48.9765C0.50795,49.28875,0.50903,49.61993,0.61144,49.93527z"/>
			</g>
			<g>
				<defs>
					<circle id="SVGID_00000033327733499750111280000013210103872227744178_" cx="24.68004" cy="25.19426" r="24.14606"/>
				</defs>
				<clipPath id="SVGID_00000026165518308755028120000009674763649785838464_">
					<use xlink:href="#SVGID_00000033327733499750111280000013210103872227744178_"  style="overflow:visible;"/>
				</clipPath>
				
					<linearGradient id="SVGID_00000029018343605594130480000017242592079847226547_" gradientUnits="userSpaceOnUse" x1="-11.89889" y1="32.34014" x2="62.00157" y2="32.34014" gradientTransform="matrix(1 0 0 -1 0 51.2126)">
					<stop  offset="0" style="stop-color:#8899A4"/>
					<stop  offset="1" style="stop-color:#B5B5B5"/>
				</linearGradient>
				
					<path style="clip-path:url(#SVGID_00000026165518308755028120000009674763649785838464_);fill:url(#SVGID_00000029018343605594130480000017242592079847226547_);" d="
					M-8.99942,11.01045c0.4566-1.40586,1.75857-2.3523,3.24035-2.35527l8.86057-0.0055
					c1.47908-0.00083,2.78267,0.94697,3.24409,2.35964l2.73304,8.41831c0.22286,0.68721,0.22334,1.41572-0.00038,2.10456
					s-0.65218,1.27804-1.23842,1.70348l-7.15614,5.20647c-1.1971,0.871-2.81035,0.87045-4.0106,0.00042l-7.16517-5.2084
					c-1.19755-0.87217-1.69646-2.40451-1.23897-3.8131L-8.99942,11.01045z M7.30994,19.99846l-2.73151-8.41681
					c-0.20922-0.6426-0.80267-1.07343-1.47436-1.07158l-8.86027,0.00459c-0.67321,0.00036-1.26486,0.43007-1.47235,1.06893
					l-2.73222,8.41243c-0.20808,0.64068,0.01757,1.33784,0.5621,1.7337l7.16974,5.21289
					c0.546,0.39132,1.27601,0.38931,1.81778-0.00435l7.15855-5.2077c0.26533-0.19211,0.45847-0.45889,0.56059-0.77333
					C7.41039,20.6419,7.41146,20.31072,7.30994,19.99846z"/>
			</g>
		</g>
		
			<linearGradient id="SVGID_00000147197041664959044710000009842360420952840870_" gradientUnits="userSpaceOnUse" x1="-11.89888" y1="29.01745" x2="62.00158" y2="29.01745" gradientTransform="matrix(1 0 0 -1 0 51.2126)">
			<stop  offset="0" style="stop-color:#8899A4"/>
			<stop  offset="1" style="stop-color:#B5B5B5"/>
		</linearGradient>
		<polygon style="fill:url(#SVGID_00000147197041664959044710000009842360420952840870_);" points="15.26209,24.08225 
			7.74618,22.20757 8.22011,20.30805 15.73602,22.18273 		"/>
		
			<linearGradient id="SVGID_00000086659055983649220410000009514897531798081468_" gradientUnits="userSpaceOnUse" x1="-11.89888" y1="29.03752" x2="62.00158" y2="29.03752" gradientTransform="matrix(1 0 0 -1 0 51.2126)">
			<stop  offset="0" style="stop-color:#8899A4"/>
			<stop  offset="1" style="stop-color:#B5B5B5"/>
		</linearGradient>
		<polygon style="fill:url(#SVGID_00000086659055983649220410000009514897531798081468_);" points="34.86594,24.04212 
			34.39202,22.1426 41.74454,20.30805 42.21846,22.20757 		"/>
		
			<linearGradient id="SVGID_00000067920377310178573390000002566084143201107342_" gradientUnits="userSpaceOnUse" x1="-11.89888" y1="14.75002" x2="62.00158" y2="14.75002" gradientTransform="matrix(1 0 0 -1 0 51.2126)">
			<stop  offset="0" style="stop-color:#8899A4"/>
			<stop  offset="1" style="stop-color:#B5B5B5"/>
		</linearGradient>
		<polygon style="fill:url(#SVGID_00000067920377310178573390000002566084143201107342_);" points="15.56976,39.81731 
			14.03906,38.5981 18.40566,33.10784 19.93636,34.32705 		"/>
		
			<linearGradient id="SVGID_00000128458412469247022990000017964126694068965046_" gradientUnits="userSpaceOnUse" x1="-11.89888" y1="14.75002" x2="62.00158" y2="14.75002" gradientTransform="matrix(1 0 0 -1 0 51.2126)">
			<stop  offset="0" style="stop-color:#8899A4"/>
			<stop  offset="1" style="stop-color:#B5B5B5"/>
		</linearGradient>
		<polygon style="fill:url(#SVGID_00000128458412469247022990000017964126694068965046_);" points="34.68344,39.81731 
			30.31684,34.32705 31.84754,33.10784 36.21415,38.5981 		"/>
		
			<linearGradient id="SVGID_00000005964480645742352740000004312604607414015661_" gradientUnits="userSpaceOnUse" x1="-11.89888" y1="39.21638" x2="62.00158" y2="39.21638" gradientTransform="matrix(1 0 0 -1 0 51.2126)">
			<stop  offset="0" style="stop-color:#8899A4"/>
			<stop  offset="1" style="stop-color:#B5B5B5"/>
		</linearGradient>
		
			<rect x="24.07556" y="7.98028" style="fill:url(#SVGID_00000005964480645742352740000004312604607414015661_);" width="1.95685" height="8.03188"/>
		
			<linearGradient id="SVGID_00000037694175022746726790000005509440944577348761_" gradientUnits="userSpaceOnUse" x1="-11.89888" y1="26.21403" x2="62.00158" y2="26.21403" gradientTransform="matrix(1 0 0 -1 0 51.2126)">
			<stop  offset="0" style="stop-color:#8899A4"/>
			<stop  offset="1" style="stop-color:#B5B5B5"/>
		</linearGradient>
		<path style="fill:url(#SVGID_00000037694175022746726790000005509440944577348761_);" d="M25.00048,49.99714
			C11.21558,49.99714,0,38.78347,0,24.99952C0,11.21367,11.21558,0,25.00048,0S50,11.21367,50,24.99952
			C50,38.78347,38.78538,49.99714,25.00048,49.99714z M25.00048,2.34669c-12.4902,0-22.65187,10.16263-22.65187,22.65283
			s10.16167,22.65092,22.65187,22.65092S47.6514,37.48973,47.6514,24.99952S37.49068,2.34669,25.00048,2.34669z"/>
		
			<linearGradient id="SVGID_00000160882274328697057130000001500325015360192398_" gradientUnits="userSpaceOnUse" x1="-11.89888" y1="25.86337" x2="62.00158" y2="25.86337" gradientTransform="matrix(1 0 0 -1 0 51.2126)">
			<stop  offset="0" style="stop-color:#8899A4"/>
			<stop  offset="1" style="stop-color:#B5B5B5"/>
		</linearGradient>
		<path style="fill:url(#SVGID_00000160882274328697057130000001500325015360192398_);" d="M20.64247,35.5711
			c-1.48101,0-2.78431-0.94785-3.2439-2.35625l-2.74035-8.42363c-0.45673-1.41031,0.04109-2.94483,1.23927-3.81433l7.16238-5.19788
			c0.58572-0.42615,1.27845-0.65165,2.00271-0.65165s1.417,0.2255,2.00176,0.64974l7.16238,5.19979
			c1.20105,0.87523,1.69982,2.40784,1.24214,3.81433l-2.74226,8.42554c-0.46055,1.4084-1.76289,2.35434-3.24103,2.35434H20.64247z
			 M25.06258,16.98867c-0.3306,0-0.644,0.10128-0.90867,0.29429l-7.16429,5.19979c-0.54177,0.39366-0.76917,1.08735-0.56565,1.72753
			l2.74322,8.42936c0.2083,0.64018,0.80166,1.07015,1.47528,1.07015h8.845c0.67171,0,1.26316-0.42997,1.47146-1.07015
			l2.74131-8.42554c0.20926-0.63827-0.0172-1.33578-0.56374-1.73326l-7.16142-5.19788
			C25.70945,17.08995,25.39414,16.98867,25.06258,16.98867z"/>
	</g>
</g>
</svg>
