<svg width="32" height="32" viewBox="0 0 32 32" fill="none" xmlns="http://www.w3.org/2000/svg">
<g clip-path="url(#clip0_64_6808)">
<path d="M16.0007 0C7.16468 0 0 7.16328 0 16C0 24.8367 7.16398 32 16.0007 32C24.8381 32 32.0014 24.8367 32.0014 16C32.0014 7.16328 24.8381 0 16.0007 0ZM16.0007 4.78419C18.9245 4.78419 21.2937 7.15414 21.2937 10.0765C21.2937 12.9996 18.9245 15.3689 16.0007 15.3689C13.0783 15.3689 10.7091 12.9996 10.7091 10.0765C10.7091 7.15414 13.0783 4.78419 16.0007 4.78419ZM15.9972 27.8167C13.0811 27.8167 10.4104 26.7548 8.35036 24.997C7.84854 24.5689 7.55897 23.9413 7.55897 23.2828C7.55897 20.3189 9.95774 17.9468 12.9223 17.9468H19.0805C22.0458 17.9468 24.4354 20.3189 24.4354 23.2828C24.4354 23.942 24.1472 24.5682 23.6447 24.9963C21.5854 26.7548 18.9139 27.8167 15.9972 27.8167Z" fill="#222939"/>
</g>
<defs>
<clipPath id="clip0_64_6808">
<rect width="32" height="32" fill="white"/>
</clipPath>
</defs>
</svg>
