<?xml version="1.0" encoding="utf-8"?>
<!-- Generator: Adobe Illustrator 27.0.0, SVG Export Plug-In . SVG Version: 6.00 Build 0)  -->
<svg version="1.1" id="Layer_1" xmlns="http://www.w3.org/2000/svg" xmlns:xlink="http://www.w3.org/1999/xlink" x="0px" y="0px"
	 viewBox="0 0 1136.8 1178" style="enable-background:new 0 0 1136.8 1178;" xml:space="preserve">
<path d="M812.7,568c0.1,3,0,6,0.2,9c2.4,28-2.8,54.8-12.8,80.7c-6.3,16.3-13.8,32.1-20.7,48.1c-5.2,11.9-10.6,23.7-15.6,35.7
	c-6.1,14.6-9.7,29.9-11.8,48.8c-2.4-5.6-3.8-8.1-4.6-10.9c-6.9-24.6-9.6-50.1-7.9-75.6c1-15.4,1.5-30.8,0.2-46.6
	c-0.7,2.3-1.5,4.5-2,6.8c-10.1,45.5-30.9,85.2-63.9,118.3c-3.3,3.3-6.3,7.6-12.8,8.6c6.7-23.6,10.2-48,10.3-72.6
	c-1.7,3.3-2.4,4.5-2.9,5.7c-0.7,1.9-1.3,3.8-1.7,5.7c-7.2,40.9-25.9,76.3-51.9,108.2c-13.3,16.3-28.3,30.9-44.2,44.6
	c-1.1,0.9-2.5,1.4-4.6,2.5c4.9-15.8,10-30.7,14.2-45.8c4.4-15.9,7.1-32.2,8.1-48.7c0.9-15.8,0.9-31.5-1.6-47.2
	c-2.4,102.6-42.1,184.4-132.9,240.4c-1.3,13.5,1.8,28,7.8,41.8c3.8,8.6,9,16.7,14.2,24.5c5.8,8.7,12.5,16.8,18.6,25.3
	c2.7,3.6,5,7.4,7.2,11.4c4.9,9.2,6.5,18.8,1.4,28.9c-4.2-5.7-7.7-11.7-12.4-16.5s-10.9-8.8-16.3-13.2c-4.6-3.7-9-7.6-14.7-12.5
	c-1.1,6.1-2.1,10.8-2.7,15.5c-3.3,28.1-19.3,45.2-45.8,53.1c-14.4,4.3-29.3,5.7-44.4,6.5c-11.5,0.6-22.9,1.5-34.3,2.4
	c-15.1,1.1-29.5,4.8-42.9,11.9c-2.8-2.8-0.4-4.7,0.9-6.5c7.8-10.9,18.5-18,31.1-22.4c14.2-5,29.2-6.4,43.9-9
	c8.8-1.5,17.5-3.7,26.2-5.9c2.1-0.5,3.9-2.2,5.7-3.3c-1.4-3.6-3.7-2.5-5.3-2.4c-15,1.5-29.9-0.4-44.8-1.8
	c-13.4-1.2-26.9-1.7-40.3-1.9c-4.8-0.1-9.7,1.5-14.8,2.3c-2-2.9,0.7-4.3,2.2-5.7c7.1-6.4,16.1-10.4,25.6-11.3
	c11.4-1.2,22.9-1.5,34.3-2.4c10.4-0.8,21-1,31.2-2.9c22.3-4.2,30-18.4,31.5-36.4c0.8-10.5,0.6-21-0.7-31.4
	c-1.4-11.9-4.8-23.5-6.7-35.3c-1.5-9.1-6-14.6-14.4-19.2c-35.1-19.1-62.3-46.6-81.4-81.6c-7.6-13.9-13-29-20.2-45.5
	c-3.6-1.4-9-3.7-14.6-5.7c-48-17.4-91.2-42.8-128.2-78.2c-36.4-34.9-63.5-75.7-77.8-124.3C55.3,571.3,59.7,511.5,84,453.3
	c7.7-18.4,17.2-36,26.3-53.8c7.3-14.2,15.3-28.1,22.8-42.2c5.2-9.7,8.6-20.3,10.2-31.2c1.6-10.7-0.4-20.8-3.7-30.9
	c-0.4-1.2-1.5-2.2-2.2-3.1c0.5,8.4,1.5,16.8,1.3,25.1c-0.2,6-1.3,11.9-3.2,17.6c-6.3,19.1-22.2,30-42.1,29.6
	c-20.3-0.3-36.2-12.8-42.1-32.2c-3.9-13-2.2-25.7,1.5-38.3c1.9-6.7,4.6-13.2,6.6-19.9c2.7-8.6,4.8-17.3,4.2-26.5
	c-1.1-17.6-10.8-29-28.1-31.8c-5.9-0.8-11.9-0.9-17.8-0.3c-5.9,0.5-11.7,2.2-17.7,3.4c7.4-16,20-26.3,57.2-46.5
	c-2.5-3.1-5-6.1-7.3-9.2c-11.5-15.7-13.7-33-7.9-51.2c4.5-14,11.6-17.8,26-15.8c13,1.8,15.6-0.1,17.9-13.3c0.7-3.9,0.9-8,1.8-11.8
	c2.5-10.7,8.8-13.5,18.9-8.1c2.6,1.4,5.1,3.2,7.6,4.7c2.1,1.4,4.2,2.7,6.4,3.8c11.9,5.5,20.8,1.2,23.4-11.7
	c2.1-10.4,1.2-20.9-0.2-31.3c-0.4-3-1.2-5.9-1.2-8.8c0.1-1.4,0.9-2.7,2.1-3.5c1.3-0.6,2.8-0.6,4.1,0c3.5,2.8,7.3,5.5,9.8,9
	c5.8,8.1,10.9,16.7,16.5,25c2.9,4.6,6.2,9,9.8,13.1c2.8,3,7.5,3.1,10.4,0.3c0.1-0.1,0.3-0.2,0.4-0.4c3.3-3.7,6.2-7.8,8.6-12.1
	c4.8-8.7,8.8-18,14-26.5c4.4-7.2,9.7-13.8,15-20.5c2.1-2.7,5.1-4.9,9.3-3.6c2.9,4.8,0.9,9.5-0.5,14.2c-1.9,6.7-4.7,13.2-5.9,20.1
	c-1.4,8.8-2.3,17.8-2.6,26.7c-0.2,4.9-0.2,10.8,5.1,13.2c4.6,2.1,8.5-1.7,12.1-4.2c3.3-2.3,6.3-4.9,9.5-7.3
	c11.7-8.8,24.4-15.7,38.8-18.7c6.7-1.4,13.8-1.2,20.7-1.1c3,0,4.8,4.5,2.9,7c-2.1,2.8-4.4,5.4-6.9,7.8c-4.5,4.7-9.3,9.1-13.5,14
	c-2.9,3.4-5.4,7.2-7.3,11.3c-3.8,8.4-1.2,14.7,7.2,18.1c3.7,1.5,7.8,2.1,11.3,3.8c6.7,3.3,13.8,6.2,19.5,10.8
	c20.5,16.5,21,45,1.7,63c-11.5,10.7-25.6,15.3-40.9,16.3c-17.2,1.1-33.8-2.2-49.9-8.2c-12.6-4.6-25-10-37.7-14.7
	c-5.5-2-10.9-5.3-17.3-3.3c-0.3-0.8-0.6-1.6-0.9-2.3c-0.1-0.2-0.7,0-1.1,0l2.4,1.9c6,3.6,12.1,6.9,17.9,10.8
	c17.4,11.5,30.7,26.9,41.8,44.4c13,20.3,22.7,42.2,30.6,64.9c8.2,23.5,15.3,47.5,23.5,71.1c6.6,18.8,13.3,37.7,21.6,55.8
	c14.6,32.4,36.2,59.6,65.1,80.8c16.7,12.2,34.5,22.3,54.8,26.7c9.3,2,18.7,3,28.2,2.9c23.7-0.3,42-11.4,55.2-30.9
	c9.7-14.3,15-30.3,18-47.2c3.9-22.1,7.4-44.3,11.8-66.3c7.9-39.8,19.4-78.5,38.2-114.7c24.5-47.1,58.3-85.8,103.8-113.5
	c49.7-30.2,103.7-43.2,161.8-39.6c56.9,3.5,108.2,22.2,153.4,57c44.4,34.2,74.7,78.6,92.9,131.5c16.4,47.6,20.3,96.5,14.4,146.3
	c-4.2,35.9-13.4,70.6-23.4,105.1c-10.9,37.4-22.3,74.6-30,112.8c-6.4,31.5-9.7,63.2-8.1,95.3c1.8,37.2,11.9,71.7,32.9,102.8
	c1.1,1.7,2.1,3.4,2.9,5.2c0.2,0.4,0,0.9,0,1.5c-2.8,2.2-4.6-0.5-6.3-1.7c-29.2-20.3-49.2-47.8-62.1-80.7
	c-9.7-24.8-14.8-50.7-17.6-77.2c-4.6-44-2.2-87.8,1.8-131.7c3-32.8,6.3-65.6,8.5-98.5c2.3-33.6-0.4-66.9-10.6-99.3
	c-1.6-5.2-3.6-10.3-6-15.3c-0.5-1.1-3.3-1.1-4.9-1.7c0.7-0.7,1.2-1.6,1.6-2.5c0.1-0.5-0.8-1.2-1.2-1.9c0,0.5,0,1,0,1.4
	c-0.1,1-0.1,1.9-0.2,2.9c5.1,9.4,5.9,20,7.5,30.3c4.7,28.9,3,57.7-1.3,86.5c-5.8,39.1-16.7,77-26.9,115.1
	c-9.1,34.2-18,68.5-23.8,103.5c-5.6,33-7.1,66.6-4.4,100c0.4,5,1.6,9.9,2.1,14.8c0.4,3.8,0.5,7.5,0.8,11.5c-5.3-0.1-6.3-3.9-8.1-6.6
	c-10.9-17-17.4-35.8-21.9-55.4c-5.7-24.4-7.6-49.3-8.2-74.3c-0.5-19.9,0.1-39.9,0.8-59.9c1.2-34.9,2.9-69.9,1.2-104.8
	c-0.7-18-3.6-35.8-8.7-53c-1-3.5-2.8-6.7-5.2-9.3c0.2,2.5,0.3,5,0.7,7.5c5.2,31.5,3.3,62.7-3.1,93.8c-6.4,31.4-17,61.5-27.2,91.8
	c-8.1,24.1-15.8,48.4-23.1,72.7c-5.3,17.7-8.4,36-9.3,54.5c-0.2,3.8,0.2,7.8-2.8,12.8c-2-4.3-3.7-7.2-4.8-10.3
	c-5.3-15.1-8.4-30.9-9.3-46.9c-1-20.9-1.4-41.9-1.9-62.9c-0.5-22-0.1-44-1.3-65.9c-0.7-12.9-3.8-25.6-6.1-38.3
	c-0.3-1.5-2.3-2.7-3.5-4.1c-0.3-0.9-0.6-1.7-0.9-2.5L812.7,568z"/>
<path d="M291.9,846.5c5.3,13.2,10.2,25.1,15.3,37.8l-6.7,5.3c-5.5,4.3-11.4,8.2-16.2,13.1c-3.4,3.6-6.1,7.8-7.9,12.5
	c-4.2,10.9,0.1,21.2,10.6,26.3c4.4,2.2,9.3,3.3,15,5.3c-17.2,8-31.3,1.3-45.7-7c-2.2,6.7-1.4,12.7,0,18.2c1.9,8.2,4.5,16.3,7.6,24.2
	c5.8,14.3,14.1,26.5,29.4,31.7c0,3.4-2.4,3.2-4.2,3.4c-17.6,2.4-31.1-4.7-42-18c-8-9.8-12.9-21.3-17.1-33.1c-1.3-3.6-2.8-7-4.4-11.1
	c-1.3,1.5-2.2,2.1-2.3,2.8c-3.6,20.1-7.1,40.3-10.5,60.4c-1.3,7.4-2.7,14.7-3.7,22.1c-1.7,11.9,0,22.9,9.6,32.5
	c-10.5,1.4-17.3-2.9-21.5-10.8c-2.5-4.9-4-10.2-4.3-15.7c-0.5-9.5-0.2-19,1-28.4c2.8-20.3,5.6-40.7,4.2-61.2
	c-1.9-27.2,9-46.9,31.7-61.7c20.4-13.5,39.6-28.8,57.4-45.6C288,848.7,289.4,848.1,291.9,846.5z"/>
<path d="M812.7,568l-1.2-2.2c0.3,0.8,0.6,1.7,0.9,2.5L812.7,568z"/>
<path d="M189.7,169l-2.4-1.9c0.4,0,1-0.2,1.1,0c0.4,0.8,0.7,1.5,0.9,2.3L189.7,169z"/>
<path d="M1000,365.3c0.1-1,0.1-1.9,0.2-2.9c0-0.5,0-1,0-1.4c0.4,0.6,1.3,1.3,1.2,1.9c-0.4,0.9-0.9,1.8-1.6,2.5L1000,365.3z"/>
</svg>
