<svg width="800" height="800" viewBox="0 0 800 800" fill="none" xmlns="http://www.w3.org/2000/svg">
<path d="M99.9674 100L699.967 700M328.11 330.455C310.689 348.453 299.967 372.973 299.967 400C299.967 455.23 344.74 500 399.967 500C427.383 500 452.223 488.967 470.287 471.1M216.634 221.572C153.324 263.345 105.102 326.131 81.901 400C124.376 535.237 250.72 633.333 399.973 633.333C466.27 633.333 528.047 613.98 579.96 580.613M366.633 168.313C377.6 167.224 388.723 166.667 399.973 166.667C549.23 166.667 675.573 264.764 718.047 400C708.69 429.8 695.257 457.793 678.407 483.333" stroke="black" stroke-width="66.6667" stroke-linecap="round" stroke-linejoin="round"/>
</svg>
