<svg xmlns="http://www.w3.org/2000/svg" viewBox="0 0 118.83 118.48" class="h339g4c0hn5idfd2sie7" ><defs><style>.h339g4c0hn5idfd2sie7 .cls-1{fill:#fff;} .h339g4c0hn5idfd2sie7 .cls-2{fill:#f15a29;} </style></defs><g id="Layer_2" data-name="Layer 2"><g id="Layer_4" data-name="Layer 4"><path class="cls-1" d="M65.42,59.79a48.1,48.1,0,0,0-7.64.89c-5.89,1-22.09-3.28-22.09-3.28L26.52,74.18l-.13,9.5a13.21,13.21,0,0,0,3.47,2.46c2.61,1.44,6.7,9.21,6.7,9.21l-2.31,2.86s-5.62-1.41-11.44-9c-4.17-5.47,0-40.61,0-40.61L44.42,23.84l15,2,6,26.49Z"/><path class="cls-1" d="M85.93,38.68a3.62,3.62,0,1,1-7.23,0,3.72,3.72,0,0,1,3.69-3.73A3.68,3.68,0,0,1,85.93,38.68Z"/><path class="cls-2" d="M57.78,60.68c-2,.31-4,.51-5.89,1-4.16,1-8.38,1.78-12.42,3.13-8.41,2.8-14,11.92-13,22a25.64,25.64,0,0,0,.86,4.34c.39,1.42,1,2.78,1.54,4.28-.3-.21-.55-.35-.77-.54-6.55-5.46-10.19-12.63-11.94-20.9a48.05,48.05,0,0,1,3.87-31.56c.11-.22.18-.45.3-.66a9.09,9.09,0,0,0,.1-9.36c-.8-1.45-.68-1.54.76-2.38a35.45,35.45,0,0,1,12.94-4.14,5.75,5.75,0,0,0,2-.67c11.41-6.53,23.53-9.44,36.44-6.22,12.36,3.09,22.06,10.41,29.25,21a19.81,19.81,0,0,1,2.53,6.13c.26,1-.39,2.36-.79,3.49-.11.29-.83.48-1.28.5-3,.1-5.93.13-8.9.21a5.44,5.44,0,0,0-1.09.23l-.09.42L99,53.85c-1.51.69-2.87,1.39-4.28,1.94a45,45,0,0,1-13.66,2.88c-5.21.32-10.42.79-15.64,1.12a2,2,0,0,1-1.36-.67,28.51,28.51,0,0,1-6.25-13,41.24,41.24,0,0,1-.36-14.57c0-.37-.27-.8-.42-1.2-.34.3-.87.55-1,.92A41.56,41.56,0,0,0,54.3,48.79a34.6,34.6,0,0,0,3.31,11.34A5.57,5.57,0,0,1,57.78,60.68Zm28.15-22a3.68,3.68,0,0,0-3.54-3.75,3.74,3.74,0,0,0,0,7.47A3.67,3.67,0,0,0,85.93,38.68Z"/><path class="cls-2" d="M105.45,62.13,101,70.08c-.14,0-.24,0-.29,0-1.54-1.35-2.84-.75-4,.55a36.31,36.31,0,0,0-3.77,4.28A6.27,6.27,0,0,0,94,83.31c1.55,1.48,3.47,1.49,5.37,1a10,10,0,0,0,6.6-5.48c2-3.83,3.75-7.77,5.6-11.67.16-.32.29-.66.46-1a1.67,1.67,0,0,0-.07-2,3.56,3.56,0,0,1,1.45-5.28c1.27-.48,1.3-1.21,1.22-2.25-1.5-20.93-11.11-36.93-29.23-47.11C52.15-9.14,10.5,11.05,3.5,48.93-2.13,79.36,17.8,109,47.87,114.77a68.87,68.87,0,0,0,11.21,1.08c6.22.17,12.45.05,18.67.05h1c.87,0,1.66.18,1.64,1.26s-.8,1.23-1.67,1.23c-7.22,0-14.44.25-21.64-.07-21.75-1-38.5-11-49.3-30C-11.92,53.65,7.68,9.83,46.28,1.35c32-7,63.65,14.17,69.75,46.75.61,3.25.72,6.6,1.11,9.9a3.13,3.13,0,0,0,.64,1.55A3.85,3.85,0,0,1,115.67,66a2.15,2.15,0,0,0-1.24,1c-1.87,3.88-3.67,7.81-5.52,11.7A15,15,0,0,1,102.14,86a9.61,9.61,0,0,1-6.24,1C91,86,88,80.36,89.81,75.39a15.52,15.52,0,0,1,4.41-6C97.49,66.42,101.32,64.37,105.45,62.13Z"/><path class="cls-2" d="M81.16,105.78c-6.27-3.81-12.9-4-19.59-3.86-3.56.08-7.13.43-10.68.28a44.72,44.72,0,0,1-16.64-4,3.84,3.84,0,0,1-1.59-1.48,20.27,20.27,0,0,1-2.79-8.35c-.07-.7,0-1.41,0-2.24a6.83,6.83,0,0,1,.69.31c10.62,6.46,20.8,5.35,30.58-1.87A49.71,49.71,0,0,0,73.06,71.64c.15-.23.32-.46.55-.79A13.31,13.31,0,0,1,78,78.36a15.12,15.12,0,0,1-.82,8.6,1.84,1.84,0,0,0,.47,2.27c3,3.29,5,7,4.61,11.68A36.68,36.68,0,0,1,81.16,105.78Z"/></g></g></svg>