<svg width="12" height="12" viewBox="0 0 12 12" fill="none" xmlns="http://www.w3.org/2000/svg">
    <g clip-path="url(#a)">
        <path fill-rule="evenodd" clip-rule="evenodd" d="M1.789 2.715.545 1.455 1.241.75l9.666 9.798-.696.702-1.59-1.614-.231-.235a6.32 6.32 0 0 1-2.391.467C3.272 9.868.943 8.15 0 5.724a6.539 6.539 0 0 1 2.037-2.758l-.248-.251zm2.615 2.647-.843-.854c-.18.37-.289.78-.289 1.216 0 1.525 1.222 2.763 2.727 2.763.43 0 .834-.11 1.197-.293l-.843-.854A1.66 1.66 0 0 1 6 7.382a1.648 1.648 0 0 1-1.595-2.02zM5.999 2.96c1.505 0 2.726 1.237 2.726 2.763 0 .356-.07.696-.193 1.008l1.595 1.617A6.56 6.56 0 0 0 12 5.724c-.946-2.426-3.272-4.145-6.001-4.145-.764 0-1.495.138-2.173.387l1.177 1.19c.309-.12.644-.195.996-.195zm-.09 1.113 1.717 1.74.009-.09c0-.915-.734-1.658-1.636-1.658l-.09.008z" fill="#D3D4D7"/>
    </g>
    <defs>
        <clipPath id="a">
            <path fill="#fff" d="M0 0h12v12H0z"/>
        </clipPath>
    </defs>
</svg>
