<svg xmlns="http://www.w3.org/2000/svg" height="48" viewBox="0 -960 960 960" width="48"><path d="M142.804-182.804v-77.305h77.848v-298.543q0-88.883 51.5-160.377 51.5-71.493 138.935-91.732v-17.761q0-27.73 20.104-48.441 20.105-20.711 48.826-20.711 28.72 0 48.808 20.711t20.088 48.441v17.761Q636.109-791 688.348-719.596q52.239 71.404 52.239 160.944v298.543h77.848v77.305H142.804Zm337.957-317.479Zm-.677 443.957q-35.836 0-61.08-25.403-25.243-25.403-25.243-61.075h172.717q0 36.239-25.434 61.358-25.434 25.12-60.96 25.12ZM297.957-260.109h365.086V-558.55q0-75.624-53.72-129.004-53.721-53.381-129.403-53.381-75.681 0-128.822 53.409-53.141 53.409-53.141 128.874v298.543Z"/></svg>