<svg xmlns="http://www.w3.org/2000/svg" height="48" viewBox="0 -960 960 960" width="48"><path d="M140.109-143.326q-30.746 0-54.025-23.447-23.28-23.447-23.28-53.857v-518.74q0-30.509 23.28-54.026 23.279-23.517 54.025-23.517h679.782q30.845 0 54.194 23.517 23.35 23.517 23.35 54.026v518.74q0 30.41-23.35 53.857-23.349 23.447-54.194 23.447H140.109ZM480-446.696 140.109-668.935v448.305h679.782v-448.305L480-446.696Zm0-73.152L818.696-739.37H142.304L480-519.848ZM137.304-668.935v-70.435 518.74H140.109h-2.805v-448.305Z"/></svg>