<?xml version="1.0" encoding="utf-8"?>
<!-- Generator: Adobe Illustrator 27.0.0, SVG Export Plug-In . SVG Version: 6.00 Build 0)  -->
<svg version="1.1" id="Layer_1" xmlns="http://www.w3.org/2000/svg" xmlns:xlink="http://www.w3.org/1999/xlink" x="0px" y="0px"
	 viewBox="0 0 960 960" style="enable-background:new 0 0 960 960;" xml:space="preserve">
<style type="text/css">
	.st0{fill:#FFFFFF;}
	.st1{display:none;fill:#FFFFFF;}
</style>
<path class="st0" d="M442.9,839.5v-60h306.9V475.8c0-38.6-7.5-75.8-22.6-111.4s-35.2-67.1-60.5-94.4c-25.3-27.3-54.1-49.1-86.6-65.5
	S513.9,180,479,180s-68.6,8.2-101.1,24.5s-61.4,38.1-86.6,65.5c-25.3,27.3-45.4,58.8-60.5,94.4s-22.6,72.8-22.6,111.4v243.8h-18.1
	c-19.9,0-36.9-7.8-51-23.5S118,661.6,118,639.6v-79.9c0-15.3,3.3-28.8,9.9-40.5c6.6-11.7,15.3-21.2,26.2-28.5l2.7-53
	c5.4-48.6,17.9-92.6,37.5-131.9s43.9-72.6,73.1-99.9c29.2-27.3,62-48.5,98.4-63.5c36.4-15,74.2-22.5,113.3-22.5
	c39.7,0,77.8,7.5,114.2,22.5c36.4,15,69,36.3,97.9,64s53.1,61,72.7,99.9c19.6,39,32,82.4,37.5,130.4l2.7,52
	c10.8,6,19.6,14.8,26.2,26.5c6.6,11.7,9.9,24.5,9.9,38.5v91.9c0,14.7-3.3,27.6-9.9,39c-6.6,11.3-15.3,20-26.2,26v69
	c0,16.5-5.3,30.6-15.9,42.3c-10.6,11.7-23.4,17.6-38.2,17.6H442.9z M370.7,549.7c-7.2,0-13.5-3-19-9s-8.1-13.2-8.1-21.5
	s2.7-15.3,8.1-21s11.9-8.5,19.4-8.5s13.8,2.9,19,8.6c5.1,5.7,7.7,12.9,7.7,21.4c0,8-2.6,15-7.8,21S378.4,549.7,370.7,549.7z
	 M587.3,549.7c-7.2,0-13.5-3-19-9c-5.4-6-8.1-13.2-8.1-21.5s2.7-15.3,8.1-21c5.4-5.7,11.9-8.5,19.4-8.5c7.5,0,13.8,2.9,19,8.6
	s7.7,12.9,7.7,21.4c0,8-2.6,15-7.8,21S595,549.7,587.3,549.7z M263.3,497.7c-2.4-39.3,2.6-74.9,14.9-106.9
	c12.3-32,28.9-59.1,49.6-81.4c20.8-22.3,44.7-39.5,71.7-51.5c27.1-12,54.2-18,81.2-18c54.8,0,100.8,19.2,138.1,57.5
	c37.3,38.3,60.2,86.1,68.6,143.4c-56.6-0.7-106.3-17.5-149.4-50.5s-76.3-75.8-99.7-128.4c-9.6,54-29.9,101.8-60.9,143.4
	S308.4,477.8,263.3,497.7z"/>
<path class="st1" d="M463.4,309L222.9,552.1v262.3c0,14.1,9.3,25.6,20.9,25.6l146.2-0.5c11.5-0.1,20.8-11.5,20.8-25.6V660.7
	c0-14.1,9.3-25.6,20.9-25.6H515c11.5,0,20.9,11.5,20.9,25.6v153.1c0,14.1,9.3,25.6,20.8,25.7c0,0,0,0,0.1,0l146.1,0.5
	c11.5,0,20.9-11.5,20.9-25.6V551.9L483.3,309C477.5,303.2,469.2,303.2,463.4,309L463.4,309z M843.2,474.2l-109-110.3V142.2
	c0-10.6-7-19.2-15.7-19.2h-73c-8.6,0-15.7,8.6-15.7,19.2v116.2L513.1,140.5c-23.1-23.3-56.5-23.3-79.6,0L103.3,474.2
	c-6.7,6.8-7.6,18.9-2.1,27c0,0,0,0,0,0l33.3,49.6c5.5,8.2,15.4,9.4,22,2.6c0,0,0,0,0,0l306.8-310.1c5.8-5.8,14.1-5.8,20,0
	l306.8,310.1c6.7,6.8,16.5,5.6,22-2.6c0,0,0,0,0,0l33.3-49.6C850.9,493.1,850,481,843.2,474.2C843.3,474.3,843.2,474.2,843.2,474.2
	L843.2,474.2z"/>
</svg>
