<svg width="21" height="20" viewBox="0 0 21 20" fill="none" xmlns="http://www.w3.org/2000/svg">
    <g clip-path="url(#a)">
        <path fill-rule="evenodd" clip-rule="evenodd" d="M18 1.25H3a2.507 2.507 0 0 0-2.5 2.5v10c0 1.374 1.125 2.5 2.5 2.5h9.166v-.626h-.208c-.792 0-1.5-.4-1.908-1.041H3a.836.836 0 0 1-.833-.833v-1.667H6.54A2.293 2.293 0 0 0 8.833 9.79V7.708a2.293 2.293 0 0 0-2.292-2.291H2.167V3.75c0-.458.375-.833.833-.833h15c.458 0 .833.375.833.833v5.308l1.666 1.667V3.75c0-1.375-1.125-2.5-2.5-2.5zm-1.042 17.5h-2.083a1.043 1.043 0 0 1-1.042-1.042v-3.75h-1.875a.626.626 0 0 1-.442-1.067l3.959-3.958a.625.625 0 0 1 .884 0l3.958 3.958a.625.625 0 0 1-.442 1.067H18v3.75c0 .574-.467 1.041-1.041 1.041zm-13.125-10a1.666 1.666 0 1 0 3.332 0 1.666 1.666 0 0 0-3.332 0z" fill="#CAAB72"/>
    </g>
    <defs>
        <clipPath id="a">
            <path fill="#fff" transform="translate(.5)" d="M0 0h20v20H0z"/>
        </clipPath>
    </defs>
</svg>
