<svg xmlns="http://www.w3.org/2000/svg" height="48" viewBox="0 -960 960 960" width="48"><path d="M375.522-339.63 660.37-521.196 375.522-703v363.37Zm-58.565 236.826v-82.805H142.152q-30.745 0-54.025-23.279-23.28-23.279-23.28-54.025v-516.978q0-30.845 23.28-54.194 23.28-23.35 54.025-23.35h675.696q30.844 0 54.194 23.35 23.349 23.349 23.349 54.194v516.978q0 30.746-23.349 54.025-23.35 23.279-54.194 23.279H643.283v82.805H316.957ZM142.152-262.913h675.696v-516.978H142.152v516.978Zm0 0v-516.978 516.978Z"/></svg>