<?xml version="1.0" encoding="utf-8"?>
<!-- Generator: Adobe Illustrator 27.0.0, SVG Export Plug-In . SVG Version: 6.00 Build 0)  -->
<svg version="1.1" id="Layer_1" xmlns="http://www.w3.org/2000/svg" xmlns:xlink="http://www.w3.org/1999/xlink" x="0px" y="0px"
	 viewBox="0 0 751.4 717" style="enable-background:new 0 0 751.4 717;" xml:space="preserve">
<style type="text/css">
	.st0{display:none;fill:#FFFFFF;}
	.st1{fill:#FFFFFF;}
</style>
<path class="st0" d="M345.3,716.5v-60h306.9V352.8c0-38.6-7.5-75.8-22.6-111.4s-35.2-67.1-60.5-94.4S515,97.9,482.5,81.5
	C450,65.1,416.3,57,381.4,57s-68.6,8.2-101.1,24.5s-61.4,38.1-86.6,65.5c-25.3,27.3-45.4,58.8-60.5,94.4s-22.6,72.8-22.6,111.4
	v243.8H92.5c-19.9,0-36.9-7.8-51-23.5s-21.1-34.5-21.1-56.5v-79.9c0-15.3,3.3-28.8,9.9-40.5s15.3-21.2,26.2-28.5l2.7-53
	c5.4-48.6,17.9-92.6,37.5-131.9s43.9-72.6,73.1-99.9s62-48.5,98.4-63.5S342.4-3.1,381.5-3.1c39.7,0,77.8,7.5,114.2,22.5
	s69,36.3,97.9,64s53.1,61,72.7,99.9c19.6,39,32,82.4,37.5,130.4l2.7,52c10.8,6,19.6,14.8,26.2,26.5c6.6,11.7,9.9,24.5,9.9,38.5v91.9
	c0,14.7-3.3,27.6-9.9,39c-6.6,11.3-15.3,20-26.2,26v69c0,16.5-5.3,30.6-15.9,42.3c-10.6,11.7-23.4,17.6-38.2,17.6L345.3,716.5
	L345.3,716.5z M273.1,426.7c-7.2,0-13.5-3-19-9c-5.5-6-8.1-13.2-8.1-21.5s2.7-15.3,8.1-21c5.4-5.7,11.9-8.5,19.4-8.5
	s13.8,2.9,19,8.6c5.1,5.7,7.7,12.9,7.7,21.4c0,8-2.6,15-7.8,21S280.8,426.7,273.1,426.7z M489.7,426.7c-7.2,0-13.5-3-19-9
	c-5.4-6-8.1-13.2-8.1-21.5s2.7-15.3,8.1-21s11.9-8.5,19.4-8.5s13.8,2.9,19,8.6s7.7,12.9,7.7,21.4c0,8-2.6,15-7.8,21
	S497.4,426.7,489.7,426.7z M165.7,374.7c-2.4-39.3,2.6-74.9,14.9-106.9s28.9-59.1,49.6-81.4c20.8-22.3,44.7-39.5,71.7-51.5
	c27.1-12,54.2-18,81.2-18c54.8,0,100.8,19.2,138.1,57.5s60.2,86.1,68.6,143.4c-56.6-0.7-106.3-17.5-149.4-50.5
	s-76.3-75.8-99.7-128.4c-9.6,54-29.9,101.8-60.9,143.4S210.8,354.8,165.7,374.7z"/>
<path class="st1" d="M365.8,186L125.3,429.1v262.3c0,14.1,9.3,25.6,20.9,25.6l146.2-0.5c11.5-0.1,20.8-11.5,20.8-25.6V537.7
	c0-14.1,9.3-25.6,20.9-25.6h83.3c11.5,0,20.9,11.5,20.9,25.6v153.1c0,14.1,9.3,25.6,20.8,25.7c0,0,0,0,0.1,0l146.1,0.5
	c11.5,0,20.9-11.5,20.9-25.6V428.9L385.7,186C379.9,180.2,371.6,180.2,365.8,186L365.8,186z M745.6,351.2l-109-110.3V19.2
	c0-10.6-7-19.2-15.7-19.2h-73c-8.6,0-15.7,8.6-15.7,19.2v116.2L415.5,17.5c-23.1-23.3-56.5-23.3-79.6,0L5.7,351.2
	c-6.7,6.8-7.6,18.9-2.1,27l0,0l33.3,49.6c5.5,8.2,15.4,9.4,22,2.6l0,0l306.8-310.1c5.8-5.8,14.1-5.8,20,0l306.8,310.1
	c6.7,6.8,16.5,5.6,22-2.6l0,0l33.3-49.6C753.3,370.1,752.4,358,745.6,351.2C745.7,351.3,745.6,351.2,745.6,351.2L745.6,351.2z"/>
</svg>
