<svg xmlns="http://www.w3.org/2000/svg" height="48" viewBox="0 -960 960 960" width="48"><path d="M791.63-441.848H323.109v-77.304H791.63l-84.913-85.152 55.109-55.392 178.696 178.935-178.696 178.696-55.109-54.631 84.913-85.152ZM546.891-579.152v-200.739H180.109v599.782h366.782v-201.739h77.304v201.739q0 32.436-23.059 54.87-23.06 22.435-54.245 22.435H180.109q-32.436 0-54.87-22.435-22.435-22.434-22.435-54.87v-599.782q0-32.535 22.435-55.039 22.434-22.505 54.87-22.505h366.782q31.185 0 54.245 22.505 23.059 22.504 23.059 55.039v200.739h-77.304Z"/></svg>