<?xml version="1.0" encoding="utf-8"?>
<!-- Generator: Adobe Illustrator 27.0.0, SVG Export Plug-In . SVG Version: 6.00 Build 0)  -->
<svg version="1.1" id="Layer_1" xmlns="http://www.w3.org/2000/svg" xmlns:xlink="http://www.w3.org/1999/xlink" x="0px" y="0px"
	 viewBox="0 0 611 572.6" style="enable-background:new 0 0 611 572.6;" xml:space="preserve">
<style type="text/css">
	.st0{display:none;fill:#FFFFFF;}
	.st1{fill:#FFFFFF;}
</style>
<path id="Livechat" class="st0" d="M268.9,643.7v-60h306.9V280c0-38.6-7.5-75.8-22.6-111.4s-35.2-67.1-60.5-94.4
	c-25.3-27.3-54.1-49.1-86.6-65.5S339.9-15.8,305-15.8S236.4-7.6,203.9,8.7s-61.4,38.1-86.6,65.5C92,101.5,71.9,133,56.8,168.6
	S34.2,241.4,34.2,280v243.8H16.1c-19.9,0-36.9-7.8-51-23.5S-56,465.8-56,443.8v-79.9c0-15.3,3.3-28.8,9.9-40.5
	c6.6-11.7,15.3-21.2,26.2-28.5l2.7-53c5.4-48.6,17.9-92.6,37.5-131.9s43.9-72.6,73.1-99.9s62-48.5,98.4-63.5S266-75.9,305.1-75.9
	c39.7,0,77.8,7.5,114.2,22.5s69,36.3,97.9,64c28.9,27.7,53.1,61,72.7,99.9c19.6,39,32,82.4,37.5,130.4l2.7,52
	c10.8,6,19.6,14.8,26.2,26.5c6.6,11.7,9.9,24.5,9.9,38.5v91.9c0,14.7-3.3,27.6-9.9,39c-6.6,11.3-15.3,20-26.2,26v69
	c0,16.5-5.3,30.6-15.9,42.3c-10.6,11.7-23.4,17.6-38.2,17.6L268.9,643.7L268.9,643.7z M196.7,353.9c-7.2,0-13.5-3-19-9
	s-8.1-13.2-8.1-21.5s2.7-15.3,8.1-21s11.9-8.5,19.4-8.5s13.8,2.9,19,8.6c5.1,5.7,7.7,12.9,7.7,21.4c0,8-2.6,15-7.8,21
	S204.4,353.9,196.7,353.9z M413.3,353.9c-7.2,0-13.5-3-19-9c-5.4-6-8.1-13.2-8.1-21.5s2.7-15.3,8.1-21s11.9-8.5,19.4-8.5
	s13.8,2.9,19,8.6s7.7,12.9,7.7,21.4c0,8-2.6,15-7.8,21S421,353.9,413.3,353.9z M89.3,301.9c-2.4-39.3,2.6-74.9,14.9-106.9
	s28.9-59.1,49.6-81.4c20.8-22.3,44.7-39.5,71.7-51.5c27.1-12,54.2-18,81.2-18c54.8,0,100.8,19.2,138.1,57.5S505,187.7,513.4,245
	c-56.6-0.7-106.3-17.5-149.4-50.5s-76.3-75.8-99.7-128.4c-9.6,54-29.9,101.8-60.9,143.4S134.4,282,89.3,301.9z"/>
<path id="Home" class="st0" d="M289.4,113.2L48.9,356.3v262.3c0,14.1,9.3,25.6,20.9,25.6l146.2-0.5c11.5-0.1,20.8-11.5,20.8-25.6
	V464.9c0-14.1,9.3-25.6,20.9-25.6H341c11.5,0,20.9,11.5,20.9,25.6V618c0,14.1,9.3,25.6,20.8,25.7c0,0,0,0,0.1,0l146.1,0.5
	c11.5,0,20.9-11.5,20.9-25.6V356.1L309.3,113.2C303.5,107.4,295.2,107.4,289.4,113.2L289.4,113.2z M669.2,278.4l-109-110.3V-53.6
	c0-10.6-7-19.2-15.7-19.2h-73c-8.6,0-15.7,8.6-15.7,19.2V62.6L339.1-55.3c-23.1-23.3-56.5-23.3-79.6,0L-70.7,278.4
	c-6.7,6.8-7.6,18.9-2.1,27l0,0l33.3,49.6c5.5,8.2,15.4,9.4,22,2.6l0,0L289.3,47.5c5.8-5.8,14.1-5.8,20,0l306.8,310.1
	c6.7,6.8,16.5,5.6,22-2.6l0,0l33.3-49.6C676.9,297.3,676,285.2,669.2,278.4C669.3,278.5,669.2,278.4,669.2,278.4L669.2,278.4z"/>
<path id="Sport" class="st1" d="M305.6,572.6c-41.7,0-81.2-7.5-118.4-22.5s-69.6-35.6-97.4-61.6c-27.8-26-49.6-56.4-65.7-91.3
	S0,325.4,0,286.3c0-39.6,8-76.7,24.1-111.3S62,110.1,89.8,84.1s60.2-46.5,97.4-61.6S263.8,0,305.6,0c42.3,0,81.8,7.5,118.8,22.5
	c36.9,15,69.2,35.6,97,61.6c27.8,26,49.6,56.3,65.7,90.9S611,246.6,611,286.3c0,39.1-8,76.1-24.1,110.9s-37.9,65.3-65.7,91.3
	c-27.8,26-60.1,46.5-97,61.6C387.4,565.1,347.8,572.6,305.6,572.6z M462.1,219.7l52.7-17.2l13.7-45.8
	c-17.3-25.3-38.7-46.9-64.1-64.8c-25.5-17.9-54.2-31.6-86.3-41.2l-49.6,30.8v50.1L462.1,219.7z M149.8,219.7l132.9-88V81.6
	l-48.9-30.8C201.7,60.3,173,74.1,147.5,92s-46.8,39.5-64.1,64.8l16.8,45.8L149.8,219.7z M108.5,448.7l45.8-5l29.8-46.5l-47.3-136.7
	l-54.2-17.2l-36.7,27.9c0,34.4,4.1,65.7,12.2,94.1C66.3,393.7,83.1,421.5,108.5,448.7z M305.6,529.6c13.7,0,27.6-1.2,41.6-3.6
	c14-2.4,28.6-5.5,43.9-9.3l25.2-51.5l-24.4-39.4H220l-24.4,39.4l25.2,51.5c13.2,3.8,27.2,6.9,42,9.3
	C277.6,528.4,291.8,529.6,305.6,529.6z M224.6,382.9h158.8l46.6-131l-124.5-83.7l-126.8,83.7L224.6,382.9z M503.4,448.7
	c24.9-27.2,41.5-55,49.6-83.4c8.1-28.4,12.2-59.8,12.2-94.1l-36.7-23.6L475,260.5l-47.3,136.7l29,46.5L503.4,448.7z"/>
<path id="Promo" class="st0" d="M92.2,278.2l-115.4-40.8v288.4c0,6.5,3.9,12.1,9.9,13.9l104.5,37.1L92.2,278.2z M508.4,278.2v298.6
	l104.5-37.1c5.9-1.9,9.9-8.3,9.9-13.9V237.4L508.4,278.2z M438.3,302.3L318,345c-4.9,1.9-10.8,2.8-16.8,2.8
	c-5.9,0-11.8-0.9-16.8-2.8l-121.3-42.7v298.6l132.1,46.4c2,0.9,3.9,0.9,5.9,0.9s3,0,4.9-0.9l132.1-46.4V302.3H438.3z M92.2,185.5
	v-85.3l122.3-46.4L80.4,4.7L-31,42.7c-5.9,1.9-10.8,7.4-10.8,13.9v132.6c0,6.5,3.9,12.1,9.9,13.9l123.3,43.6v-61.2H92.2z
	 M300.3,32.5l148.9-53.8l-143-48.2c-3-0.9-6.9-0.9-10.8,0L160.3-24.1L300.3,32.5z M644.4,55.6c0-6.5-3.9-12.1-10.8-13.9L530,6.5
	L394,53.8l115.3,45.4v147.4L633.6,203c5.9-1.9,10.8-8.3,10.8-13.9C643.5,188.2,644.4,56.6,644.4,55.6z"/>
<path id="Promo_00000060740987481645674300000005622694162342482621_" class="st0" d="M438.3,126.1L302.2,77.9l-139,49.1v142.8
	l132.2,46.4c2,0.9,3.9,0.9,5.9,0.9s3,0,4.9-0.9l132.1-46.4V126.1z"/>
</svg>
