<svg xmlns="http://www.w3.org/2000/svg" height="48" viewBox="0 -960 960 960" width="48"><path d="M159.826-148.761v-71.804h121.739l-7.522-6q-64.478-54.478-94.597-114.718-30.12-60.239-30.12-136.478 0-112.435 67.935-201.413 67.935-88.978 177.848-118.739v80.065q-76.239 27.044-122.239 93.065-46 66.022-46 147.022 0 60 21.5 104.641 21.5 44.642 59.217 76.642l25.761 16.761v-114.609h71.804v245.565H159.826Zm406.065-12.326v-81.065q77.239-26.044 122.739-92.565 45.5-66.522 45.5-148.522 0-44-22.619-91.641-22.62-47.642-56.859-83.642l-24.761-21.761v114.609h-72.043v-245.565h245.565v71.804H680.435l7.761 8q62.239 57 92.858 122.478 30.62 65.479 30.62 125.718 0 113.435-67.935 202.413-67.935 88.978-177.848 119.739Z"/></svg>