<?xml version="1.0" encoding="utf-8"?>
<!-- Generator: Adobe Illustrator 27.0.0, SVG Export Plug-In . SVG Version: 6.00 Build 0)  -->
<svg version="1.1" id="Layer_1" xmlns="http://www.w3.org/2000/svg" xmlns:xlink="http://www.w3.org/1999/xlink" x="0px" y="0px"
	 viewBox="0 0 686.2 718.4" style="enable-background:new 0 0 686.2 718.4;" xml:space="preserve">
<style type="text/css">
	.st0{display:none;fill:#FFFFFF;}
	.st1{fill:#FFFFFF;}
</style>
<path id="Livechat" class="st0" d="M310.7,713.9v-60h306.9V350.2c0-38.6-7.5-75.8-22.6-111.4s-35.2-67.1-60.5-94.4
	s-54.1-49.1-86.6-65.5s-66.2-24.5-101.1-24.5s-68.6,8.2-101.1,24.5s-61.4,38.1-86.6,65.5c-25.3,27.3-45.4,58.8-60.5,94.4
	S76,311.6,76,350.2V594H57.9c-19.9,0-36.9-7.8-51-23.5S-14.2,536-14.2,514v-79.9c0-15.3,3.3-28.8,9.9-40.5s15.3-21.2,26.2-28.5
	l2.7-53c5.4-48.6,17.9-92.6,37.5-131.9s43.9-72.6,73.1-99.9s62-48.5,98.4-63.5S307.8-5.7,346.9-5.7c39.7,0,77.8,7.5,114.2,22.5
	s69,36.3,97.9,64s53.1,61,72.7,99.9c19.6,39,32,82.4,37.5,130.4l2.7,52c10.8,6,19.6,14.8,26.2,26.5c6.6,11.7,9.9,24.5,9.9,38.5V520
	c0,14.7-3.3,27.6-9.9,39c-6.6,11.3-15.3,20-26.2,26v69c0,16.5-5.3,30.6-15.9,42.3c-10.6,11.7-23.4,17.6-38.2,17.6L310.7,713.9
	L310.7,713.9z M238.5,424.1c-7.2,0-13.5-3-19-9s-8.1-13.2-8.1-21.5s2.7-15.3,8.1-21s11.9-8.5,19.4-8.5s13.8,2.9,19,8.6
	c5.1,5.7,7.7,12.9,7.7,21.4c0,8-2.6,15-7.8,21C252.6,421.1,246.2,424.1,238.5,424.1z M455.1,424.1c-7.2,0-13.5-3-19-9
	c-5.4-6-8.1-13.2-8.1-21.5s2.7-15.3,8.1-21s11.9-8.5,19.4-8.5c7.5,0,13.8,2.9,19,8.6s7.7,12.9,7.7,21.4c0,8-2.6,15-7.8,21
	C469.2,421.1,462.8,424.1,455.1,424.1z M131.1,372.1c-2.4-39.3,2.6-74.9,14.9-106.9s28.9-59.1,49.6-81.4
	c20.8-22.3,44.7-39.5,71.7-51.5c27.1-12,54.2-18,81.2-18c54.8,0,100.8,19.2,138.1,57.5s60.2,86.1,68.6,143.4
	c-56.6-0.7-106.3-17.5-149.4-50.5s-76.3-75.8-99.7-128.4c-9.6,54-29.9,101.8-60.9,143.4S176.2,352.2,131.1,372.1z"/>
<path id="Home" class="st0" d="M331.2,183.4L90.7,426.5v262.3c0,14.1,9.3,25.6,20.9,25.6l146.2-0.5c11.5-0.1,20.8-11.5,20.8-25.6
	V535.1c0-14.1,9.3-25.6,20.9-25.6h83.3c11.5,0,20.9,11.5,20.9,25.6v153.1c0,14.1,9.3,25.6,20.8,25.7c0,0,0,0,0.1,0l146.1,0.5
	c11.5,0,20.9-11.5,20.9-25.6V426.3L351.1,183.4C345.3,177.6,337,177.6,331.2,183.4L331.2,183.4z M711,348.6L602,238.3V16.6
	c0-10.6-7-19.2-15.7-19.2h-73c-8.6,0-15.7,8.6-15.7,19.2v116.2L380.9,14.9c-23.1-23.3-56.5-23.3-79.6,0L-28.9,348.6
	c-6.7,6.8-7.6,18.9-2.1,27l0,0l33.3,49.6c5.5,8.2,15.4,9.4,22,2.6l0,0l306.8-310.1c5.8-5.8,14.1-5.8,20,0l306.8,310.1
	c6.7,6.8,16.5,5.6,22-2.6l0,0l33.3-49.6C718.7,367.5,717.8,355.4,711,348.6C711.1,348.7,711,348.6,711,348.6L711,348.6z"/>
<path id="Promo" class="st1" d="M134,348.4L18.6,307.6V596c0,6.5,3.9,12.1,9.9,13.9L133,647L134,348.4z M550.2,348.4V647l104.5-37.1
	c5.9-1.9,9.9-8.3,9.9-13.9V307.6L550.2,348.4z M480.1,372.5l-120.3,42.7c-4.9,1.9-10.8,2.8-16.8,2.8c-5.9,0-11.8-0.9-16.8-2.8
	l-121.3-42.7v298.6L337,717.5c2,0.9,3.9,0.9,5.9,0.9s3,0,4.9-0.9l132.1-46.4V372.5H480.1z M134,255.7v-85.3L256.3,124L122.2,74.9
	l-111.4,38C4.9,114.8,0,120.3,0,126.8v132.6c0,6.5,3.9,12.1,9.9,13.9l123.3,43.6v-61.2L134,255.7L134,255.7z M342.1,102.7L491,48.9
	L348,0.7c-3-0.9-6.9-0.9-10.8,0L202.1,46.1L342.1,102.7z M686.2,125.8c0-6.5-3.9-12.1-10.8-13.9L571.8,76.7l-136,47.3l115.3,45.4
	v147.4l124.3-43.6c5.9-1.9,10.8-8.3,10.8-13.9C685.3,258.4,686.2,126.8,686.2,125.8z"/>
<path id="Promo_00000060740987481645674300000005622694162342482621_" class="st1" d="M480.1,196.3L344,148.1l-139,49.1V340
	l132.2,46.4c2,0.9,3.9,0.9,5.9,0.9s3,0,4.9-0.9L480.1,340V196.3L480.1,196.3z"/>
</svg>
