<?xml version="1.0" encoding="utf-8"?>
<!-- Generator: Adobe Illustrator 27.0.0, SVG Export Plug-In . SVG Version: 6.00 Build 0)  -->
<svg version="1.1" id="_x2013_ËÒÓ_x201A__x2021_Ú_xB8__x5F_Á_x2030_ÂÒ_xB8_"
	 xmlns="http://www.w3.org/2000/svg" xmlns:xlink="http://www.w3.org/1999/xlink" x="0px" y="0px" viewBox="0 0 130.1 148"
	 style="enable-background:new 0 0 130.1 148;" xml:space="preserve">
<style type="text/css">
	.st0{display:none;}
	.st1{display:inline;fill:#FFFFFF;}
	.st2{display:inline;}
	.st3{fill:#FFFFFF;}
</style>
<g class="st0">
	<rect x="-197.5" y="-217.3" class="st1" width="515" height="515"/>
	<g class="st2">
		<polygon class="st3" points="-52,-91.2 -197.5,-91.2 -197.5,-157.7 -9.7,-157.7 		"/>
		<g>
			<path class="st3" d="M-176-145.8h6.3c2.5,0,4.3,0.4,5.5,1.1s1.8,1.9,1.8,3.4c0,1-0.3,1.9-0.8,2.6s-1.2,1.2-2.1,1.4v0.1
				c1.1,0.3,1.9,0.8,2.4,1.5s0.8,1.6,0.8,2.7c0,1.6-0.6,2.9-1.9,3.9c-1.2,0.9-2.9,1.4-5.1,1.4h-7.1v-18.1H-176z M-171.1-138.8h1.5
				c0.7,0,1.2-0.1,1.6-0.4c0.4-0.3,0.6-0.7,0.6-1.3c0-1-0.8-1.5-2.3-1.5h-1.4C-171.1-142-171.1-138.8-171.1-138.8z M-171.1-135.2
				v3.8h1.7c1.5,0,2.3-0.6,2.3-1.9c0-0.6-0.2-1.1-0.6-1.4c-0.4-0.3-1-0.5-1.8-0.5H-171.1L-171.1-135.2z"/>
			<path class="st3" d="M-147.8-127.6h-10.8v-18.1h10.8v3.9h-5.9v2.9h5.4v3.9h-5.4v3.4h5.9V-127.6z"/>
			<path class="st3" d="M-132.1-133.1c0,1.1-0.3,2.1-0.9,3c-0.6,0.9-1.4,1.6-2.5,2c-1.1,0.5-2.3,0.7-3.8,0.7c-1.2,0-2.2-0.1-3-0.3
				c-0.8-0.2-1.7-0.5-2.6-0.9v-4.4c0.9,0.5,1.9,0.9,2.9,1.1c1,0.3,1.9,0.4,2.8,0.4c0.7,0,1.3-0.1,1.6-0.4c0.3-0.3,0.5-0.6,0.5-1
				c0-0.2-0.1-0.5-0.2-0.7c-0.1-0.2-0.4-0.4-0.7-0.6c-0.3-0.2-1.1-0.6-2.4-1.2c-1.2-0.5-2.1-1.1-2.7-1.6c-0.6-0.5-1-1.1-1.3-1.7
				c-0.3-0.7-0.4-1.4-0.4-2.3c0-1.7,0.6-3,1.8-3.9s2.9-1.4,5-1.4c1.9,0,3.8,0.4,5.7,1.3l-1.5,3.8c-1.7-0.8-3.2-1.2-4.4-1.2
				c-0.6,0-1.1,0.1-1.4,0.3s-0.4,0.5-0.4,0.8c0,0.4,0.2,0.7,0.6,1c0.4,0.3,1.4,0.8,3,1.5c1.6,0.7,2.6,1.5,3.3,2.3
				C-132.4-135.4-132.1-134.4-132.1-133.1z"/>
			<path class="st3" d="M-120.6-127.6h-4.9v-14.1h-4.4v-4h13.8v4h-4.4L-120.6-127.6L-120.6-127.6z"/>
			<path class="st3" d="M-165.4-107.8c0,1.5-0.6,2.7-1.7,3.6s-2.6,1.3-4.4,1.3c-2.2,0-3.9-0.2-5.1-0.7v-1.3c1.3,0.6,3,0.8,5,0.8
				c1.5,0,2.7-0.3,3.5-1c0.9-0.7,1.3-1.6,1.3-2.7c0-0.7-0.1-1.3-0.4-1.7c-0.3-0.5-0.8-0.9-1.4-1.2c-0.7-0.4-1.6-0.8-2.9-1.2
				c-1.9-0.6-3.1-1.3-3.8-2.1c-0.7-0.7-1.1-1.7-1.1-3c0-1.4,0.5-2.5,1.6-3.3c1.1-0.9,2.4-1.3,4.1-1.3c1.7,0,3.3,0.3,4.8,1l-0.5,1.1
				c-1.5-0.6-2.9-0.9-4.3-0.9c-1.3,0-2.4,0.3-3.2,0.9s-1.2,1.5-1.2,2.5c0,0.7,0.1,1.2,0.4,1.7c0.2,0.4,0.6,0.8,1.2,1.2
				c0.6,0.3,1.5,0.8,2.9,1.2c1.4,0.5,2.5,1,3.2,1.4c0.7,0.5,1.2,1,1.6,1.6C-165.6-109.3-165.4-108.6-165.4-107.8z"/>
			<path class="st3" d="M-151.9-103.1h-9.9v-18.2h9.9v1.2h-8.7v6.9h8.2v1.2h-8.2v7.8h8.7V-103.1z"/>
			<path class="st3" d="M-148.1-103.1v-18.2h1.3v17h8.7v1.2C-138.1-103.1-148.1-103.1-148.1-103.1z"/>
			<path class="st3" d="M-134.9-103.1v-18.2h1.3v17h8.7v1.2H-134.9z"/>
			<path class="st3" d="M-111.8-103.1h-9.9v-18.2h9.9v1.2h-8.7v6.9h8.2v1.2h-8.2v7.8h8.7V-103.1z"/>
			<path class="st3" d="M-106.8-111v7.9h-1.3v-18.2h4.3c2.3,0,3.9,0.4,5,1.2c1.1,0.8,1.6,2.1,1.6,3.8c0,1.2-0.3,2.2-1,3.1
				c-0.6,0.8-1.6,1.4-2.9,1.8l4.9,8.3h-1.5l-4.7-7.9C-102.4-111-106.8-111-106.8-111z M-106.8-112.1h3.5c1.5,0,2.7-0.3,3.6-1
				c0.8-0.7,1.3-1.7,1.3-3c0-1.4-0.4-2.4-1.2-3s-2.2-0.9-4-0.9h-3v7.9H-106.8z"/>
		</g>
		<g>
			<path class="st3" d="M-52-91.2c-0.6-2-1.9-5.4-3.8-10.1l-1.8-4.3c-2.6-6.1-5.1-10.7-7.3-13.6c-2.3-2.9-4.8-4.9-7.6-5.8
				c4.7-5,13-7.5,13-7.5s4.2,1.3,8.3,10.4l2,4.6l55.3-63.4l2.3,3.3L-52-91.2z"/>
		</g>
	</g>
</g>
<g>
	<path class="st3" d="M0.4,17c1.3,3.4,4.1,12.2,5.7,21.2C14,23.8,23.5,11.8,39,5.9C41.4,3.6-4.9,2.7,0.4,17z"/>
	<path class="st3" d="M59.9,71.5c0.1-0.2,5.6-20.1,5.6-20.1c4.6-0.9,13.2-1.6,13.2-1.6c0.2,0.3-1.9,9.6-6.8,14.6
		C65.3,70.8,59.9,71.4,59.9,71.5z"/>
	<path class="st3" d="M37,59.1c17.7-12.9,53.4-12.3,53.4-12.3C77,36.6,72.1,16,80.4,0.3C71.5-0.4,62.6,0.2,54,2.5
		C28,9.3,6,32.3,4,59.1c-4.6,60.1,40.4,90.6,42.8,88.8c1.8-1.4-0.5-17.2,4.3-22.4c3.8-4.1,13.3-9.5,12.8-11.2
		c-1-3.4-22.8-12.5-44-7.1C18.4,89.2,22.7,69.6,37,59.1z"/>
	<path class="st3" d="M116.4,25.5c5-0.9,9.8-3.1,13.7-6.3C116.9,9.6,101.1,2.8,84,0.7c-9.1,15.7-4.4,35.6,10.5,45.5
		c0,0,18.2,0.4,32.3-10.8c0.9-0.7,1.7-2,0.9-2.7C123.5,31.2,119.6,28.7,116.4,25.5z M106.3,19.9c-2.3,0-4.2-1.9-4.2-4.2
		s1.9-4.2,4.2-4.2s4.2,1.9,4.2,4.2S108.6,19.9,106.3,19.9z"/>
	<g class="st0">
		<path class="st1" d="M60,177.7c-63.4,0-115-51.6-115-115s51.6-115,115-115s115,51.6,115,115S123.4,177.7,60,177.7z M60-42.2
			C2.2-42.2-44.9,4.8-44.9,62.7S2.2,167.6,60,167.6c57.9,0,104.9-47.1,104.9-104.9C165,4.8,117.9-42.2,60-42.2z"/>
	</g>
</g>
</svg>
