<?xml version="1.0" encoding="utf-8"?>
<!-- Generator: Adobe Illustrator 27.0.0, SVG Export Plug-In . SVG Version: 6.00 Build 0)  -->
<svg version="1.1" id="Layer_1" xmlns="http://www.w3.org/2000/svg" xmlns:xlink="http://www.w3.org/1999/xlink" x="0px" y="0px"
	 viewBox="0 0 880 640" style="enable-background:new 0 0 880 640;" xml:space="preserve">
<style type="text/css">
	.st0{fill:#FFFFFF;}
</style>
<path class="st0" d="M0,640V480c0-19.3,6.8-35.8,20.5-49.5S50.7,410,70,410h141c11.3,0,22.2,2.8,32.5,8.5S262.7,432,270,442
	c19.3,28,44,49.7,74,65s62,23,96,23s66-7.7,96-23s55-37,75-65c7.3-10,16-17.8,26-23.5s20.7-8.5,32-8.5h141
	c19.3,0,35.8,6.8,49.5,20.5S880,460.7,880,480v160H620V521c-24,22-51.5,39-82.5,51S474,590,440,590s-66.3-6-97-18s-58.3-29-83-51
	v119H0z M440,470c-23.3,0-45.8-5.5-67.5-16.5S333.3,427.3,320,408c-10.7-15.3-23.5-27.7-38.5-37s-31.2-15.7-48.5-19
	c19.3-20,49.7-35.3,91-46s80-16,116-16s74.8,5.3,116.5,16s72.2,26,91.5,46c-17.3,3.3-33.5,9.7-48.5,19s-27.8,21.7-38.5,37
	c-13.3,19.3-30.8,34.5-52.5,45.5S464,470,440,470z M120,340c-30,0-55.8-10.8-77.5-32.5S10,260,10,230c0-30.7,10.8-56.7,32.5-78
	S90,120,120,120c30.7,0,56.7,10.7,78,32s32,47.3,32,78c0,30-10.7,55.8-32,77.5S150.7,340,120,340z M760,340
	c-30,0-55.8-10.8-77.5-32.5S650,260,650,230c0-30.7,10.8-56.7,32.5-78s47.5-32,77.5-32c30.7,0,56.7,10.7,78,32s32,47.3,32,78
	c0,30-10.7,55.8-32,77.5S790.7,340,760,340z M440,220c-30,0-55.8-10.8-77.5-32.5S330,140,330,110c0-30.7,10.8-56.7,32.5-78
	S410,0,440,0c30.7,0,56.7,10.7,78,32s32,47.3,32,78c0,30-10.7,55.8-32,77.5C496.7,209.1,470.7,220,440,220z"/>
</svg>
