<svg width="32" height="32" viewBox="0 0 32 32" fill="none" xmlns="http://www.w3.org/2000/svg">
<path fill-rule="evenodd" clip-rule="evenodd" d="M16.0232 19.1755L30.9264 5.32343C30.589 5.12985 30.1962 5 29.7753 5H2.29411C1.74593 5 1.24362 5.20538 0.852399 5.51861L16.0232 19.1755ZM31.9883 7.16259C31.9823 7.17945 31.9764 7.19635 31.9764 7.21348V24.7868C31.9764 24.8145 31.9797 24.842 31.9829 24.8695L31.9829 24.8695C31.9872 24.9055 31.9915 24.9413 31.9882 24.977L22.2346 16.188L31.9999 7.10898C32.0008 7.12693 31.9945 7.14473 31.9883 7.16259ZM16.7571 21.2859L20.7436 17.585L30.8719 26.7082C30.547 26.8828 30.1733 27 29.7748 27H2.29366C2.02533 27 1.76911 26.9357 1.5304 26.8529L11.3477 17.7224L15.3233 21.297C15.5237 21.4771 15.7789 21.567 16.0342 21.567C16.2948 21.567 16.5554 21.4731 16.7571 21.2859ZM0 24.7865V7.55082L9.79379 16.3487L0.0982924 25.3574C0.0471303 25.1751 0 24.9843 0 24.7865Z" fill="#222939"/>
</svg>
