<svg width="346" height="340" viewBox="0 0 346 340" fill="none" xmlns="http://www.w3.org/2000/svg">
<path d="M94.6541 83.475C94.6541 49.0465 127.39 21 168.013 21C208.439 21 241.372 48.8786 241.372 83.475C241.372 117.903 208.636 145.95 168.013 145.95C127.587 145.95 94.6541 118.071 94.6541 83.475ZM264.642 259.312C263.064 259.312 261.289 259.312 259.712 259.144V295.084C277.263 290.549 292.447 284.671 304.476 277.785V250.243C292.447 256.121 278.84 259.312 264.642 259.312ZM211.989 242.349C182.803 220.181 177.479 183.569 197.396 156.194C188.325 159.385 178.267 161.233 167.816 161.233C154.998 161.233 142.968 158.546 132.122 154.011C43.9733 161.569 28 198.348 28 238.151V275.77C40.2265 283.496 56.7914 290.045 75.9199 295.084V247.388L85.5828 297.435C109.839 302.809 137.841 306 167.816 306C197.593 306 225.596 302.977 249.852 297.435L257.345 258.976C240.583 257.8 224.807 251.922 211.989 242.349ZM313.548 228.914C301.124 240.838 283.376 247.556 264.642 247.556C248.668 247.556 233.287 242.517 221.257 233.448C194.241 212.959 191.874 177.691 215.933 154.851C228.357 142.927 246.105 136.209 264.839 136.209C280.812 136.209 296.194 141.247 308.223 150.316C335.043 170.806 337.409 206.074 313.548 228.914ZM308.815 186.256C308.815 183.065 305.66 180.378 301.913 180.378H278.051V160.057C278.051 156.866 274.896 154.179 271.149 154.179H257.74C253.993 154.179 250.838 156.866 250.838 160.057V180.378H226.976C223.229 180.378 220.074 183.065 220.074 186.256V197.676C220.074 200.867 223.229 203.555 226.976 203.555H250.838V223.876C250.838 227.067 253.993 229.754 257.74 229.754H271.149C274.896 229.754 278.051 227.067 278.051 223.876V203.555H301.913C305.66 203.555 308.815 200.867 308.815 197.676V186.256Z" fill="white"/>
</svg>
