<svg width="32" height="32" viewBox="0 0 32 32" fill="none" xmlns="http://www.w3.org/2000/svg">
<path fill-rule="evenodd" clip-rule="evenodd" d="M21.3333 20C21.3333 19.264 21.9293 18.6667 22.6666 18.6667C23.4039 18.6667 23.9999 19.264 23.9999 20V28C23.9999 28.736 23.4039 29.3333 22.6666 29.3333H15.9999V30.6666C15.9999 31.0666 15.8199 31.444 15.5119 31.6973C15.2719 31.8947 14.9719 32 14.6666 32C14.58 32 14.492 31.992 14.4053 31.9733L1.072 29.3066C0.449312 29.1826 0 28.6359 0 27.9999V1.33331C0 1.31951 0.0046668 1.30642 0.00934587 1.29329C0.0136952 1.28109 0.0180552 1.26885 0.0186875 1.256C0.0192321 1.23994 0.0174846 1.22413 0.0157312 1.20826C0.0132589 1.18588 0.0107749 1.1634 0.0146875 1.14C0.0287309 1.04169 0.0663672 0.953646 0.104226 0.865077C0.109501 0.852737 0.11478 0.840388 0.12 0.827998C0.126089 0.812462 0.130337 0.796687 0.13457 0.780967C0.140502 0.758934 0.146406 0.737009 0.157312 0.715999C0.245312 0.549311 0.366624 0.409312 0.511937 0.294687C0.517275 0.290691 0.520945 0.285026 0.524621 0.279352C0.528304 0.273667 0.531994 0.267972 0.537374 0.263937C0.552388 0.252509 0.569702 0.246832 0.587052 0.241142C0.602058 0.236221 0.617091 0.231292 0.630686 0.222625C0.749311 0.148 0.875998 0.0933123 1.016 0.0573124C1.076 0.0426249 1.13331 0.0319999 1.196 0.0253125C1.21575 0.0230623 1.23479 0.018177 1.25383 0.0132926C1.27974 0.00664548 1.30564 0 1.33331 0H22.6666C23.4039 0 23.9999 0.597311 23.9999 1.33337V9.33336C23.9999 10.0694 23.4039 10.6667 22.6666 10.6667C21.9293 10.6667 21.3333 10.0694 21.3333 9.33336V2.66668H10.4186L15.0493 4.05599C15.6133 4.2253 16 4.7453 16 5.3333V26.6666H21.3333V20ZM31.6079 13.7223C31.7319 13.8463 31.8293 13.9943 31.8973 14.157C32.0319 14.4823 32.0319 14.8503 31.8973 15.1755C31.8293 15.3395 31.7319 15.4875 31.6079 15.6102L27.6093 19.6089C27.3493 19.8703 27.0079 19.9996 26.6666 19.9996C26.3252 19.9996 25.9839 19.8702 25.7239 19.6089C25.2026 19.0889 25.2026 18.2449 25.7239 17.7236L27.4479 15.9996H19.9999C19.2626 15.9996 18.6666 15.4023 18.6666 14.6663C18.6666 13.9303 19.2626 13.333 19.9999 13.333H27.4479L25.724 11.609C25.2026 11.089 25.2026 10.245 25.724 9.72367C26.2453 9.20367 27.0879 9.20367 27.6093 9.72367L31.6079 13.7223Z" fill="#222939"/>
</svg>
