<svg width="960" height="960" viewBox="0 0 960 960" fill="none" xmlns="http://www.w3.org/2000/svg">
<path d="M463.4 309L222.9 552.1V814.4C222.9 828.5 232.2 840 243.8 840L390 839.5C401.5 839.4 410.8 828 410.8 813.9V660.7C410.8 646.6 420.1 635.1 431.7 635.1H515C526.5 635.1 535.9 646.6 535.9 660.7V813.8C535.9 827.9 545.2 839.4 556.7 839.5C556.7 839.5 556.7 839.5 556.8 839.5L702.9 840C714.4 840 723.8 828.5 723.8 814.4V551.9L483.3 309C477.5 303.2 469.2 303.2 463.4 309ZM843.2 474.2L734.2 363.9V142.2C734.2 131.6 727.2 123 718.5 123H645.5C636.9 123 629.8 131.6 629.8 142.2V258.4L513.1 140.5C490 117.2 456.6 117.2 433.5 140.5L103.3 474.2C96.6 481 95.7 493.1 101.2 501.2L134.5 550.8C140 559 149.9 560.2 156.5 553.4L463.3 243.3C469.1 237.5 477.4 237.5 483.3 243.3L790.1 553.4C796.8 560.2 806.6 559 812.1 550.8L845.4 501.2C850.9 493.1 850 481 843.2 474.2Z" fill="white"/>
</svg>
