<svg width="32" height="32" viewBox="0 0 32 32" fill="none" xmlns="http://www.w3.org/2000/svg">
    <g clip-path="url(#a)">
        <path fill-rule="evenodd" clip-rule="evenodd" d="M2.772 6h26.465C30.763 6 32.008 7.257 32 8.798v14.404C32 24.743 30.755 26 29.228 26H2.772C1.245 26 0 24.743 0 23.202V8.798C0 7.257 1.245 6 2.772 6zm26.857 14.178v-8.694a3.04 3.04 0 0 1-.69.086c-1.553 0-2.807-1.265-2.807-2.832 0-.12.009-.241.026-.353H5.62c.035.172.052.344.052.525 0 1.567-1.254 2.833-2.806 2.833-.17 0-.333-.018-.495-.043v8.6c.162-.025.324-.043.495-.043 1.552 0 2.806 1.266 2.806 2.833 0 .18-.017.353-.052.525h20.606a2.983 2.983 0 0 1-.085-.689c0-1.567 1.253-2.832 2.806-2.832.235 0 .463.025.682.084zm-19.514-4.182c0-3.384 2.72-6.13 6.073-6.13 3.36 0 6.08 2.746 6.072 6.13 0 3.383-2.72 6.13-6.072 6.13s-6.073-2.747-6.073-6.13zm6.806 3.082c.4-.112.75-.327 1.015-.654.733-.904.452-2.222-.605-2.824-.265-.148-.546-.266-.826-.385l-.19-.08a2.38 2.38 0 0 1-.554-.319c-.332-.267-.273-.697.12-.87.11-.042.221-.06.34-.068.453-.026.88.06 1.289.258.204.095.272.069.34-.146.035-.112.067-.226.099-.34.032-.114.064-.229.098-.34.043-.155-.009-.259-.154-.32a3.262 3.262 0 0 0-.81-.24c-.367-.06-.367-.06-.367-.43 0-.264 0-.395-.065-.46-.066-.066-.196-.066-.455-.066h-.23c-.239.009-.282.052-.29.302v.335c0 .328 0 .328-.316.44-.75.275-1.22.791-1.27 1.627-.043.74.34 1.24.938 1.601.262.16.545.276.83.392.113.046.226.093.338.142.154.06.299.146.427.25.383.31.307.835-.137 1.033a1.326 1.326 0 0 1-.75.103 3.317 3.317 0 0 1-1.143-.345c-.205-.111-.273-.085-.341.147-.06.198-.12.405-.171.603-.077.275-.051.335.205.465.324.163.674.24 1.032.3.281.044.29.052.29.345v.396c0 .164.076.267.247.267.196.009.384.009.58 0 .154 0 .239-.086.239-.25 0-.06 0-.12.002-.18.002-.12.003-.241-.002-.362-.009-.19.068-.275.247-.327zm-7.889-2.764c0 .937-.752 1.696-1.68 1.696-.928 0-1.68-.759-1.68-1.696 0-.937.752-1.696 1.68-1.696.928 0 1.68.76 1.68 1.696zm16 1.696c.928 0 1.68-.759 1.68-1.696 0-.937-.752-1.696-1.68-1.696-.928 0-1.68.76-1.68 1.696 0 .937.752 1.696 1.68 1.696z" fill="#BDBFC4"/>
    </g>
    <defs>
        <clipPath id="a">
            <path fill="#fff" d="M0 0h32v32H0z"/>
        </clipPath>
    </defs>
</svg>
