<svg xmlns="http://www.w3.org/2000/svg" height="48" viewBox="0 -960 960 960" width="48"><path d="M780.544-492.131q-2.718-122.282-88.74-208.304-86.021-86.022-208.304-88.739v-71.804q75.283 1.239 142.044 31.239 66.76 30 116.163 79.402 49.402 49.402 79.402 116.163t31.239 142.043h-71.804Zm-174.153 0q-3.956-49.326-38.761-83.989-34.804-34.663-84.13-37.902v-71.804q78.848 3.239 134.913 58.924 56.065 55.684 60.022 134.771h-72.044Zm200.065 388.848q-128.804 0-254.706-61.88-125.902-61.88-225.544-161.402-99.641-99.522-161.521-226.044-61.881-126.521-61.881-254.847 0-21.914 14.294-36.327 14.293-14.413 36.446-14.413h153.26q18.305 0 31.337 11.435 13.033 11.435 16.75 30.261l28.522 132.63q2.478 17.348-1.239 30.761-3.717 13.413-12.109 21.327l-104.521 103.13q53.043 86.609 120.032 152.858 66.989 66.25 146.598 111.055l102.043-102.805q10.913-11.913 24.305-16.63 13.391-4.717 27.978-1l128.239 29.087q18.826 4.196 30.641 18.609 11.816 14.413 11.816 33v150.217q0 22.391-14.294 36.685-14.293 14.293-36.446 14.293Z"/></svg>