<svg width="800" height="800" viewBox="0 0 800 800" fill="none" xmlns="http://www.w3.org/2000/svg">
<g clip-path="url(#clip0_0_1)">
<mask id="mask0_0_1" style="mask-type:luminance" maskUnits="userSpaceOnUse" x="0" y="0" width="800" height="800">
<path d="M800 0H0V800H800V0Z" fill="white"/>
</mask>
<g mask="url(#mask0_0_1)">
<path d="M350.33 122.151C376.827 92.5504 423.173 92.5504 449.67 122.151L473.03 148.243C486.533 163.329 506.163 171.459 526.38 170.341L561.347 168.408C601.013 166.215 633.783 198.985 631.59 238.653L629.66 273.62C628.54 293.837 636.67 313.466 651.757 326.971L677.85 350.33C707.45 376.827 707.45 423.173 677.85 449.67L651.757 473.03C636.67 486.533 628.54 506.163 629.66 526.38L631.59 561.347C633.783 601.013 601.013 633.783 561.347 631.59L526.38 629.66C506.163 628.54 486.533 636.67 473.03 651.757L449.67 677.85C423.173 707.45 376.827 707.45 350.33 677.85L326.971 651.757C313.466 636.67 293.837 628.54 273.62 629.66L238.653 631.59C198.985 633.783 166.215 601.013 168.408 561.347L170.341 526.38C171.459 506.163 163.329 486.533 148.243 473.03L122.151 449.67C92.5503 423.173 92.5503 376.827 122.151 350.33L148.243 326.971C163.329 313.466 171.459 293.837 170.341 273.62L168.408 238.653C166.215 198.985 198.985 166.215 238.653 168.408L273.62 170.341C293.837 171.459 313.466 163.329 326.971 148.243L350.33 122.151Z" stroke="white" stroke-width="83.3333"/>
<path d="M317 316.667H316.667V317H317V316.667Z" stroke="white" stroke-width="125" stroke-linejoin="round"/>
<path d="M483.667 483.333H483.333V483.667H483.667V483.333Z" stroke="white" stroke-width="125" stroke-linejoin="round"/>
<path d="M500 300L300 500" stroke="white" stroke-width="83.3333" stroke-linecap="round" stroke-linejoin="round"/>
</g>
</g>
<defs>
<clipPath id="clip0_0_1">
<rect width="800" height="800" fill="white"/>
</clipPath>
</defs>
</svg>
