<svg width="960" height="960" viewBox="0 0 960 960" fill="none" xmlns="http://www.w3.org/2000/svg">
<path d="M266.2 474L150.8 433.2V721.6C150.8 728.1 154.7 733.7 160.7 735.5L265.2 772.6L266.2 474ZM682.4 474V772.6L786.9 735.5C792.8 733.6 796.8 727.2 796.8 721.6V433.2L682.4 474ZM612.3 498.1L492 540.8C487.1 542.7 481.2 543.6 475.2 543.6C469.3 543.6 463.4 542.7 458.4 540.8L337.1 498.1V796.7L469.2 843.1C471.2 844 473.1 844 475.1 844C477.1 844 478.1 844 480 843.1L612.1 796.7V498.1H612.3ZM266.2 381.3V296L388.5 249.6L254.4 200.5L143 238.5C137.1 240.4 132.2 245.9 132.2 252.4V385C132.2 391.5 136.1 397.1 142.1 398.9L265.4 442.5V381.3H266.2ZM474.3 228.3L623.2 174.5L480.2 126.3C477.2 125.4 473.3 125.4 469.4 126.3L334.3 171.7L474.3 228.3ZM818.4 251.4C818.4 244.9 814.5 239.3 807.6 237.5L704 202.3L568 249.6L683.3 295V442.4L807.6 398.8C813.5 396.9 818.4 390.5 818.4 384.9C817.5 384 818.4 252.4 818.4 251.4Z" fill="white"/>
<path d="M612.3 321.9L476.2 273.7L337.2 322.8V465.6L469.4 512C471.4 512.9 473.3 512.9 475.3 512.9C477.3 512.9 478.3 512.9 480.2 512L612.3 465.6V321.9Z" fill="white"/>
</svg>
