<svg width="800" height="800" viewBox="0 0 800 800" fill="none" xmlns="http://www.w3.org/2000/svg">
<g clip-path="url(#clip0_0_1)">
<path d="M575 650C568.37 650 562.011 652.634 557.322 657.322C552.634 662.011 550 668.37 550 675V750H50V150H150V175C150 181.63 152.634 187.989 157.322 192.678C162.011 197.366 168.37 200 175 200H425C431.63 200 437.989 197.366 442.678 192.678C447.366 187.989 450 181.63 450 175V150H550V175C550 181.63 552.634 187.989 557.322 192.678C562.011 197.366 568.37 200 575 200C581.63 200 587.989 197.366 592.678 192.678C597.366 187.989 600 181.63 600 175V125C600 118.37 597.366 112.011 592.678 107.322C587.989 102.634 581.63 100 575 100H450V75C450 55.1088 442.098 36.0323 428.033 21.967C413.968 7.9018 394.891 0 375 0H225C205.109 0 186.032 7.9018 171.967 21.967C157.902 36.0323 150 55.1088 150 75V100H25C18.3696 100 12.0107 102.634 7.32231 107.322C2.6339 112.011 0 118.37 0 125V775C0 781.63 2.6339 787.989 7.32231 792.678C12.0107 797.366 18.3696 800 25 800H575C581.63 800 587.989 797.366 592.678 792.678C597.366 787.989 600 781.63 600 775V675C600 668.37 597.366 662.011 592.678 657.322C587.989 652.634 581.63 650 575 650ZM200 75C200 68.3696 202.634 62.0107 207.322 57.3223C212.011 52.6339 218.37 50 225 50H375C381.63 50 387.989 52.6339 392.678 57.3223C397.366 62.0107 400 68.3696 400 75V150H200V75ZM792.7 307.3L692.7 207.3C690.378 204.972 687.619 203.125 684.582 201.864C681.544 200.604 678.288 199.955 675 199.955C671.712 199.955 668.456 200.604 665.418 201.864C662.381 203.125 659.622 204.972 657.3 207.3L357.3 507.3C354.98 509.626 353.141 512.386 351.888 515.423C350.636 518.46 349.994 521.715 350 525V625C350 631.63 352.634 637.989 357.322 642.678C362.011 647.366 368.37 650 375 650H475C478.285 650.006 481.54 649.364 484.577 648.112C487.614 646.859 490.374 645.02 492.7 642.7L792.7 342.7C795.028 340.378 796.875 337.619 798.136 334.582C799.396 331.544 800.045 328.288 800.045 325C800.045 321.712 799.396 318.456 798.136 315.418C796.875 312.381 795.028 309.622 792.7 307.3ZM400 600V535.35L675 260.35L739.65 325L464.65 600H400ZM300 625C300 631.63 297.366 637.989 292.678 642.678C287.989 647.366 281.63 650 275 650H175C168.37 650 162.011 647.366 157.322 642.678C152.634 637.989 150 631.63 150 625C150 618.37 152.634 612.011 157.322 607.322C162.011 602.634 168.37 600 175 600H275C281.63 600 287.989 602.634 292.678 607.322C297.366 612.011 300 618.37 300 625ZM300 475C300 481.63 297.366 487.989 292.678 492.678C287.989 497.366 281.63 500 275 500H175C168.37 500 162.011 497.366 157.322 492.678C152.634 487.989 150 481.63 150 475C150 468.37 152.634 462.011 157.322 457.322C162.011 452.634 168.37 450 175 450H275C281.63 450 287.989 452.634 292.678 457.322C297.366 462.011 300 468.37 300 475ZM425 350H175C168.37 350 162.011 347.366 157.322 342.678C152.634 337.989 150 331.63 150 325C150 318.37 152.634 312.011 157.322 307.322C162.011 302.634 168.37 300 175 300H425C431.63 300 437.989 302.634 442.678 307.322C447.366 312.011 450 318.37 450 325C450 331.63 447.366 337.989 442.678 342.678C437.989 347.366 431.63 350 425 350Z" fill="white"/>
</g>
<defs>
<clipPath id="clip0_0_1">
<rect width="800" height="800" fill="white"/>
</clipPath>
</defs>
</svg>
