<svg width="32" height="32" viewBox="0 0 32 32" fill="none" xmlns="http://www.w3.org/2000/svg">
<path d="M3.08528 17.1204C2.88107 15.4268 3.05124 13.7917 3.51411 12.2804C5.05249 7.25797 9.87862 3.56443 15.6033 3.49929V0.216139C15.6033 0.0337424 15.8415 -0.0639704 15.9981 0.0467707L23.0569 5.01058C23.1726 5.09526 23.1726 5.26463 23.0569 5.3428L16.0049 10.3066C15.8415 10.4173 15.6101 10.3196 15.6101 10.1372V6.8606C11.8458 6.91923 8.63295 9.14057 7.25113 12.2804C6.727 13.466 6.46153 14.7753 6.5364 16.1498C6.63851 18.0389 7.38047 19.7782 8.55126 21.1853C9.17751 21.9344 9.02775 23.0288 8.21772 23.5955C7.44854 24.1362 6.37304 23.9864 5.78083 23.2698C4.33095 21.5371 3.36436 19.4265 3.08528 17.1204ZM23.4653 10.8147C24.6429 12.2153 25.3849 13.9611 25.4802 15.8502C25.5551 17.2312 25.2828 18.5405 24.7654 19.7196C23.3836 22.8594 20.1707 25.0873 16.4065 25.1394V21.8628C16.4065 21.6804 16.1683 21.5827 16.0117 21.6934L8.95287 26.6572C8.83716 26.7419 8.83716 26.9113 8.95287 26.9894L16.0049 31.9532C16.1683 32.064 16.3997 31.9663 16.3997 31.7839V28.5007C22.1243 28.4421 26.9573 24.7485 28.4888 19.7196C28.9517 18.2083 29.1151 16.5732 28.9177 14.8796C28.6454 12.5735 27.6788 10.4629 26.2289 8.73018C25.6299 8.01361 24.5612 7.86379 23.792 8.40447C22.9888 8.9712 22.8391 10.0656 23.4653 10.8147Z" fill="#222939"/>
</svg>
