<svg width="32" height="32" viewBox="0 0 32 32" fill="none" xmlns="http://www.w3.org/2000/svg">
<path fill-rule="evenodd" clip-rule="evenodd" d="M18.6 7.1875C18.6 8.39369 19.6467 9.375 20.9333 9.375H29V28.5625C29 30.4579 27.3551 32 25.3333 32H6.66667C4.64487 32 3 30.4579 3 28.5625V3.4375C3 1.54206 4.64487 0 6.66667 0H18.6V7.1875ZM13.3147 22.5H8.46667C7.9144 22.5 7.46667 22.9198 7.46667 23.4375C7.46667 23.9552 7.9144 24.375 8.46667 24.375H13.3147C13.8669 24.375 14.3147 23.9552 14.3147 23.4375C14.3147 22.9198 13.8669 22.5 13.3147 22.5ZM8.46667 17.5C7.9144 17.5 7.46667 17.9198 7.46667 18.4375C7.46667 18.9552 7.9144 19.375 8.46667 19.375H23.1333C23.6856 19.375 24.1333 18.9552 24.1333 18.4375C24.1333 17.9198 23.6856 17.5 23.1333 17.5H8.46667ZM24.1333 13.4375C24.1333 12.9198 23.6856 12.5 23.1333 12.5H8.46667C7.9144 12.5 7.46667 12.9198 7.46667 13.4375C7.46667 13.9552 7.9144 14.375 8.46667 14.375H23.1333C23.6856 14.375 24.1333 13.9552 24.1333 13.4375ZM20.9333 7.49986C20.7495 7.49986 20.6 7.35967 20.6 7.18736H20.6001V0.388672C20.8977 0.534422 21.1756 0.718984 21.4251 0.940234L27.8533 6.64161C28.136 6.89242 28.3713 7.18324 28.5543 7.49986H20.9333Z" fill="#222939"/>
</svg>
