<svg width="12" height="12" viewBox="0 0 32 32" xmlns="http://www.w3.org/2000/svg">
    <path fill-rule="evenodd" clip-rule="evenodd" d="M0 16C2.516 9.561 8.727 5 16 5c7.28 0 13.484 4.561 16 11-2.516 6.439-8.72 11-16 11-7.273 0-13.484-4.561-16-11zm8.727 0c0 4.048 3.258 7.333 7.273 7.333s7.273-3.285 7.273-7.333S20.015 8.667 16 8.667c-4.014 0-7.273 3.285-7.273 7.333zm2.91 0c0-2.427 1.956-4.4 4.363-4.4 2.407 0 4.364 1.973 4.364 4.4 0 2.427-1.957 4.4-4.364 4.4s-4.364-1.973-4.364-4.4z" fill="#D3D4D7"/>
</svg>
