<svg xmlns="http://www.w3.org/2000/svg" viewBox="0 0 137.72 119.37" class="h1icd474p9d111v6" ><defs><style>.h1icd474p9d111v6 .cls-1{fill:#f15a29;} </style></defs><g id="Layer_2" data-name="Layer 2"><g id="Layer_4" data-name="Layer 4"><path class="cls-1" d="M67.62,0h2a1.07,1.07,0,0,0,.27.12c5,1,7.5,4.12,7.4,9.21-.06,3-1.69,5-3.88,6.61-1.27,1-1.35.88-.59,2.28q9,16.55,18,33.07C91.89,53.22,93,55.12,94.09,57c.74,1.28,1.34,1.44,2.61.76l.79-.46q9.78-5.94,19.56-11.88c2-1.24,4.06-2.52,6.15-3.81-.23-.29-.4-.54-.61-.76-2.17-2.31-2.51-5.09-1.88-8A8.47,8.47,0,0,1,137,32.31a13.61,13.61,0,0,1,.37,1.56v2.77a14,14,0,0,1-.55,1.73A8.76,8.76,0,0,1,129,43.69c-.49,0-.76.16-.91.69q-6,20.91-12.1,41.82c-1,3.26-2,6.5-3,9.74-.44,1.36-1,1.65-2.37,1.65q-41.82,0-83.65,0a2.14,2.14,0,0,1-2.15-1.43,8.19,8.19,0,0,1-.42-1.07c-1.73-5.76-3.49-11.51-5.17-17.28Q14.34,61.14,9.55,44.42c-.18-.6-.44-.74-1-.82a11.9,11.9,0,0,1-3.36-.82,8.77,8.77,0,0,1-4.82-6V33.71a2,2,0,0,0,.14-.41,8.06,8.06,0,0,1,5.75-6.48,8.4,8.4,0,0,1,11,7.3c.12,2.41-.2,4.66-1.89,6.52-.27.3-.51.62-.8,1,.3.2.54.37.8.53,4,2.47,8,5,12,7.41,4.63,2.81,9.28,5.58,13.94,8.35a1.4,1.4,0,0,0,2.13-.55c.39-.6.74-1.23,1.09-1.85,3-5.37,6-10.72,8.92-16.1q5.93-10.84,11.78-21.72c.52-1,.49-1-.47-1.51A8.66,8.66,0,0,1,62.43,3,9.59,9.59,0,0,1,67.62,0Z"/><path class="cls-1" d="M71.5,119.37l-38.31-.25c-1.45,0-2.89-.07-4.34-.12a2.57,2.57,0,0,1-1-.2c-4.27-2.26-5.66-7-2.05-10.56A5.59,5.59,0,0,1,30,106.47c10.7,0,21.4-.17,32.11-.18,14.4,0,28.81.09,43.22.14,1.19,0,2.38,0,3.57.11a3.2,3.2,0,0,1,1.1.25,6.42,6.42,0,0,1,2.87,9.22,8.52,8.52,0,0,1-2.19,2.29,4,4,0,0,1-2.19.68C95.23,119.15,82,119.27,71.5,119.37Z"/><ellipse class="cls-1" cx="8.73" cy="34.99" rx="8.73" ry="8.83"/><ellipse class="cls-1" cx="68.84" cy="8.83" rx="8.73" ry="8.83"/><ellipse class="cls-1" cx="128.98" cy="34.99" rx="8.73" ry="8.83"/></g></g></svg>