<svg xmlns="http://www.w3.org/2000/svg" viewBox="0 0 118.87 118.92" class="h65eb88ct2ors1e0ep" ><defs><style>.h65eb88ct2ors1e0ep .cls-1{fill:#f15a29;} .h65eb88ct2ors1e0ep .cls-2{fill:#fff;} </style></defs><g id="Layer_2" data-name="Layer 2"><g id="Layer_4" data-name="Layer 4"><path class="cls-1" d="M59.53,118.92a59.46,59.46,0,1,1,59.34-59.58A59.44,59.44,0,0,1,59.53,118.92Zm0-38.77c-3.75,0-7.49,0-11.24,0a1.27,1.27,0,0,0-1.17.58q-6,8.27-12,16.49A1.08,1.08,0,0,0,35,98.42c1.5,3.67,3,7.35,4.49,11a1.66,1.66,0,0,0,.84.81,53.89,53.89,0,0,0,38.23,0,1.66,1.66,0,0,0,.88-.85c1.51-3.62,3-7.25,4.44-10.87a1.08,1.08,0,0,0-.16-1.2q-5.94-8.25-11.83-16.51a1.42,1.42,0,0,0-1.35-.67C66.87,80.16,63.2,80.15,59.53,80.15ZM30.31,94.76a2.49,2.49,0,0,0,.57-.5Q36.94,85.93,43,77.6a1.05,1.05,0,0,0,.16-1.08q-3.51-10.72-7-21.47a1.13,1.13,0,0,0-.82-.83Q25.68,51.11,16,48a1.07,1.07,0,0,0-1.14.22c-3,2.57-6.07,5.11-9.09,7.69A1.75,1.75,0,0,0,5.24,57,54.19,54.19,0,0,0,17.09,93.37a1.34,1.34,0,0,0,.82.51C22,94.19,26,94.46,30.31,94.76Zm83.39-35c0-.91,0-1.83,0-2.75a1.33,1.33,0,0,0-.53-1.14q-4.55-3.78-9.05-7.62a1.05,1.05,0,0,0-1.13-.21q-9.73,3.11-19.46,6.17a1.08,1.08,0,0,0-.79.77c-2.32,7.18-4.66,14.36-7,21.54a1.32,1.32,0,0,0,.15,1c4,5.6,8,11.17,12,16.77a1,1,0,0,0,1,.47c3.88-.3,7.77-.59,11.65-.84a1.58,1.58,0,0,0,1.3-.66A53.94,53.94,0,0,0,113.7,59.78ZM57,24.69c0-3.35,0-6.7,0-10a1.11,1.11,0,0,0-.59-1.07q-5-3.09-10-6.25A1.43,1.43,0,0,0,45,7.13,53.74,53.74,0,0,0,14.11,29.65a1.52,1.52,0,0,0-.18,1.09c.91,3.8,1.88,7.59,2.79,11.39a1.21,1.21,0,0,0,.94,1q9.61,3.06,19.23,6.18a1.24,1.24,0,0,0,1.28-.21q9.13-6.65,18.27-13.3a1.4,1.4,0,0,0,.48-1C57,31.43,57,28.06,57,24.69Zm5.16,0c0,3.39,0,6.79,0,10.19a1.4,1.4,0,0,0,.44,1q9.12,6.68,18.27,13.31a1.08,1.08,0,0,0,1.08.19c6.51-2.08,13-4.13,19.53-6.21a1.14,1.14,0,0,0,.63-.68q1.5-5.86,2.93-11.74a1.47,1.47,0,0,0-.19-1c-.82-1.24-1.66-2.47-2.58-3.63A54.26,54.26,0,0,0,74.13,7.19a2,2,0,0,0-1.79.27q-4.75,3-9.58,6a1.19,1.19,0,0,0-.67,1.17C62.12,18,62.11,21.31,62.11,24.66Z"/><path class="cls-2" d="M59.53,80.15c3.67,0,7.34,0,11,0a1.42,1.42,0,0,1,1.35.67q5.88,8.28,11.83,16.51a1.08,1.08,0,0,1,.16,1.2c-1.49,3.62-2.93,7.25-4.44,10.87a1.66,1.66,0,0,1-.88.85,53.89,53.89,0,0,1-38.23,0,1.66,1.66,0,0,1-.84-.81c-1.52-3.66-3-7.34-4.49-11a1.08,1.08,0,0,1,.14-1.21q6-8.23,12-16.49a1.27,1.27,0,0,1,1.17-.58C52,80.16,55.78,80.15,59.53,80.15Z"/><path class="cls-2" d="M30.31,94.76c-4.29-.3-8.35-.57-12.4-.88a1.34,1.34,0,0,1-.82-.51A54.19,54.19,0,0,1,5.24,57a1.75,1.75,0,0,1,.54-1.11c3-2.58,6.07-5.12,9.09-7.69A1.07,1.07,0,0,1,16,48q9.68,3.13,19.36,6.23a1.13,1.13,0,0,1,.82.83q3.47,10.74,7,21.47A1.05,1.05,0,0,1,43,77.6q-6.07,8.33-12.12,16.66A2.49,2.49,0,0,1,30.31,94.76Z"/><path class="cls-2" d="M113.7,59.78a53.94,53.94,0,0,1-11.8,33.49,1.58,1.58,0,0,1-1.3.66c-3.88.25-7.77.54-11.65.84a1,1,0,0,1-1-.47c-4-5.6-8-11.17-12-16.77a1.32,1.32,0,0,1-.15-1c2.31-7.18,4.65-14.36,7-21.54a1.08,1.08,0,0,1,.79-.77q9.74-3.06,19.46-6.17a1.05,1.05,0,0,1,1.13.21q4.5,3.84,9.05,7.62a1.33,1.33,0,0,1,.53,1.14C113.68,58,113.7,58.87,113.7,59.78Z"/><path class="cls-2" d="M57,24.69c0,3.37,0,6.74,0,10.12a1.4,1.4,0,0,1-.48,1q-9.12,6.67-18.27,13.3a1.24,1.24,0,0,1-1.28.21q-9.62-3.12-19.23-6.18a1.21,1.21,0,0,1-.94-1c-.91-3.8-1.88-7.59-2.79-11.39a1.52,1.52,0,0,1,.18-1.09A53.74,53.74,0,0,1,45,7.13a1.43,1.43,0,0,1,1.31.19q5,3.15,10,6.25A1.11,1.11,0,0,1,57,14.64C56.94,18,57,21.34,57,24.69Z"/><path class="cls-2" d="M62.11,24.66c0-3.35,0-6.7,0-10a1.19,1.19,0,0,1,.67-1.17q4.82-3,9.58-6a2,2,0,0,1,1.79-.27,54.26,54.26,0,0,1,28.11,18.86c.92,1.16,1.76,2.39,2.58,3.63a1.47,1.47,0,0,1,.19,1q-1.42,5.88-2.93,11.74a1.14,1.14,0,0,1-.63.68c-6.51,2.08-13,4.13-19.53,6.21a1.08,1.08,0,0,1-1.08-.19q-9.14-6.66-18.27-13.31a1.4,1.4,0,0,1-.44-1C62.09,31.45,62.11,28.05,62.11,24.66Z"/></g></g></svg>