<svg width="960" height="960" viewBox="0 0 960 960" fill="none" xmlns="http://www.w3.org/2000/svg">
<path d="M442.9 839.5V779.5H749.8V475.8C749.8 437.2 742.3 400 727.2 364.4C712.1 328.8 692 297.3 666.7 270C641.4 242.7 612.6 220.9 580.1 204.5C547.6 188.1 513.9 180 479 180C444.1 180 410.4 188.2 377.9 204.5C345.4 220.8 316.5 242.6 291.3 270C266 297.3 245.9 328.8 230.8 364.4C215.7 400 208.2 437.2 208.2 475.8V719.6H190.1C170.2 719.6 153.2 711.8 139.1 696.1C125 680.4 118 661.6 118 639.6V559.7C118 544.4 121.3 530.9 127.9 519.2C134.5 507.5 143.2 498 154.1 490.7L156.8 437.7C162.2 389.1 174.7 345.1 194.3 305.8C213.9 266.5 238.2 233.2 267.4 205.9C296.6 178.6 329.4 157.4 365.8 142.4C402.2 127.4 440 119.9 479.1 119.9C518.8 119.9 556.9 127.4 593.3 142.4C629.7 157.4 662.3 178.7 691.2 206.4C720.1 234.1 744.3 267.4 763.9 306.3C783.5 345.3 795.9 388.7 801.4 436.7L804.1 488.7C814.9 494.7 823.7 503.5 830.3 515.2C836.9 526.9 840.2 539.7 840.2 553.7V645.6C840.2 660.3 836.9 673.2 830.3 684.6C823.7 695.9 815 704.6 804.1 710.6V779.6C804.1 796.1 798.8 810.2 788.2 821.9C777.6 833.6 764.8 839.5 750 839.5H442.9ZM370.7 549.7C363.5 549.7 357.2 546.7 351.7 540.7C346.2 534.7 343.6 527.5 343.6 519.2C343.6 510.9 346.3 503.9 351.7 498.2C357.1 492.5 363.6 489.7 371.1 489.7C378.6 489.7 384.9 492.6 390.1 498.3C395.2 504 397.8 511.2 397.8 519.7C397.8 527.7 395.2 534.7 390 540.7C384.8 546.7 378.4 549.7 370.7 549.7ZM587.3 549.7C580.1 549.7 573.8 546.7 568.3 540.7C562.9 534.7 560.2 527.5 560.2 519.2C560.2 510.9 562.9 503.9 568.3 498.2C573.7 492.5 580.2 489.7 587.7 489.7C595.2 489.7 601.5 492.6 606.7 498.3C611.9 504 614.4 511.2 614.4 519.7C614.4 527.7 611.8 534.7 606.6 540.7C601.4 546.7 595 549.7 587.3 549.7ZM263.3 497.7C260.9 458.4 265.9 422.8 278.2 390.8C290.5 358.8 307.1 331.7 327.8 309.4C348.6 287.1 372.5 269.9 399.5 257.9C426.6 245.9 453.7 239.9 480.7 239.9C535.5 239.9 581.5 259.1 618.8 297.4C656.1 335.7 679 383.5 687.4 440.8C630.8 440.1 581.1 423.3 538 390.3C494.9 357.3 461.7 314.5 438.3 261.9C428.7 315.9 408.4 363.7 377.4 405.3C346.4 446.9 308.4 477.8 263.3 497.7Z" fill="white"/>
</svg>
