<svg width="32" height="32" viewBox="0 0 32 32" fill="none" xmlns="http://www.w3.org/2000/svg">
<g clip-path="url(#clip0_64_6836)">
<path fill-rule="evenodd" clip-rule="evenodd" d="M13.1875 4.68096C13.1875 2.14423 16.5883 0.746328 19.1124 0.311099C24.8891 -0.775162 32 1.05503 32 4.68096V27.3114C32 30.5628 26.504 32 22.5625 32C20.5516 32 19.2232 31.7612 17.7626 31.3623C17.7581 31.361 17.7538 31.3597 17.7497 31.3583C17.7401 31.3551 17.731 31.3517 17.7206 31.3488C18.905 30.4455 19.0394 30.2653 19.1993 30.0507C19.2487 29.9844 19.3006 29.9148 19.3867 29.8196C19.3909 29.8201 19.395 29.821 19.3991 29.822C19.4035 29.823 19.4079 29.824 19.4126 29.8244C19.5272 29.7028 19.6242 29.5694 19.7212 29.436C19.7823 29.352 19.8434 29.2679 19.9089 29.1868C19.9271 29.1637 19.9528 29.1329 19.9851 29.0943C20.2497 28.7778 20.9559 27.9331 21.6062 26.4299C21.6062 26.414 21.6226 26.3693 21.6285 26.355C25.2721 26.5665 28.7605 25.5402 30.125 24.5544V21.685C30.125 22.4834 28.8758 23.1535 28.1498 23.4855C26.4015 24.268 24.1664 24.5103 22.2264 24.4795C22.5525 23.0962 22.6019 21.9929 22.5249 20.6849C26.248 20.6849 29.0374 19.6512 30.1249 18.8656V16.5776C29.9749 16.5964 29.825 16.6901 29.7125 16.8027C29.3749 17.159 28.8062 17.4966 28.1499 17.7966C26.3988 18.5804 24.1589 18.8219 22.225 18.7907C21.8541 17.348 21.497 16.4243 20.5562 14.946C24.6849 15.4177 28.6175 14.3283 30.125 13.2393V10.9513C29.975 10.97 29.825 11.0638 29.7125 11.1763C28.168 12.8066 23.4405 13.662 19.4501 12.9017C19.31 12.8737 19.1745 12.841 19.039 12.8084C18.9072 12.7766 18.7754 12.7449 18.6394 12.7174C17.4987 11.6573 16.3149 10.9014 15.1188 10.3886C15.1094 10.3886 15.1 10.384 15.0907 10.3793C15.0813 10.3746 15.0719 10.3699 15.0625 10.3699V10.3723C14.4531 10.1174 13.8256 9.92465 13.1875 9.77393V9.76968V4.68096ZM25.6734 7.21569C26.9616 6.97313 28.8815 6.37268 29.7212 5.49409C29.9885 5.21209 30.125 4.93827 30.125 4.68096C30.125 3.86501 28.8958 3.21748 28.149 2.88609C26.4946 2.14941 24.3852 1.86778 22.5625 1.86778C20.7318 1.86778 18.6238 2.15179 16.9769 2.88609C16.2607 3.20348 15.0625 3.89808 15.0625 4.68096C15.0625 4.93827 15.1989 5.21209 15.4671 5.49409C16.3646 6.43569 18.1742 6.9752 19.4515 7.21569C21.4199 7.58565 23.705 7.58565 25.6734 7.21569ZM6.30155 12.1196C8.84492 11.0409 11.8426 11.0409 14.3859 12.1196C18.0877 13.6891 20.6875 17.3368 20.6875 21.6848C20.6875 27.3885 16.0497 31.9998 10.375 31.9998C4.51693 31.9998 0 27.2926 0 21.6848C0 17.3497 2.58749 13.6943 6.30155 12.1196ZM10.5255 20.6936C10.2178 20.6743 9.96034 20.6581 9.71217 20.4099C8.82704 19.5246 10.1962 17.8569 11.5917 19.5179C11.9232 19.9154 12.5146 19.9684 12.9119 19.6333C13.3083 19.3009 13.3605 18.7093 13.0273 18.3128C12.5243 17.713 11.9473 17.3015 11.3125 17.0895V15.996C11.3125 15.4777 10.8932 15.0583 10.375 15.0583C9.85679 15.0583 9.43748 15.4777 9.43748 15.996V17.1029C8.24761 17.5247 7.56248 18.6112 7.56248 19.7469C7.56248 20.632 8.02536 21.4372 8.38655 21.7983C9.03626 22.4481 9.61037 22.5095 10.0987 22.5616C10.4601 22.6002 10.7746 22.6338 11.0379 22.8972C11.8694 23.7289 10.6975 25.2987 9.35973 24.008C8.98986 23.6481 8.39386 23.6591 8.03498 24.0309C7.67517 24.4027 7.68523 24.997 8.05786 25.356C8.47842 25.7631 8.94636 26.0211 9.43754 26.1862V27.3111C9.43754 27.8294 9.85686 28.2489 10.375 28.2489C10.8932 28.2489 11.3125 27.8294 11.3125 27.3111V26.1891C11.3324 26.182 11.3534 26.1797 11.3744 26.1775C11.3973 26.175 11.4202 26.1725 11.4416 26.1637C13.2888 25.4074 13.7899 22.998 12.3635 21.5713C11.5505 20.758 10.9826 20.7223 10.5255 20.6936Z" fill="#222939"/>
</g>
<defs>
<clipPath id="clip0_64_6836">
<rect width="32" height="32" fill="white"/>
</clipPath>
</defs>
</svg>
