<svg width="32" height="32" viewBox="0 0 32 32" fill="none" xmlns="http://www.w3.org/2000/svg">
<path fill-rule="evenodd" clip-rule="evenodd" d="M20 18.6667C20 21.9747 22.692 24.6667 26 24.6667H29.3333V27.3333C29.3333 28.804 28.1373 30 26.6667 30H4C1.79467 30 0 28.2053 0 26V5.66667C0 5.57095 0.0251548 5.48305 0.050278 5.39525C0.0563029 5.3742 0.0623261 5.35315 0.068 5.332C0.388 3.44533 2.02267 2 4 2H22.6667C24.1373 2 25.3333 3.196 25.3333 4.66667V7.33333H26.6667C28.1373 7.33333 29.3333 8.52933 29.3333 10V12.6667H26C22.692 12.6667 20 15.3587 20 18.6667ZM4 4.66667C3.264 4.66667 2.66667 5.26533 2.66667 6C2.66667 6.73467 3.264 7.33333 4 7.33333H22.6667V4.66667H4ZM26 14.6668H31C31.552 14.6668 32 15.1148 32 15.6668V21.6668C32 22.2188 31.552 22.6668 31 22.6668H26C23.7947 22.6668 22 20.8721 22 18.6668C22 16.4614 23.7947 14.6668 26 14.6668ZM24.6667 18.6668C24.6667 19.4028 25.264 20.0001 26 20.0001C26.736 20.0001 27.3333 19.4028 27.3333 18.6668C27.3333 17.9308 26.736 17.3334 26 17.3334C25.264 17.3334 24.6667 17.9308 24.6667 18.6668Z" fill="#222939"/>
</svg>
