<svg width="21" height="20" viewBox="0 0 21 20" fill="none" xmlns="http://www.w3.org/2000/svg">
    <g clip-path="url(#a)">
        <path fill-rule="evenodd" clip-rule="evenodd" d="M18 1.25H3a2.507 2.507 0 0 0-2.5 2.5v10c0 1.374 1.125 2.5 2.5 2.5h7.639l-.033-.417-.175-.209c-.4-.378-.557-.527-.711-.679-.1-.098-.2-.198-.364-.362H3a.836.836 0 0 1-.833-.833v-1.667H6.54a2.294 2.294 0 0 0 2.292-2.292V7.708a2.294 2.294 0 0 0-2.292-2.291H2.167V3.75c0-.458.375-.833.833-.833h15c.458 0 .833.375.833.833V7.5c.466.214.56.41.556.833v3.75h1.11V3.75c0-1.375-1.125-2.5-2.5-2.5zm-1.042 7.5h-2.083c-.575 0-1.042.467-1.042 1.042v3.75h-1.875a.625.625 0 0 0-.442 1.066l3.959 3.958c.244.245.64.245.884 0l3.958-3.958a.625.625 0 0 0-.442-1.067H18v-3.75c0-.574-.467-1.041-1.041-1.041zm-13.125 0a1.666 1.666 0 1 0 3.332 0 1.666 1.666 0 0 0-3.332 0z" fill="#90949C"/>
    </g>
    <defs>
        <clipPath id="a">
            <path fill="#fff" transform="translate(.5)" d="M0 0h20v20H0z"/>
        </clipPath>
    </defs>
</svg>
